<?xml version="1.0" encoding="utf-8"?>
<!-- Generator: Adobe Illustrator 15.0.0, SVG Export Plug-In . SVG Version: 6.00 Build 0)  -->
<!DOCTYPE svg PUBLIC "-//W3C//DTD SVG 1.1//EN" "http://www.w3.org/Graphics/SVG/1.1/DTD/svg11.dtd">
<svg version="1.1" id="Ebene_1" xmlns="http://www.w3.org/2000/svg" xmlns:xlink="http://www.w3.org/1999/xlink" x="0px" y="0px"
	 width="100px" height="32.436px" viewBox="0 0 100 32.436" enable-background="new 0 0 100 32.436" xml:space="preserve">
<g>
	<path fill="#1A171B" d="M65.978,31.395V16.961h-1.8l0.082,9.834l-2.27-9.834h-2.045v14.434h1.779l-0.164-10.591l2.311,10.591
		H65.978z M59.412,31.395v-7.688h-3.046v1.759h1.165v3.271c0,0.388-0.021,0.879-0.409,1.145c-0.225,0.144-0.449,0.144-0.552,0.144
		c-0.49,0.021-0.716-0.287-0.797-0.45c-0.123-0.245-0.144-0.695-0.144-1.288v-8.301c0-0.471-0.041-1.124,0.389-1.432
		c0.103-0.081,0.286-0.163,0.572-0.163c0.858-0.021,0.838,0.777,0.858,1.002c0,0.143,0.021,0.307,0.021,0.449v1.636h1.759v-1.513
		c0-1.227-0.082-1.697-0.471-2.229c-0.674-0.94-1.737-0.94-2.105-0.94c-1.8,0-2.433,1.104-2.658,1.779
		c-0.204,0.572-0.245,1.104-0.245,2.289v7.238c0,1.083,0.041,2.208,0.961,2.984c0.613,0.512,1.309,0.532,1.595,0.532
		c1.084,0,1.513-0.532,1.779-0.899l0.184,0.674H59.412z M53.214,16.961h-1.881v14.434h1.881V16.961z M50.943,28.226
		c0-0.838-0.123-1.922-1.125-3.496c-0.204-0.327-0.409-0.634-0.634-0.94c-0.286-0.43-0.572-0.838-0.838-1.268
		c-0.634-1.002-0.961-1.677-0.961-2.883c0-0.675,0.02-1.472,0.94-1.472c0.797,0,0.736,0.817,0.756,0.981v2.556h1.738v-2.556
		c0-0.572-0.061-0.818-0.143-1.084c-0.45-1.411-1.901-1.39-2.29-1.39c-0.817,0-1.329,0.205-1.635,0.388
		c-0.593,0.348-1.288,1.186-1.288,2.78c0,1.677,0.797,2.903,1.104,3.395c0.552,0.92,1.206,1.758,1.738,2.698
		c0.531,0.9,0.695,1.473,0.695,2.516c0,0.653,0.021,1.676-0.92,1.696c-0.307,0-0.49-0.122-0.572-0.184
		c-0.307-0.205-0.409-0.512-0.409-1.206v-2.638H45.34v2.392c0,0.839,0.041,1.615,0.634,2.29c0.307,0.368,0.941,0.859,2.106,0.859
		c0.634,0,1.022-0.123,1.268-0.226C50.963,30.701,50.943,28.533,50.943,28.226 M45.122,31.395v-1.819H42.3v-4.784h2.515v-1.799
		H42.28V18.76h2.842v-1.799h-4.764v14.434H45.122z M37.866,28.819c0,0.675-0.184,0.798-0.613,0.798h-1.268V18.719h1.104
		c0.164,0,0.675-0.021,0.756,0.572c0.021,0.144,0.021,0.286,0.021,0.43V28.819z M39.788,28.901v-9.609
		c0-0.695-0.021-1.39-0.613-1.901c-0.573-0.491-1.411-0.429-1.595-0.429h-3.497v14.434h3.66c0.429,0,1.635,0.082,1.942-1.309
		C39.747,29.821,39.788,29.494,39.788,28.901"/>
	<path fill="#1A171B" d="M98.964,15.64V1.205h-2.801l-1.37,9.589l-1.554-9.589h-2.719V15.64h1.778V4.026l1.636,11.613h1.615
		l1.656-11.613V15.64H98.964z M88.046,12.246c0,0.858,0.062,1.963-1.165,1.963c-0.981,0-1.104-0.736-1.104-1.513V4.967
		c0-1.083-0.041-1.676,0.47-2.003c0.266-0.184,0.593-0.205,0.695-0.205c0.511,0,0.757,0.246,0.879,0.43
		c0.225,0.347,0.225,0.899,0.225,1.778V12.246z M89.947,12.409V5.54c0-1.615-0.02-2.372-0.429-3.087
		c-0.082-0.164-0.286-0.491-0.654-0.777c-0.716-0.573-1.574-0.573-1.881-0.573c-1.022,0-1.636,0.368-1.983,0.634
		c-1.124,0.858-1.124,2.106-1.124,3.394v7.196c0,0.818,0.02,1.084,0.143,1.513c0.307,1.125,1.165,1.615,1.554,1.758
		c0.491,0.184,1.043,0.184,1.206,0.184c0.43,0,2.311,0.021,2.924-1.676C89.907,13.554,89.947,12.961,89.947,12.409 M83.742,15.64
		v-1.779h-3.148V1.205h-1.901V15.64H83.742z M76.446,6.746c0,0.491-0.164,0.634-0.675,0.634h-1.206V2.963h1.165
		c0.593,0,0.716,0.184,0.716,0.715V6.746z M78.368,6.419v-2.74c0-0.613,0.041-1.411-0.368-1.921
		c-0.491-0.634-1.452-0.552-1.595-0.552h-3.722V15.64h1.861V9.097h1.901c0.756,0,1.124-0.062,1.431-0.348
		C78.348,8.32,78.368,7.625,78.368,6.419 M72.124,1.205h-1.881V15.64h1.881V1.205z M67.804,13.063c0,0.675-0.184,0.797-0.613,0.797
		h-1.268V2.963h1.104c0.163,0,0.675-0.021,0.756,0.572c0.021,0.143,0.021,0.286,0.021,0.43V13.063z M69.726,13.145V3.536
		c0-0.695-0.021-1.39-0.613-1.901c-0.572-0.491-1.41-0.429-1.595-0.429h-3.496V15.64h3.66c0.429,0,1.636,0.082,1.942-1.309
		C69.685,14.065,69.726,13.738,69.726,13.145 M56.968,13.37c-0.122,0.184-0.49,0.736-1.186,0.736c-0.756,0-1.145-0.655-1.247-0.818
		c-0.144-0.266-0.348-0.777-0.348-1.493c-0.021-0.838,0.245-1.39,0.716-2.065c0.307,0.593,0.593,1.206,0.92,1.778
		C56.171,12.144,56.58,12.757,56.968,13.37 M56.661,3.843c0,1.042-0.756,1.983-1.329,2.74c-0.143-0.328-0.47-1.104-0.47-2.147
		c0-1.084,0.47-1.595,1.022-1.595C56.273,2.841,56.661,3.065,56.661,3.843 M60.832,15.783v-1.861
		c-0.511-0.041-0.961-0.164-1.737-0.838c0.776-1.431,0.879-3.087,0.899-4.682h-1.636c-0.062,1.738-0.144,2.229-0.45,3.148
		c-0.327-0.552-0.653-1.104-0.981-1.676c-0.286-0.532-0.552-1.083-0.797-1.656c1.022-1.165,2.188-2.658,2.188-4.314
		c0-1.35-0.756-2.003-1.227-2.249c-0.45-0.225-0.981-0.245-1.104-0.245c-1.248,0-1.902,0.736-2.168,1.104
		c-0.613,0.879-0.634,1.922-0.634,2.249c0,1.247,0.409,2.31,0.572,2.699c0.082,0.205,0.185,0.389,0.286,0.593
		c-0.633,0.818-1.145,1.513-1.41,2.535c-0.144,0.613-0.144,1.083-0.144,1.329c-0.021,2.188,1.084,3.21,1.923,3.598
		c0.592,0.287,1.124,0.307,1.369,0.307c1.391,0,2.086-0.777,2.433-1.166c0.43,0.368,0.654,0.47,0.921,0.613
		C59.626,15.517,59.871,15.619,60.832,15.783 M46.93,4.558c0,1.002-0.021,1.861-0.102,2.208C46.706,7.277,46.419,7.4,45.929,7.4
		h-0.9V2.943h0.961c0.368,0,0.572,0,0.695,0.123c0.123,0.103,0.184,0.266,0.204,0.573C46.91,3.945,46.93,4.251,46.93,4.558
		 M49.098,15.64c-0.327-0.9-0.368-1.207-0.368-2.842v-1.574c0-1.186-0.021-1.778-0.348-2.29C47.973,8.3,47.38,8.381,47.073,8.32
		c0.307-0.041,1.125-0.021,1.472-0.777c0.143-0.327,0.204-0.777,0.225-1.145c0.041-0.572,0.041-1.145,0.041-1.697
		c0-0.981-0.041-1.697-0.123-2.065c-0.286-1.309-1.247-1.37-1.758-1.411c-0.225-0.021-0.47-0.021-0.715-0.021h-3.108V15.64h1.901
		V8.995h0.777c0.225,0,0.43,0.041,0.613,0.184c0.246,0.225,0.307,0.573,0.348,0.92c0.062,0.491,0.082,1.002,0.082,1.493v1.022
		c0,1.37,0.041,1.676,0.286,3.026H49.098z M40.643,12.246c0,0.858,0.062,1.963-1.165,1.963c-0.981,0-1.104-0.736-1.104-1.513V4.967
		c0-1.083-0.041-1.676,0.47-2.003c0.266-0.184,0.593-0.205,0.695-0.205c0.511,0,0.757,0.246,0.879,0.43
		c0.225,0.347,0.225,0.899,0.225,1.778V12.246z M42.544,12.409V5.54c0-1.615-0.02-2.372-0.429-3.087
		c-0.082-0.164-0.286-0.491-0.654-0.777c-0.715-0.573-1.574-0.573-1.881-0.573c-1.022,0-1.636,0.368-1.983,0.634
		c-1.125,0.858-1.125,2.106-1.125,3.394v7.196c0,0.818,0.02,1.084,0.143,1.513c0.307,1.125,1.165,1.615,1.554,1.758
		c0.491,0.184,1.043,0.184,1.206,0.184c0.43,0,2.311,0.021,2.924-1.676C42.504,13.554,42.544,12.961,42.544,12.409 M36.339,15.64
		v-1.779h-3.148V1.205H31.29V15.64H36.339z M30.948,15.64v-1.82h-2.821V9.036h2.515V7.236h-2.535V3.004h2.842V1.205h-4.764V15.64
		H30.948z M25.547,15.64V1.205h-1.901v5.868h-1.758V1.205h-1.901V15.64h1.901V8.934h1.758v6.706H25.547z M19.542,12.368V9.669
		h-1.921v2.801c0,0.532,0.02,1.145-0.471,1.493c-0.286,0.225-0.613,0.205-0.736,0.205c-1.063,0-1.125-0.777-1.145-1.166
		c-0.021-0.164-0.021-0.327-0.021-0.491V4.538c0-0.552-0.041-1.166,0.429-1.574c0.164-0.123,0.369-0.245,0.777-0.245
		c1.268,0,1.166,1.186,1.166,1.492v2.229h1.921v-1.84c0-0.695-0.02-1.35-0.307-2.004c-0.143-0.348-0.368-0.654-0.674-0.899
		c-0.368-0.307-0.94-0.634-2.004-0.634c-0.45,0-0.797,0.041-1.206,0.184c-1.84,0.593-1.942,2.412-1.983,2.964
		c-0.021,0.327-0.041,0.654-0.041,0.981v6.972c0,0.838,0,1.738,0.511,2.474c0.348,0.511,1.083,1.186,2.556,1.186
		c1.533,0,2.27-0.757,2.617-1.268C19.481,13.861,19.542,13.166,19.542,12.368 M10.829,11.223H9.111L9.909,3.72L10.829,11.223z
		 M13.303,15.64L11.074,1.205h-2.31L6.719,15.64H8.58l0.327-2.658h2.167l0.368,2.658H13.303z M4.818,11.346
		c0,0.838-0.041,1.799-0.062,2.024c-0.082,0.532-0.47,0.491-0.899,0.491H2.875v-5.03h1.063c0.184,0,0.43,0.021,0.593,0.164
		c0.205,0.205,0.225,0.634,0.246,0.9C4.797,10.385,4.818,10.855,4.818,11.346 M4.777,5.069c0,0.695-0.021,1.166-0.062,1.452
		C4.634,7.236,4.205,7.257,3.611,7.257H2.875V2.922h0.94c0.348,0,0.552,0,0.695,0.123C4.634,3.147,4.695,3.332,4.715,3.72
		C4.756,4.17,4.777,4.62,4.777,5.069 M6.658,11.755c0-0.389-0.02-0.756-0.02-1.125c-0.021-1.002,0.02-1.554-0.205-1.963
		c-0.265-0.47-0.858-0.613-1.37-0.654c0,0,0.389-0.062,0.593-0.123C5.963,7.809,6.29,7.604,6.433,7.298
		c0.205-0.409,0.185-1.043,0.185-1.125c0.021-0.45,0.041-0.899,0.041-1.35c0-0.245-0.02-0.491-0.02-0.736
		C6.617,2.8,6.617,2.125,6.106,1.634c-0.47-0.429-1.104-0.429-1.697-0.429H1.036V15.64h2.903c0.675,0,1.493,0.021,2.065-0.45
		c0.614-0.532,0.593-1.513,0.614-1.677C6.658,12.92,6.658,12.348,6.658,11.755"/>
</g>
</svg>
