<?xml version="1.0" encoding="utf-8"?>
<!-- Generator: Adobe Illustrator 15.0.0, SVG Export Plug-In . SVG Version: 6.00 Build 0)  -->
<!DOCTYPE svg PUBLIC "-//W3C//DTD SVG 1.1//EN" "http://www.w3.org/Graphics/SVG/1.1/DTD/svg11.dtd">
<svg version="1.1" id="Ebene_1" xmlns="http://www.w3.org/2000/svg" xmlns:xlink="http://www.w3.org/1999/xlink" x="0px" y="0px"
	 width="140px" height="140px" viewBox="0 0 140 140" enable-background="new 0 0 140 140" xml:space="preserve">
<g>
	<polygon fill="#FFFFFF" points="79.024,15.025 66.099,13.79 63.894,16.057 29.03,21.896 11.015,40.678 19.33,64.014 21.809,65.395 
		28.811,78.527 42.728,79.752 28.077,97.191 34.126,112.367 67.534,119.068 83.471,122.25 96.929,124.303 130.435,85.951 
		129.259,81.149 110.249,75.837 105.282,63.995 90.403,61.944 94.435,56.787 79.68,15.711 	"/>
	<polygon fill="none" stroke="#000000" stroke-width="0.3388" points="79.102,15.247 66.099,13.79 63.894,16.057 51.382,17.926 
		43.318,19.157 29.33,21.791 25.112,26.175 11.015,40.678 19.258,64.286 21.809,65.395 28.811,78.527 42.889,80.209 38.25,85.527 
		28.077,97.191 34.126,112.367 37.081,113.32 63.068,118.213 87.602,122.889 96.929,124.303 110.823,109.701 120.558,98.229 
		130.577,85.645 129.03,81.224 110.243,76.069 105.282,63.995 100.073,63.4 90.854,62.282 94.11,56.817 91.748,49.563 80.03,15.755 
			"/>
	<g>
		<path fill="#0D0D0D" d="M10,40.475l0.182,0.484c2.724,7.765,5.591,15.478,8.225,23.271c0.053,0.152,0.235,0.237,0.455,0.27
			c-0.007,0.05,0.024,0.104,0.117,0.152c0.616,0.325,1.234,0.637,1.855,0.945c0,0.01,0,0.016,0,0.02
			c2.3,4.47,4.814,8.823,7.17,13.255c0.015,0.039,0.043,0.064,0.078,0.082c0.105,0.094,0.272,0.162,0.532,0.18
			c4.295,0.297,8.571,0.73,12.844,1.25c-4.558,5.51-9.24,10.916-14.033,16.215c-0.383,0.201-0.618,0.551-0.46,1.002
			c1.818,5.129,4.029,10.1,5.847,15.232c0.205,0.584,1.024,0.688,1.633,0.457c13.627,2.742,27.223,5.641,40.897,8.127
			c0.062,0.012,0.164,0.012,0.288,0.006c0.206,0.131,0.56,0.186,0.924,0.17c6.396,1.252,12.817,2.342,19.24,3.381
			c0.424,0.441,1.387,0.58,1.881,0.064c11.953-12.602,23.605-25.18,34.105-39.066c0.297-0.391,0.195-0.709-0.092-0.912l-1.336-3.812
			c-0.006-0.02-0.012-0.029-0.02-0.044c0.1-0.124-0.049-0.231-0.311-0.306c0.039-0.124-0.061-0.254-0.369-0.359
			c-5.869-1.93-11.898-3.284-17.867-4.873c-0.049-0.241-0.463-0.377-0.918-0.408c-1.4-3.741-2.783-7.475-4.084-11.254
			c-0.074-0.235-0.328-0.371-0.641-0.424c-0.195-0.172-0.498-0.292-0.906-0.292c-4.512-0.019-8.936-1.091-13.408-1.514
			c1.287-1.441,2.58-2.87,3.875-4.281c0.436-0.475,0.111-0.846-0.424-1.007c-4.848-13.963-9.703-27.911-14.52-41.887
			c-0.012-0.057-0.057-0.098-0.114-0.133c0.096-0.157-0.077-0.308-0.767-0.342c-4.29-0.216-8.569-0.754-12.867-0.972
			c-0.065-0.003-0.131,0-0.201,0c-0.522-0.033-1.116,0.057-1.324,0.269c-0.551,0.57-1.104,1.133-1.654,1.704
			c-0.087,0-0.173,0.006-0.26,0.018c-11.515,1.948-22.975,3.354-34.397,5.804c-0.393,0.085-0.618,0.229-0.717,0.399
			c-0.137,0.038-0.254,0.096-0.328,0.172c-5.968,6.288-11.769,12.741-17.978,18.798L10,40.475z M46.216,80.995
			c0.792,0.111,1.583,0.22,2.375,0.333c0.056,0,0.105,0.014,0.158,0.014c0.683,1.99,1.375,3.982,2.068,5.971
			c0.176,0.52,1.268,0.547,1.883,0.232c3.739,0.141,7.456,0.5,11.197,0.32c0.26,0.545,1.466,0.822,2.066,0.322
			c6.753-5.578,12.919-12.065,18.908-18.671c8.285,2.87-0.495,13.427-3.821,15.925c-3.531,2.65-7.418,4.842-11.537,6.447
			c-4.62,1.797-9.558,3.182-14.545,3.299c-3.687,0.088-9.001-0.285-10.328-4.613c-1.07-3.494-0.519-6.447,1.491-9.425
			C46.166,81.1,46.192,81.045,46.216,80.995z M65.697,86.1c-4.737-13.562-9.205-27.401-13.445-41.134
			c0.013-0.013,0.034-0.024,0.047-0.037c9.025-9.626,17.85-18.935,26.926-28.518c4.672,13.572,9.551,27.31,14.264,40.869
			C84.577,67.011,75.758,77.463,65.697,86.1z M12.264,41.603c8.275,0.538,16.512,1.612,24.768,2.425
			c0,0.108,0.069,0.036,0.198,0.105c-0.086,0.101-0.129,0.221-0.092,0.354c2.931,10.605,6.011,20.527,9.53,30.949
			c-8.735-4.106-17.916-7.122-26.475-11.608c-0.068-0.041-0.136-0.161-0.186-0.301c0-0.003-0.124-0.398-0.124-0.402
			C17.307,55.503,14.932,49.194,12.264,41.603z M50.632,46.074c4.304,13.907,8.62,26.727,13.433,40.475
			c-3.566,0.154-7.922-0.322-11.485-0.451c-4.836-13.891-9.308-27.378-13.238-41.55C42.809,44.846,47.16,45.773,50.632,46.074z
			 M23.476,67.202c7.928,3.749,16.16,6.789,24.038,10.657l0.205,0.427c0.31,0.903,0.025,0.532,0.336,1.435
			c-6.28-0.881-12.504-1.719-18.834-2.174C27.214,73.777,25.468,70.982,23.476,67.202z M61.918,17.001
			c-8.206,8.448-15.943,16.392-23.68,25.25c-8.405-0.812-16.84-1.697-25.272-2.245c5.878-5.744,11.107-11.563,16.756-17.539
			c0.086-0.003,0.173-0.013,0.263-0.031C40.666,20.147,51.158,18.754,61.918,17.001z M76.797,16.661
			c-9.218,9.734-17.049,17.868-26.225,27.642c-0.241,0.023,0.053,0.146-0.238,0.076c-3.566-0.315-6.803-0.919-10.372-1.2
			c8.862-10.191,17.304-18.899,26.71-28.591c3.884,0.236,7.169,0.712,11.052,0.918L76.797,16.661z M90.614,63.12
			c0.031,0.004,0.067,0.011,0.102,0.015c4.649,0.378,9.194,1.427,13.85,1.556c0.037,0.109,0.068,0.214,0.111,0.321
			C94.22,78.273,82.425,90.383,70.768,102.572c-13.778-0.699-27.261-3.766-40.854-5.98c4.726-5.219,9.388-10.488,13.884-15.915
			c0.105,0.015,0.891,0.071,0.989,0.083c-3.584,6.379-2.767,13.662,3.872,15.275c6.908,1.67,13.983,0.18,20.554-2.188
			c6.608-2.389,13.831-6.971,18.179-12.815c3.223-4.317,4.521-10.811-1.215-12.961C87.661,66.42,89.141,64.769,90.614,63.12z
			 M72.364,103.506c0.074-0.037,0.136-0.074,0.186-0.127c11.255-11.783,22.963-24.098,33.178-36.826
			c1.049,2.957,1.307,3.662,2.418,6.606c0.051,0.127,0.959,2.802,1.096,2.876c-10.512,12.859-21.913,25.4-33.485,37.316
			C74.701,110.049,73.517,106.783,72.364,103.506z M127.772,81.416c-10.812,13.15-21.785,25.998-33.09,38.719
			c-0.117,0.008-0.24,0.021-0.354,0.039c-5.772-1.689-9.176-2.68-14.965-4.324c-0.092-0.023-2.715-0.857-2.875-0.848
			c11.979-12.275,23.629-24.879,34.497-38.156C116.589,78.323,122.259,79.604,127.772,81.416z M130.259,85.355
			c-10.09,13.289-22.01,26.061-33.467,38.139c-0.186-0.674-0.5-1.766-0.73-2.432c0.158-0.055,0.291-0.119,0.371-0.203
			c10.994-12.352,22.141-25.764,32.66-38.517c0,0,0.521,1.151,0.699,1.524C129.798,83.873,130.251,85.342,130.259,85.355z
			 M95.169,123.494c-5.558-0.908-11.862-2.047-17.388-3.129c-0.34-1.504-0.572-2.209-1.003-3.693
			c5.585,1.611,11.863,3.096,17.442,4.713c0.08,0.025,0.092,0.297,0.229,0.297C94.72,122.486,94.954,122.668,95.169,123.494z
			 M35.053,112.219c0-0.08,0.066,0.068,0.031-0.023c-1.673-4.719-4.348-9.488-6.072-14.188c13.388,2.195,28.172,5.221,41.744,5.928
			c1.317,3.732,2.405,6.936,3.544,10.715c-0.068,0.137-0.025,0.254,0.098,0.334c0.471,1.598,1.09,3.293,1.467,4.93
			C62.444,117.434,48.43,114.91,35.053,112.219z"/>
		<path fill="#0D0D0D" d="M76.124,105.164c3.363-3.916,7.168-7.41,10.714-11.152c0.467-0.488,2.79-0.346,2.106,0.373
			c-3.553,3.738-7.348,7.229-10.718,11.148C77.793,106.041,75.467,105.924,76.124,105.164z"/>
		<path fill="#0D0D0D" d="M105.62,74.161c0.07,0.668,0.254,1.286,0.473,1.914c0.412,1.172-1.92,1.63-2.27,0.622
			c-0.271-0.773-0.508-1.55-0.6-2.363C103.103,73.215,105.489,73.026,105.62,74.161z"/>
		<path fill="#0D0D0D" d="M56.139,48.309c3.244,8.78,6.268,17.64,9.344,26.474c0.041,0.107,0.13,0.182,0.26,0.222
			c-0.406,0.551,1.233,0.708,1.628,0.3c7.082-7.312,14.197-14.581,21.229-21.936c0.1-0.1,0.123-0.185,0.109-0.26
			c0.157-0.105,0.234-0.206,0.203-0.311c-0.006-0.01-0.012-0.019-0.012-0.025c0.023-0.022,0.037-0.048,0.03-0.074
			c-3.126-9.032-6.039-18.137-9.169-27.171c-0.015-0.045-0.058-0.083-0.096-0.112c0.488-0.525-1.211-0.668-1.589-0.295
			c-7.465,7.312-14.49,15.041-21.698,22.602c-0.133,0.136-0.127,0.25-0.035,0.335C56.191,48.128,56.104,48.221,56.139,48.309z
			 M67.583,71.119c-0.031,0.03-0.067,0.064-0.096,0.096c-0.016-0.037-0.024-0.078-0.041-0.121
			C67.491,71.1,67.534,71.112,67.583,71.119z M76.831,28.241c0.01-0.016,0.02-0.024,0.041-0.039c-0.006,0.014-0.02,0.02-0.024,0.029
			C76.844,28.235,76.838,28.238,76.831,28.241z"/>
		<path fill="#0D0D0D" d="M70.387,76.48c0.343,0.373,0.548,0.767,0.714,1.242c0.396,1.12-1.936,1.535-2.269,0.595
			c-0.118-0.321-0.224-0.632-0.455-0.892C67.502,76.455,69.723,75.75,70.387,76.48z"/>
		<path fill="#0D0D0D" d="M123.515,81.805c-3.488-1.168-7.1-2.037-10.646-2.999c-0.461-0.13-1.041,0.06-1.4,0.333
			c-0.072,0.037-0.137,0.088-0.18,0.148c-2.406,2.994-4.836,5.975-7.303,8.934c-0.145,0.105-0.252,0.232-0.305,0.355
			c-6.729,8.096-13.646,16.049-20.659,23.879c-0.324,0.359-0.013,0.605,0.428,0.695c0.064,0.084,0.193,0.17,0.401,0.232
			c3.015,0.98,6.063,1.85,9.06,2.887c0.076,0.455,1.32,0.598,1.729,0.143c9.963-10.996,19.568-22.254,29.189-33.55
			C124.231,82.535,124.315,82.077,123.515,81.805z M121.739,82.951c-0.494,0.58-0.982,1.154-1.479,1.736
			c-0.617-0.174-1.242-0.354-1.852-0.525c0.504-0.594,1.016-1.176,1.523-1.767C120.54,82.572,121.142,82.764,121.739,82.951z
			 M118.419,81.953c-0.508,0.588-1.021,1.176-1.527,1.76c-0.699-0.201-1.395-0.412-2.09-0.609c0.5-0.575,0.988-1.15,1.49-1.729
			C117.003,81.564,117.7,81.756,118.419,81.953z M110.312,82.912c0.723,0.18,1.441,0.377,2.158,0.572
			c-0.576,0.67-1.145,1.346-1.723,2.02c-0.684-0.209-1.363-0.414-2.043-0.613C109.235,84.229,109.772,83.568,110.312,82.912z
			 M107.8,85.982c0.674,0.201,1.35,0.398,2.018,0.604c-0.629,0.742-1.258,1.477-1.881,2.213c-0.641-0.229-1.277-0.438-1.92-0.648
			C106.612,87.43,107.204,86.703,107.8,85.982z M104.888,89.498c0.637,0.211,1.268,0.424,1.904,0.643
			c-0.574,0.676-1.145,1.35-1.713,2.027c-0.594-0.252-1.186-0.508-1.775-0.779C103.837,90.768,104.36,90.129,104.888,89.498z
			 M102.284,92.615c0.586,0.252,1.174,0.514,1.775,0.758c-0.678,0.795-1.35,1.59-2.02,2.375c-0.551-0.232-1.1-0.467-1.643-0.709
			c-0.037-0.025-0.084-0.037-0.135-0.049C100.935,94.205,101.616,93.412,102.284,92.615z M99.179,96.273
			c0.594,0.256,1.182,0.514,1.77,0.764c-0.6,0.705-1.207,1.416-1.809,2.121c-0.598-0.238-1.188-0.494-1.779-0.76
			C97.968,97.686,98.573,96.982,99.179,96.273z M96.452,99.455c0.586,0.26,1.188,0.52,1.793,0.758
			c-0.773,0.906-1.553,1.809-2.326,2.713c-0.568-0.23-1.137-0.465-1.693-0.719c-0.037-0.012-0.08-0.021-0.137-0.027
			C94.874,101.273,95.667,100.363,96.452,99.455z M93.429,102.932c0.611,0.26,1.227,0.5,1.842,0.742
			c-0.74,0.859-1.484,1.725-2.227,2.584c-0.65-0.225-1.293-0.451-1.932-0.668C91.884,104.713,92.661,103.822,93.429,102.932z
			 M90.217,106.609c0.643,0.217,1.289,0.441,1.936,0.668c-0.748,0.861-1.496,1.721-2.244,2.578c-0.649-0.227-1.287-0.463-1.93-0.717
			C88.723,108.305,89.462,107.453,90.217,106.609z M87.274,109.932c0.641,0.242,1.293,0.467,1.944,0.695
			c-0.751,0.857-1.505,1.703-2.261,2.557c-0.673-0.209-1.347-0.424-2.015-0.637C85.721,111.67,86.5,110.803,87.274,109.932z
			 M88.536,113.67c0.748-0.838,1.494-1.68,2.232-2.52c0.544,0.178,1.076,0.365,1.622,0.547c-0.756,0.826-1.504,1.654-2.264,2.471
			C89.599,114.006,89.067,113.84,88.536,113.67z M91.59,114.631c0.043-0.023,0.081-0.055,0.111-0.086
			c0.717-0.773,1.422-1.553,2.131-2.328c0.568,0.207,1.135,0.43,1.691,0.664c0.068,0.033,0.137,0.049,0.197,0.068
			c-0.705,0.785-1.404,1.57-2.121,2.357C92.938,115.076,92.265,114.85,91.59,114.631z M96.433,112.164
			c-0.621-0.26-1.258-0.494-1.895-0.727c0.727-0.807,1.463-1.617,2.186-2.428c0.611,0.248,1.223,0.508,1.818,0.768
			C97.843,110.576,97.142,111.367,96.433,112.164z M99.45,108.762c-0.6-0.266-1.205-0.518-1.811-0.764
			c0.766-0.855,1.533-1.719,2.297-2.574c0.609,0.234,1.215,0.479,1.809,0.742C100.981,107.031,100.218,107.898,99.45,108.762z
			 M102.417,105.404c-0.609-0.254-1.215-0.488-1.832-0.73c0.801-0.902,1.605-1.811,2.4-2.721c0.611,0.223,1.227,0.457,1.83,0.705
			C104.019,103.574,103.218,104.482,102.417,105.404z M105.722,101.607c-0.605-0.234-1.225-0.467-1.834-0.688
			c0.586-0.678,1.17-1.344,1.754-2.014c0.576,0.215,1.15,0.432,1.725,0.645c0.039,0.012,0.074,0.02,0.119,0.037
			C106.897,100.264,106.31,100.939,105.722,101.607z M108.567,98.336c-0.609-0.227-1.219-0.453-1.83-0.688
			c0.691-0.797,1.381-1.596,2.07-2.387c0.594,0.236,1.188,0.477,1.781,0.725C109.915,96.773,109.235,97.557,108.567,98.336z
			 M111.616,94.791c-0.594-0.24-1.188-0.475-1.781-0.717c0.605-0.707,1.225-1.416,1.834-2.121c0.604,0.223,1.203,0.453,1.809,0.674
			C112.854,93.348,112.241,94.074,111.616,94.791z M114.628,91.285c-0.598-0.221-1.207-0.447-1.807-0.674
			c0.701-0.807,1.398-1.613,2.104-2.424c0.611,0.191,1.236,0.383,1.848,0.578c0,0,0.008,0,0.008,0.01
			C116.062,89.604,115.345,90.443,114.628,91.285z M117.716,87.67c-0.617-0.193-1.24-0.383-1.852-0.576
			c0.607-0.703,1.209-1.398,1.818-2.104c0.619,0.18,1.246,0.357,1.867,0.525C118.94,86.232,118.333,86.957,117.716,87.67z
			 M94.565,106.818c0.738-0.857,1.484-1.721,2.221-2.576c0.574,0.209,1.146,0.42,1.719,0.637c-0.754,0.854-1.516,1.713-2.283,2.566
			C95.673,107.232,95.116,107.018,94.565,106.818z M95.313,108.453c-0.736,0.83-1.49,1.656-2.229,2.48
			c-0.547-0.18-1.092-0.365-1.637-0.547c0.743-0.85,1.491-1.697,2.227-2.559C94.229,108.039,94.772,108.244,95.313,108.453z
			 M97.423,103.504c0.779-0.906,1.551-1.816,2.332-2.719c0.594,0.213,1.186,0.432,1.787,0.643c-0.793,0.91-1.596,1.812-2.396,2.715
			C98.573,103.934,97.999,103.723,97.423,103.504z M100.646,99.746c0.592-0.705,1.186-1.398,1.783-2.104
			c0.598,0.24,1.193,0.48,1.783,0.719c-0.586,0.68-1.18,1.357-1.773,2.039C101.839,100.178,101.237,99.963,100.646,99.746z
			 M103.511,96.363c0.678-0.799,1.357-1.596,2.031-2.395c0.613,0.248,1.23,0.488,1.85,0.73c-0.693,0.799-1.385,1.596-2.072,2.393
			C104.714,96.857,104.108,96.611,103.511,96.363z M106.558,92.775c0.586-0.691,1.174-1.385,1.762-2.078
			c0.637,0.234,1.275,0.471,1.914,0.719c-0.604,0.699-1.209,1.4-1.814,2.102C107.794,93.277,107.179,93.029,106.558,92.775z
			 M109.458,89.355c0.643-0.76,1.295-1.518,1.941-2.275c0.674,0.207,1.352,0.42,2.027,0.635c-0.68,0.785-1.363,1.566-2.037,2.355
			C110.747,89.832,110.101,89.598,109.458,89.355z M114.083,83.939c0.699,0.203,1.389,0.408,2.082,0.605
			c-0.598,0.691-1.201,1.379-1.791,2.074c-0.686-0.213-1.367-0.43-2.041-0.641C112.915,85.303,113.499,84.619,114.083,83.939z
			 M114.659,80.942c-0.49,0.565-0.984,1.135-1.473,1.704c-0.723-0.198-1.453-0.396-2.186-0.569c-0.004-0.007-0.008-0.007-0.01-0.007
			c0.465-0.578,0.938-1.156,1.398-1.73C113.144,80.537,113.897,80.741,114.659,80.942z"/>
		<g>
			<path fill="#0D0D0D" d="M50.162,104.324c-0.119,0.049-0.242,0.061-0.363,0.053c-3.429-0.246-6.719-0.982-9.901-1.693
				c-2.02-0.445-4.107-0.916-6.221-1.256c-0.473-0.074-0.547-0.352-0.561-0.465c-0.024-0.246,0.17-0.494,0.455-0.596
				c0.13-0.047,0.275-0.064,0.417-0.033c2.115,0.34,4.203,0.805,6.228,1.256c3.179,0.703,6.475,1.441,9.871,1.684
				c0.475,0.041,0.562,0.301,0.574,0.412C50.696,103.936,50.477,104.217,50.162,104.324L50.162,104.324z"/>
			<path fill="#0D0D0D" d="M51.241,108.379L51.241,108.379c-0.117,0.037-0.238,0.057-0.361,0.047
				c-3.426-0.244-6.722-0.986-9.904-1.691c-2.017-0.451-4.101-0.916-6.222-1.256c-0.473-0.074-0.547-0.35-0.556-0.463
				c-0.021-0.248,0.17-0.494,0.454-0.6c0.13-0.043,0.272-0.057,0.42-0.031c2.109,0.34,4.199,0.803,6.222,1.254
				c3.185,0.713,6.475,1.447,9.876,1.689c0.473,0.033,0.557,0.299,0.572,0.404C51.773,107.992,51.559,108.266,51.241,108.379z"/>
			<path fill="#0D0D0D" d="M50.709,106.58c-0.124,0.049-0.254,0.061-0.387,0.043c-2.95-0.352-5.899-0.953-8.757-1.529
				c-2.394-0.486-4.874-0.988-7.332-1.348c-0.331-0.049-0.541-0.23-0.572-0.479c-0.037-0.373,0.408-0.744,0.872-0.678
				c2.465,0.359,4.948,0.859,7.344,1.348c2.854,0.584,5.801,1.18,8.735,1.535c0.334,0.039,0.551,0.209,0.576,0.457
				C51.219,106.203,51.021,106.48,50.709,106.58z"/>
			<path fill="#0D0D0D" d="M35.492,106.592c0.13-0.047,0.278-0.055,0.43-0.027c1.32,0.26,2.638,0.535,3.958,0.807
				c3.924,0.811,7.98,1.65,12.028,2.127c0.332,0.039,0.547,0.211,0.579,0.457c0.025,0.268-0.183,0.551-0.488,0.656
				c-0.12,0.047-0.25,0.062-0.38,0.043c-4.061-0.48-8.124-1.322-12.051-2.135c-1.323-0.27-2.64-0.543-3.964-0.803
				c-0.328-0.066-0.538-0.26-0.551-0.514C35.028,106.938,35.214,106.688,35.492,106.592z"/>
		</g>
	</g>
</g>
</svg>
