<?xml version="1.0" encoding="utf-8"?>
<!-- Generator: Adobe Illustrator 15.0.0, SVG Export Plug-In . SVG Version: 6.00 Build 0)  -->
<!DOCTYPE svg PUBLIC "-//W3C//DTD SVG 1.1//EN" "http://www.w3.org/Graphics/SVG/1.1/DTD/svg11.dtd">
<svg version="1.1" id="Ebene_1" xmlns="http://www.w3.org/2000/svg" xmlns:xlink="http://www.w3.org/1999/xlink" x="0px" y="0px"
	 width="140px" height="140px" viewBox="0 0 140 140" enable-background="new 0 0 140 140" xml:space="preserve">
<g>
	<polygon fill="#FFFFFF" points="51.002,25.793 53.137,30.14 55.708,32.109 57.831,34.557 58.849,36.606 58.93,39.699 
		59.121,41.047 64.155,50.682 68.366,58.872 72.661,67.006 78.519,79.025 84.715,92.852 89.78,104.881 91.835,110.646 
		91.635,113.346 86.856,106.954 80.104,94.654 74.903,83.336 69.685,72.646 65.14,62.299 61.931,54.047 61.204,51.888 
		56.761,42.648 53.904,42.082 50.083,38.753 48.474,35.249 48.966,31.026 49.71,28.178 	"/>
	<g>
		<path fill="#0D0D0D" stroke="#000000" stroke-width="0.1694" d="M58.581,39.898c-0.628-1.996-1.985-3.6-3.128-5.321
			c-1.379-2.076-3.699-4.247-3.479-6.961c0.057-0.703-0.325-0.759-0.384-0.044c-0.433,5.355,5.184,8.609,6.671,13.352
			C58.361,41.24,58.664,40.171,58.581,39.898"/>
		<path fill="#0D0D0D" stroke="#000000" stroke-width="0.1694" d="M58.305,41.641c-0.834-2.175-2.314-3.533-3.786-5.298
			c-2.275-2.728-3.376-5.112-3.076-8.729c0.063-0.757-0.833-0.843-0.895-0.084c-0.199,2.374,0.023,4.723,1.138,6.857
			c1.516,2.902,4.597,4.697,5.785,7.795C57.759,42.928,58.529,42.225,58.305,41.641"/>
		<path fill="#0D0D0D" stroke="#000000" stroke-width="0.1694" d="M56.657,41.287c-1.299-1.491-2.792-2.782-4.153-4.212
			c-2.18-2.288-2.75-4.599-2.03-7.672c0.129-0.55-0.342-1.17-0.531-0.367c-0.494,2.106-0.769,4.224,0.149,6.251
			c1.278,2.825,4.211,4.751,6.192,7.031C56.639,42.726,56.896,41.564,56.657,41.287"/>
		<path fill="#0D0D0D" d="M58.646,33.86c-1.096-1.423-2.543-2.41-3.817-3.66c-1.469-1.443-2.462-3.311-3.415-5.112
			c-0.175-0.329-0.671-0.577-0.992-0.266c-0.935,0.906-1.175,2.569-1.608,3.761c-0.75,2.059-1.339,4.083-1.124,6.29
			c0.427,4.405,4.214,8.701,8.691,8.929c0.027,0.002,0.047-0.005,0.072-0.005c1.585,2.983,2.941,6.081,4.471,9.093l-0.002,0.002
			c-0.02,0.252-0.015,0.473,0.032,0.601c4.195,11.672,9.625,22.998,14.979,34.169c2.92,6.092,5.96,12.135,9.3,18.01
			c1.651,2.908,3.717,7.405,6.73,9.195c0.014,0.01,0.208,0.109,0.227,0.1c0.028-0.021,0.149-0.283,0.184-0.383
			c0.816-2.322-0.047-4.773-0.754-7.027c-1.801-5.746-4.34-11.287-6.795-16.776C78.667,77.018,71.96,63.43,64.753,50.184
			c-0.05-0.094-0.104-0.126-0.156-0.118c-0.017-0.086-0.041-0.162-0.074-0.217c-1.842-3.045-3.312-6.288-4.965-9.434
			C60.45,38.191,60.161,35.824,58.646,33.86z M58.723,42.345c1.427,2.69,2.845,5.499,4.334,8.149
			c-0.141,0.613-0.554,0.683-1.238,0.707c-1.359-2.644-2.533-5.342-3.86-7.99C58.26,42.973,58.519,42.678,58.723,42.345z
			 M81.339,86.605c1.461,3.139,3.842,8.449,7.17,16.937c0.857,2.19,1.846,4.356,2.455,6.634c0.178,0.66,0.398,1.969,0.34,1.989
			c-0.12,0.05-1.656-2.101-2.288-3.132c-3.577-5.868-9.819-17.784-14.339-27.34c-3.703-7.824-7.278-15.956-10.515-24.021
			c0.252-0.014,0.294,0.07,0.496,0.088c0.362,0.029,0.846-0.1,1.157-0.404c0.405-0.4,0.502-0.883,0.529-1.1
			C71.938,66.732,76.323,75.844,81.339,86.605z M64.298,52.314c0.358,0.66,0.609,1.268,0.964,1.931
			c-0.005,0.119-0.005,0.231-0.003,0.323c-0.002-0.131-0.02,0.066-0.048,0.168c-0.055,0.188-0.184,0.354-0.301,0.505
			c-0.418,0.542-0.926,0.185-1.49,0.174c-0.054-0.001-0.101,0.021-0.147,0.052c-0.257-0.666-0.487-1.31-0.736-1.976
			c0.371-0.083,0.486-0.158,0.784-0.449c0.291-0.286,0.474-0.667,0.603-1.073c0.073-0.128,0.164-0.076,0.231,0.072
			C64.211,52.133,64.271,52.264,64.298,52.314z M55.822,41.88c-3.944-0.201-6.78-4.282-6.69-8.256
			c0.032-1.459,0.722-3.612,1.227-4.954c0.115-0.303,0.396-1.178,0.509-1.482c0.725,1.259,1.134,2.227,2.667,3.896
			c1.836,1.998,6.182,4.7,4.827,8.426c0,0-0.314,1.344-0.932,1.863S55.822,41.88,55.822,41.88z"/>
	</g>
</g>
</svg>
