<?xml version="1.0" encoding="utf-8"?>
<!-- Generator: Adobe Illustrator 15.0.0, SVG Export Plug-In . SVG Version: 6.00 Build 0)  -->
<!DOCTYPE svg PUBLIC "-//W3C//DTD SVG 1.1//EN" "http://www.w3.org/Graphics/SVG/1.1/DTD/svg11.dtd">
<svg version="1.1" id="Ebene_1" xmlns="http://www.w3.org/2000/svg" xmlns:xlink="http://www.w3.org/1999/xlink" x="0px" y="0px"
	 width="140px" height="140px" viewBox="0 0 140 140" enable-background="new 0 0 140 140" xml:space="preserve">
<g>
	<polygon fill="#FFFFFF" points="42.316,94.621 53.871,89.786 82.118,65.9 98.537,51.097 98.416,48.496 96.48,46.079 93.797,45.408 
		92.474,46.313 71.074,64.313 55.553,77.23 47.113,83.84 42.987,91.268 41.69,94.273 	"/>
	<path fill="#0D0D0D" d="M92.156,45.548C76.883,58.459,61.22,71.525,45.789,84.245c-0.23,0.19-0.264,0.323-0.182,0.411
		c-1.946,3.395-3.505,6.986-5.412,10.4c-0.042,0.073-0.058,0.135-0.065,0.193c-0.064,0.066-0.098,0.136-0.102,0.207
		c-0.004,0.062,0.013,0.176,0.162,0.259c0.282,0.157,0.925,0.132,1.375-0.054c1.072-0.44,2.146-0.873,3.22-1.305
		c2.914-1.173,5.927-2.385,8.827-3.75c0.438-0.209,0.433-0.32,0.617-0.453c0.069-0.049,0.324-0.197,0.323-0.207
		C69.629,77.182,84.4,65.922,98.441,51.974c0.542-0.507,0.815-0.965,0.896-1.257c0.004-0.017,0.009-0.033,0.013-0.05l0,0
		c0.949-3.613-2.187-7.074-5.931-5.746C92.632,45.201,92.156,45.548,92.156,45.548z M97.363,51.023
		C83.854,64.514,69.162,75.5,54.613,87.742c0-0.104,0-0.148-0.001-0.161c-0.059-0.34-0.263-0.803-0.756-0.876
		c14.767-12.037,30.352-23.762,43.563-37.56c0.066,0.479,0.104,0.841,0.05,1.292C97.435,50.724,97.403,50.804,97.363,51.023z
		 M96.923,47.659c-0.144,0.183-0.312,0.303-0.418,0.415C83.437,61.908,67.702,73.562,52.963,85.545
		c-0.329-0.689-0.503-0.977-1.373-1.066c15.526-11.635,30.306-24.531,44.584-37.69C96.579,47.074,96.68,47.181,96.923,47.659z
		 M93.321,46.474c0.165,0.019,0.355-0.001,0.572-0.085c0.246-0.094,0.481-0.146,0.707-0.163
		C80.463,59.277,65.631,72.382,50.243,83.953c-0.231-0.106-0.371-0.42-0.935-0.42C64.235,71.236,78.547,58.958,93.321,46.474z
		 M47.607,84.493c0.534-0.138,1.046-0.104,0.942,0.673c-0.03,0.226,0.142,0.328,0.38,0.346c0.209,0.081,0.496,0.041,0.677-0.009
		c0.437-0.118,0.953-0.074,1.365,0.119c0.564,0.266,0.657,0.802,0.531,1.363c-0.032,0.142,0.01,0.239,0.094,0.304
		c0.001,0.01-0.002,0.018,0.001,0.023c0.091,0.282,0.689,0.105,0.86,0.057c0.547-0.152,0.659,0.75,0.63,1.076
		c-0.055,0.603-0.358,1.173-0.773,1.611c-2.38,1.105-4.829,2.114-7.233,3.084c-0.028-0.044-0.063-0.085-0.11-0.114
		c-0.164-0.521-0.778-0.819-1.267-1c1.275-2.517,2.48-5.067,3.892-7.515C47.602,84.506,47.604,84.499,47.607,84.493z"/>
</g>
</svg>
