<?xml version="1.0" encoding="utf-8"?>
<!-- Generator: Adobe Illustrator 15.0.0, SVG Export Plug-In . SVG Version: 6.00 Build 0)  -->
<!DOCTYPE svg PUBLIC "-//W3C//DTD SVG 1.1//EN" "http://www.w3.org/Graphics/SVG/1.1/DTD/svg11.dtd">
<svg version="1.1" id="Ebene_1" xmlns="http://www.w3.org/2000/svg" xmlns:xlink="http://www.w3.org/1999/xlink" x="0px" y="0px"
	 width="100px" height="100px" viewBox="0 0 100 100" enable-background="new 0 0 100 100" xml:space="preserve">
<g>
	<polygon fill="#FFFFFF" points="5.684,86.025 23.876,78.413 68.347,40.807 94.197,17.502 94.007,13.407 90.959,9.601 86.734,8.545 
		84.651,9.969 50.96,38.309 26.524,58.646 13.236,69.05 6.74,80.746 4.698,85.479 	"/>
	<path fill="#231F20" d="M84.151,8.766c-24.046,20.326-48.705,40.898-73,60.924c-0.362,0.299-0.416,0.508-0.286,0.646
		c-3.064,5.344-5.519,11-8.521,16.376c-0.065,0.114-0.091,0.212-0.103,0.303c-0.101,0.105-0.154,0.214-0.161,0.327
		c-0.006,0.096,0.021,0.275,0.255,0.406c0.444,0.247,1.456,0.208,2.164-0.084c1.688-0.693,3.379-1.374,5.07-2.054
		c4.587-1.847,9.331-3.755,13.897-5.905c0.691-0.327,0.682-0.504,0.972-0.712c0.109-0.078,0.51-0.311,0.509-0.327
		C48.685,58.569,71.94,40.842,94.047,18.882c0.854-0.799,1.283-1.52,1.41-1.979c0.006-0.027,0.013-0.053,0.02-0.079l0,0
		c1.494-5.689-3.444-11.137-9.338-9.046C84.9,8.219,84.151,8.766,84.151,8.766z M92.35,17.384
		C71.081,38.625,47.95,55.921,25.044,75.195c0-0.164,0-0.235-0.002-0.254c-0.093-0.535-0.414-1.263-1.19-1.378
		C47.1,54.611,71.637,36.153,92.438,14.429c0.102,0.753,0.162,1.325,0.078,2.035C92.462,16.914,92.413,17.04,92.35,17.384z
		 M91.656,12.089c-0.226,0.288-0.493,0.477-0.658,0.653C70.423,34.521,45.652,52.87,22.447,71.737
		c-0.519-1.086-0.793-1.54-2.162-1.68C44.729,51.74,67.999,31.436,90.478,10.717C91.115,11.168,91.274,11.336,91.656,12.089z
		 M85.986,10.222c0.259,0.03,0.56-0.002,0.901-0.133c0.386-0.148,0.757-0.229,1.113-0.256C65.742,30.38,42.391,51.012,18.163,69.23
		c-0.364-0.168-0.584-0.662-1.472-0.661C40.193,49.208,62.724,29.878,85.986,10.222z M14.014,70.079
		c0.841-0.216,1.647-0.162,1.484,1.06c-0.048,0.355,0.224,0.518,0.598,0.545c0.33,0.127,0.78,0.064,1.066-0.014
		c0.687-0.188,1.499-0.117,2.149,0.188c0.889,0.417,1.034,1.26,0.836,2.145c-0.05,0.223,0.017,0.376,0.149,0.479
		c0.002,0.014-0.003,0.026,0.002,0.038c0.143,0.443,1.084,0.163,1.354,0.088c0.861-0.24,1.037,1.181,0.991,1.695
		c-0.086,0.948-0.563,1.845-1.216,2.536c-3.748,1.74-7.602,3.328-11.388,4.856c-0.044-0.07-0.099-0.134-0.173-0.182
		c-0.258-0.817-1.225-1.289-1.994-1.573c2.008-3.961,3.905-7.979,6.127-11.831C14.006,70.099,14.008,70.089,14.014,70.079z"/>
</g>
</svg>
