<?xml version="1.0" encoding="utf-8"?>
<!-- Generator: Adobe Illustrator 15.0.0, SVG Export Plug-In . SVG Version: 6.00 Build 0)  -->
<!DOCTYPE svg PUBLIC "-//W3C//DTD SVG 1.1//EN" "http://www.w3.org/Graphics/SVG/1.1/DTD/svg11.dtd">
<svg version="1.1" id="Ebene_1" xmlns="http://www.w3.org/2000/svg" xmlns:xlink="http://www.w3.org/1999/xlink" x="0px" y="0px"
	 width="140px" height="140px" viewBox="0 0 140 140" enable-background="new 0 0 140 140" xml:space="preserve">
<g>
	<polygon fill="#FFFFFF" points="23.379,52.57 32.892,45.417 46.843,34.998 54.908,28.65 63.969,21.418 71.002,16.419 
		72.261,18.901 78.677,21.604 80.396,19.729 85.002,26.545 95.236,45.157 105.281,64.311 109.243,72.834 112.424,79.943 
		115.297,87.005 95.972,100.47 82.925,109.84 71.037,117.99 62.55,123.676 52.477,119.431 45.02,102.231 39.145,89.762 
		33.952,77.987 29.518,68.075 26.085,59.641 	"/>
	<g>
		<path fill="#0D0D0D" d="M80.843,18.695c-0.457,0.008-0.962,0.535-1.252,0.794c-0.442,0.396-0.841,0.887-1.332,1.223
			c-0.011,0.009-0.021,0.02-0.032,0.029c-1.845-0.827-3.676-1.682-5.536-2.478c-0.396-0.789-0.796-1.574-1.191-2.362
			c-0.099-0.197-0.208-0.29-0.318-0.313c-0.046-0.222-0.131-0.349-0.248-0.26C55.121,27.334,39.748,39.811,23.557,51.323
			c-0.123,0.086-0.21,0.267-0.264,0.482c-0.398,0.139-0.743,0.713-0.545,1.245c8.532,22.748,19.575,44.412,29.274,66.663
			c0.026,0.109,0.073,0.207,0.139,0.286c0.114,0.193,0.254,0.261,0.395,0.243c3.252,1.393,6.442,2.924,9.697,4.309
			c0.032,0.016,0.061,0.02,0.091,0.026c0.123,0.072,0.281,0.069,0.473-0.059c17.702-11.767,34.741-24.19,52.251-36.225
			c0.209-0.146,0.534-0.427,0.783-0.961c0.177-0.455,0.169-0.71,0.008-1.117c-9.191-23.333-21.989-45.537-34.478-67.188
			C81.218,18.746,81.025,18.664,80.843,18.695z M114.495,86.775c-17.355,11.937-34.354,24.263-51.9,35.938
			c-3.172-1.363-6.007-3.054-9.181-4.411C43.83,96.32,32.996,75.153,24.541,52.691C40.41,41.368,55.37,29.143,70.885,17.354
			c11.062,22.043,22.319,43.817,33.306,65.889c-16.097,11.243-32.093,22.569-48.485,33.391c-0.333,0.218-0.436,0.903-0.313,1.354
			c-0.013,0.322,0.049,0.607,0.24,0.688c2.334,0.988,4.636,2.059,6.97,3.047c0.047,0.021,0.095,0,0.143-0.043
			c0.121,0.043,0.266,0.028,0.437-0.085c16.86-11,33.204-22.721,49.73-34.214c0.175-0.122,0.285-0.338,0.339-0.58
			c0.22-0.344,0.348-0.866,0.204-1.197c-9.369-21.728-20.616-43.031-32.493-63.468c-0.146-0.247-0.306-0.333-0.458-0.316
			c-0.039-0.068-0.091-0.119-0.159-0.148c-0.213-0.09-0.429-0.188-0.64-0.28c0.217-0.203,0.439-0.401,0.671-0.589
			c0.052-0.043,0.111-0.08,0.166-0.12C92.831,41.99,105.387,63.842,114.495,86.775z M78,22.602
			c5.034,9.411,10.065,18.819,15.1,28.229c0.346,0.644,1.142,0.004,0.836-0.572c-4.813-8.999-9.63-18-14.443-27
			c0.186,0.08,0.37,0.163,0.556,0.242c11.565,19.911,22.526,40.646,31.733,61.788c-0.288-0.089-0.595-0.181-0.627-0.191
			c-0.18-0.059-0.357-0.126-0.534-0.191c-3.899-8.099-7.8-16.199-11.699-24.295c-0.316-0.66-1.117-0.015-0.836,0.57
			c3.723,7.729,7.444,15.456,11.166,23.185c-0.334-0.136-0.668-0.272-0.999-0.412c-5.605-11.522-11.004-23.167-16.965-34.508
			c-1.767-3.361-3.533-6.721-5.3-10.083c-0.341-0.648-1.138-0.005-0.836,0.571c2.677,5.092,5.486,10.135,8.007,15.307
			c3.7,7.6,7.401,15.201,11.102,22.8c0.861,1.772,1.726,3.543,2.588,5.316c-0.347-0.146-0.69-0.287-1.041-0.427
			c-0.067-0.026-0.127-0.05-0.184-0.07c-0.052-0.128-0.124-0.227-0.221-0.27c-0.01-0.039-0.023-0.076-0.038-0.111
			C95.082,61.815,84.369,41.386,73.96,20.782c0.356,0.157,0.71,0.318,1.065,0.479c1.176,2.166,2.354,4.333,3.532,6.499
			c0.348,0.643,1.147,0.004,0.837-0.57c-0.952-1.746-1.901-3.494-2.851-5.241C77.027,22.167,77.515,22.385,78,22.602z
			 M62.074,119.539c4.99-3.457,9.978-6.913,14.967-10.37c0.507-0.351,0.073-1.361-0.494-0.967
			c-5.21,3.609-10.422,7.223-15.632,10.832c-0.383-0.166-0.767-0.338-1.148-0.506c8.414-5.822,16.829-11.64,25.243-17.462
			c0.508-0.351,0.075-1.361-0.492-0.967c-8.636,5.973-17.271,11.944-25.905,17.917c-0.426-0.189-0.854-0.377-1.28-0.564
			c16.208-10.737,32.049-21.955,47.988-33.085c0.382,0.147,0.762,0.3,1.139,0.455c-0.779,0.542-1.557,1.082-2.336,1.627
			c-0.508,0.353-0.073,1.361,0.494,0.967c1.005-0.701,2.013-1.402,3.021-2.104c0.397,0.167,0.798,0.335,1.195,0.498
			c-2.809,1.924-5.617,3.845-8.426,5.766c-0.51,0.349-0.078,1.359,0.494,0.97c3.044-2.085,6.092-4.169,9.136-6.254
			c0.344,0.133,0.688,0.26,1.032,0.382c-16.017,11.16-31.892,22.513-48.246,33.188C62.573,119.755,62.324,119.648,62.074,119.539z"
			/>
		<path fill="#0D0D0D" d="M62.193,45.365c0.438-0.296,0.365-1.997,0.081-1.806c-6.24,4.218-12.32,8.741-18.493,13.069
			c-0.435,0.305-0.354,1.998-0.08,1.806C49.872,54.104,55.952,49.583,62.193,45.365z"/>
		<path fill="#0D0D0D" d="M64.161,48.857c0.438-0.295,0.365-1.997,0.08-1.804c-6.24,4.216-12.32,8.739-18.492,13.069
			c-0.436,0.305-0.354,1.997-0.081,1.806C51.841,57.598,57.92,53.075,64.161,48.857z"/>
		<path fill="#0D0D0D" d="M47.538,65.094c-0.435,0.304-0.354,1.997-0.079,1.805c6.172-4.328,12.252-8.854,18.492-13.069
			c0.438-0.296,0.366-1.999,0.08-1.806C59.789,56.241,53.71,60.763,47.538,65.094z"/>
		<path fill="#0D0D0D" d="M45.949,73.779c0.033,0.078,0.074,0.115,0.12,0.082c8.914-6.047,17.738-12.221,26.632-18.293
			c0.217-0.148,0.301-0.66,0.299-1.104c0.14-0.403,0.213-0.93,0.099-1.164c-2.752-5.628-5.208-11.397-7.792-17.102
			c-0.062-0.134-0.133-0.167-0.205-0.136c-0.023-0.013-0.048-0.017-0.074,0.001c-8.989,6.145-17.664,12.844-26.564,19.14
			c-0.013,0.009-0.023,0.024-0.037,0.037c-0.309,0.19-0.562,1.111-0.402,1.477c2.465,5.672,4.971,11.379,7.637,16.959
			C45.747,73.855,45.85,73.866,45.949,73.779z M39.813,56.472c8.55-6.081,16.135-12.013,24.78-17.931
			c2.446,5.411,4.562,10.078,7.151,15.423c-8.647,5.911-16.602,11.563-25.269,17.444C44.033,66.281,42.083,61.688,39.813,56.472z"/>
	</g>
</g>
</svg>
