<?xml version="1.0" encoding="utf-8"?>
<!-- Generator: Adobe Illustrator 15.0.0, SVG Export Plug-In . SVG Version: 6.00 Build 0)  -->
<!DOCTYPE svg PUBLIC "-//W3C//DTD SVG 1.1//EN" "http://www.w3.org/Graphics/SVG/1.1/DTD/svg11.dtd">
<svg version="1.1" id="Ebene_1" xmlns="http://www.w3.org/2000/svg" xmlns:xlink="http://www.w3.org/1999/xlink" x="0px" y="0px"
	 width="100px" height="100px" viewBox="0 0 100 100" enable-background="new 0 0 100 100" xml:space="preserve">
<g>
	<polygon fill="#FFFFFF" points="8.79,34.404 17.321,27.99 29.83,18.647 37.063,12.955 45.188,6.47 51.494,1.988 52.623,4.213 
		58.376,6.637 59.917,4.955 64.048,11.068 73.225,27.757 82.232,44.932 85.785,52.575 88.637,58.949 91.213,65.281 73.885,77.356 
		62.185,85.758 51.526,93.067 43.915,98.165 34.882,94.357 28.196,78.936 22.928,67.755 18.271,57.196 14.295,48.308 11.217,40.745 
			"/>
	<g>
		<path fill="#231F20" d="M60.319,4.029c-0.411,0.007-0.863,0.479-1.124,0.712c-0.396,0.354-0.754,0.795-1.194,1.096
			c-0.01,0.008-0.018,0.018-0.028,0.026c-1.654-0.742-3.297-1.508-4.965-2.222c-0.355-0.707-0.714-1.411-1.068-2.118
			c-0.089-0.177-0.187-0.26-0.286-0.281c-0.041-0.199-0.117-0.313-0.222-0.234C37.254,11.775,23.468,22.963,8.949,33.286
			c-0.11,0.077-0.187,0.239-0.236,0.432c-0.358,0.125-0.666,0.64-0.488,1.116c7.65,20.399,17.552,39.825,26.25,59.777
			c0.024,0.098,0.066,0.186,0.124,0.257c0.103,0.173,0.228,0.233,0.354,0.218c2.916,1.249,5.777,2.621,8.696,3.864
			c0.028,0.013,0.054,0.017,0.081,0.023c0.111,0.064,0.252,0.063,0.424-0.052c15.874-10.552,31.153-21.693,46.854-32.484
			c0.188-0.131,0.479-0.382,0.702-0.861c0.158-0.408,0.151-0.637,0.007-1.001C83.474,43.652,71.999,23.742,60.801,4.327
			C60.655,4.074,60.483,4,60.319,4.029z M90.494,65.076C74.931,75.779,59.69,86.833,43.955,97.3
			c-2.844-1.221-5.386-2.738-8.232-3.955c-8.594-19.71-18.309-38.691-25.891-58.832c14.23-10.154,27.645-21.116,41.556-31.687
			c9.92,19.766,20.015,39.292,29.866,59.083C66.821,71.99,52.477,82.146,37.778,91.849c-0.3,0.197-0.392,0.811-0.282,1.216
			c-0.012,0.288,0.044,0.545,0.216,0.617c2.092,0.887,4.156,1.845,6.249,2.732c0.042,0.019,0.085,0,0.128-0.038
			c0.108,0.039,0.238,0.024,0.392-0.077c15.119-9.863,29.774-20.374,44.593-30.68c0.157-0.109,0.256-0.303,0.304-0.519
			c0.197-0.308,0.311-0.778,0.183-1.075C81.159,44.543,71.074,25.44,60.424,7.115c-0.13-0.222-0.273-0.299-0.411-0.284
			c-0.035-0.061-0.082-0.107-0.142-0.133c-0.192-0.081-0.384-0.168-0.574-0.251c0.194-0.182,0.394-0.36,0.602-0.528
			c0.047-0.039,0.1-0.072,0.149-0.108C71.068,24.917,82.327,44.511,90.494,65.076z M57.769,7.532
			c4.514,8.438,9.026,16.875,13.54,25.313c0.31,0.578,1.024,0.004,0.749-0.512c-4.316-8.07-8.634-16.141-12.95-24.211
			c0.166,0.072,0.331,0.146,0.497,0.217c10.372,17.854,20.199,36.446,28.456,55.406c-0.258-0.08-0.533-0.162-0.562-0.172
			c-0.161-0.053-0.321-0.114-0.48-0.173c-3.496-7.262-6.993-14.524-10.49-21.784c-0.284-0.592-1.001-0.013-0.749,0.511
			c3.337,6.93,6.675,13.86,10.012,20.79c-0.3-0.121-0.598-0.245-0.896-0.37c-5.026-10.332-9.866-20.774-15.212-30.943
			c-1.585-3.014-3.169-6.027-4.753-9.041c-0.305-0.581-1.02-0.005-0.749,0.512c2.4,4.566,4.92,9.087,7.179,13.725
			c3.318,6.815,6.637,13.631,9.955,20.445c0.773,1.589,1.547,3.178,2.32,4.767c-0.31-0.13-0.619-0.258-0.933-0.382
			c-0.061-0.025-0.113-0.045-0.164-0.063c-0.047-0.115-0.111-0.203-0.198-0.242c-0.009-0.035-0.021-0.068-0.035-0.1
			c-9.219-18.53-18.826-36.85-28.159-55.325c0.319,0.141,0.636,0.285,0.955,0.429c1.055,1.942,2.111,3.885,3.167,5.828
			c0.312,0.576,1.029,0.003,0.75-0.511c-0.853-1.566-1.704-3.133-2.555-4.7C56.897,7.141,57.334,7.337,57.769,7.532z M43.489,94.455
			c4.474-3.1,8.947-6.199,13.42-9.299c0.455-0.315,0.065-1.221-0.443-0.867c-4.672,3.237-9.345,6.476-14.017,9.713
			c-0.344-0.149-0.687-0.303-1.03-0.453c7.545-5.22,15.091-10.438,22.636-15.658c0.455-0.315,0.067-1.221-0.442-0.867
			C55.87,82.379,48.127,87.734,40.384,93.09c-0.382-0.169-0.765-0.338-1.148-0.505c14.534-9.63,28.738-19.688,43.031-29.668
			c0.342,0.132,0.683,0.269,1.021,0.408c-0.698,0.485-1.396,0.971-2.095,1.459c-0.454,0.315-0.065,1.221,0.443,0.866
			c0.902-0.628,1.806-1.257,2.709-1.887c0.357,0.151,0.715,0.301,1.072,0.448c-2.519,1.724-5.037,3.447-7.556,5.171
			c-0.457,0.312-0.069,1.217,0.443,0.868c2.73-1.869,5.463-3.738,8.193-5.607c0.308,0.118,0.616,0.233,0.926,0.342
			C73.06,74.993,58.825,85.172,44.16,94.744C43.936,94.648,43.713,94.552,43.489,94.455z"/>
		<path fill="#231F20" d="M43.596,27.944c0.392-0.266,0.327-1.791,0.072-1.619c-5.596,3.782-11.048,7.837-16.583,11.719
			c-0.39,0.273-0.317,1.791-0.071,1.619C32.547,35.78,37.999,31.725,43.596,27.944z"/>
		<path fill="#231F20" d="M45.36,31.075c0.393-0.265,0.328-1.791,0.072-1.618c-5.596,3.781-11.048,7.837-16.582,11.719
			c-0.391,0.274-0.318,1.791-0.073,1.619C34.312,38.912,39.764,34.857,45.36,31.075z"/>
		<path fill="#231F20" d="M30.454,45.634c-0.39,0.273-0.318,1.791-0.071,1.618c5.534-3.881,10.986-7.938,16.582-11.718
			c0.393-0.266,0.328-1.792,0.072-1.62C41.44,37.696,35.988,41.75,30.454,45.634z"/>
		<path fill="#231F20" d="M29.03,53.422c0.029,0.071,0.066,0.103,0.107,0.075c7.993-5.423,15.906-10.96,23.881-16.405
			c0.194-0.133,0.269-0.592,0.267-0.989c0.126-0.361,0.192-0.834,0.089-1.044c-2.467-5.047-4.67-10.22-6.987-15.335
			c-0.055-0.12-0.119-0.149-0.184-0.122c-0.021-0.012-0.043-0.015-0.067,0.001c-8.06,5.51-15.839,11.517-23.819,17.163
			c-0.012,0.008-0.022,0.021-0.034,0.033c-0.277,0.171-0.504,0.996-0.361,1.324c2.21,5.087,4.457,10.203,6.847,15.207
			C28.847,53.491,28.939,53.5,29.03,53.422z M23.527,37.903c7.666-5.453,14.468-10.772,22.221-16.079
			c2.194,4.852,4.09,9.037,6.412,13.83c-7.753,5.3-14.886,10.368-22.658,15.642C27.31,46.699,25.562,42.58,23.527,37.903z"/>
	</g>
</g>
</svg>
