<?xml version="1.0" encoding="utf-8"?>
<!-- Generator: Adobe Illustrator 15.0.0, SVG Export Plug-In . SVG Version: 6.00 Build 0)  -->
<!DOCTYPE svg PUBLIC "-//W3C//DTD SVG 1.1//EN" "http://www.w3.org/Graphics/SVG/1.1/DTD/svg11.dtd">
<svg version="1.1" id="Ebene_1" xmlns="http://www.w3.org/2000/svg" xmlns:xlink="http://www.w3.org/1999/xlink" x="0px" y="0px"
	 width="100px" height="100px" viewBox="0 0 100 100" enable-background="new 0 0 100 100" xml:space="preserve">
<g>
	<polygon fill="#FFFFFF" points="81.393,44.181 79.58,78.978 43.516,92.932 37.716,90.396 34.092,97.705 15.304,86.771 
		16.029,52.639 31.132,61.458 32.219,49.376 33.265,48.531 42.912,45.752 43.093,44.181 35.119,41.282 32.159,38.62 29.5,33.75 
		29.017,28.816 29.379,23.792 31.252,18.749 34.092,15.185 38.744,12.708 42.418,11.922 46.597,12.345 50.644,13.976 54.752,17.178 
		56.202,11.621 58.807,7.391 61.82,5.216 65.144,3.827 68.585,3.465 72.211,4.068 78.312,7.029 81.091,10.473 82.782,14.157 
		83.446,17.842 83.446,23.279 81.997,27.131 79.641,31.193 76.802,33.488 73.6,35.301 71.788,39.409 	"/>
	<g>
		<g>
			<path fill="#161214" d="M61.988,29.469c3.438,4.274,9.111,5.646,13.902,2.747c4.416-2.673,6.462-8.096,6.377-13.062
				C82.039,13.592,79.1,7.954,73.544,6.158c-5.417-1.752-10.645,1.809-13.051,6.515C57.84,17.861,58.3,24.881,61.988,29.469z
				 M62.331,18.851c-0.659-0.107-1.664-0.314-2.324-0.418c-0.048-0.008-0.097-0.008-0.146-0.006c0.064-0.682,0.214-1.597,0.373-2.27
				c0.709,0.177,1.739,0.393,2.456,0.546C62.583,17.332,62.462,18.226,62.331,18.851z M68.351,32.562
				c0.249-0.965,0.484-1.969,0.647-2.95c0.353,0.099,1.271,0.25,1.639,0.29c-0.178,0.984-0.167,1.95-0.341,2.934
				c-0.461,0.017-0.779-0.001-1.144-0.068C69.169,32.734,68.342,32.597,68.351,32.562z M78.729,19.939
				c0.69,0.122,1.581,0.262,2.257,0.459c0.078,0.022,0.177,0.021,0.283,0.005c-0.035,0.572-0.104,1.148-0.199,1.721
				c-0.814-0.127-1.834-0.224-2.618-0.48C78.545,21.077,78.637,20.508,78.729,19.939z M74.831,7.629
				c-0.069,0.08-0.12,0.171-0.138,0.274c-0.136,0.794-0.62,1.725-0.816,2.506c-0.382-0.091-1.246-0.312-1.621-0.427
				c0.185-0.923,0.405-2.141,0.647-3.052C73.553,7.05,74.233,7.289,74.831,7.629z M70.154,6.713
				c0.771-0.056,1.507-0.012,2.208,0.113c-0.314,0.069-0.607,0.194-0.651,0.353c-0.273,1-0.438,2.026-0.646,3.041
				c-0.017,0.082,0.067,0.126,0.202,0.143c0.002,0.191,0.112,0.37,0.331,0.438c0.741,0.228,1.488,0.447,2.254,0.578
				c0.286,0.05,0.634-0.059,0.844-0.278c0.194-0.104,0.348-0.254,0.395-0.448c0.194-0.826,0.424-1.646,0.598-2.479
				c3.442,2.299,5.443,6.881,5.612,10.98c0.001,0.085-0.001,0.171-0.001,0.256c-0.706-0.173-1.421-0.299-2.141-0.416
				c-0.164-0.026-0.341-0.017-0.512,0.02c-0.432-0.088-1.099,0.148-1.168,0.58c-0.129,0.793-0.258,1.586-0.385,2.381
				c-0.034,0.208,0.062,0.34,0.216,0.412c0.051,0.069,0.135,0.13,0.268,0.179c0.961,0.353,1.98,0.466,2.984,0.624
				c0.098,0.014,0.194,0.008,0.289-0.012c-1.141,4.766-4.431,9.082-9.581,9.624c0.003-0.008,0.008-0.016,0.01-0.024
				c0.188-1.117,0.473-2.213,0.661-3.328c0.026-0.153-0.142-0.218-0.374-0.222c-0.1-0.07-0.265-0.1-0.374-0.108
				c-0.568-0.043-1.128-0.261-1.654-0.463c-0.128-0.049-0.269-0.063-0.414-0.054c-0.427-0.111-1.146,0.127-1.217,0.56
				c-0.172,1.064-0.357,2.126-0.605,3.175c-4.594-1.684-7.304-7.147-7.503-11.944c-0.013-0.311-0.013-0.624-0.004-0.938
				c0.758,0.115,1.518,0.224,2.27,0.369c0.371,0.07,0.795-0.01,1.069-0.287c0.043-0.044,0.072-0.094,0.096-0.144
				c0.081-0.074,0.14-0.157,0.162-0.25c0.201-0.902,0.368-1.811,0.517-2.723c0.013-0.068,0.002-0.126-0.018-0.177
				c-0.001-0.007-0.004-0.014-0.007-0.02c-0.003-0.005-0.004-0.011-0.006-0.015c-0.038-0.124-0.134-0.226-0.296-0.263
				c-0.988-0.224-1.992-0.388-2.968-0.665c-0.033-0.01-0.068-0.016-0.104-0.022C61.914,10.851,65.307,7.066,70.154,6.713z"/>
			<path fill="#161214" d="M48.253,26.593c-0.505-0.722-1.192-1.142-2.021-1.228c-1.637-0.171-3.284,1.117-3.428,3.274
				c-0.067,1.023,0.16,1.824,0.819,2.643c0.553,0.687,1.036,0.833,1.866,0.921c0.106,0.012,0.212,0.016,0.317,0.018
				c1.467,0.017,2.757-0.923,2.984-2.951C48.916,28.142,48.909,27.531,48.253,26.593z M47.718,29.006
				c-0.144,1.279-1.108,2.263-2.126,2.158c-0.527-0.056-0.883-0.371-1.088-0.625c-0.4-0.498-0.688-1.199-0.608-1.916
				c0.136-1.215,1.106-2.162,2.074-2.162c0.052,0,0.104,0.003,0.156,0.009c0.528,0.055,0.884,0.37,1.088,0.625
				C47.614,27.591,47.797,28.289,47.718,29.006z"/>
			<path fill="#161214" d="M68.786,22.231c0.525,0.707,1.296,1.021,2.13,1.028c1.646,0.013,3.162-1.426,3.098-3.588
				c-0.031-1.025-0.334-1.799-1.068-2.552c-0.617-0.631-1.112-0.73-1.945-0.738c-0.107-0.001-0.213,0.005-0.317,0.014
				c-1.462,0.124-2.674,1.569-2.688,3.223C67.984,20.754,68.215,21.46,68.786,22.231z M69.087,19.777
				c0.021-1.286,0.887-2.359,1.91-2.352c0.529,0.005,0.914,0.285,1.143,0.518c0.445,0.457,0.8,1.127,0.789,1.849
				c-0.018,1.222-0.893,2.257-1.857,2.351c-0.052,0.005-0.103,0.007-0.156,0.006c-0.53-0.004-0.915-0.283-1.142-0.517
				C69.326,21.176,69.077,20.5,69.087,19.777z"/>
			<path fill="#161214" d="M46.103,27.139c-0.854-0.092-1.606,0.606-1.709,1.543c-0.055,0.488,0.079,0.973,0.367,1.332
				c0.249,0.309,0.592,0.5,0.969,0.54c0.048,0.005,0.096,0.007,0.144,0.007c0.795,0,1.468-0.667,1.566-1.55
				c0.055-0.488-0.079-0.973-0.366-1.331C46.824,27.372,46.479,27.179,46.103,27.139z M46.37,28.892
				c-0.043,0.388-0.328,0.616-0.53,0.593c-0.113-0.012-0.194-0.085-0.242-0.145c-0.11-0.137-0.159-0.333-0.137-0.538
				c0.042-0.368,0.291-0.596,0.498-0.596c0.01,0,0.022,0.001,0.032,0.002c0.114,0.012,0.195,0.085,0.244,0.146
				C46.344,28.49,46.393,28.686,46.37,28.892z"/>
			<path fill="#161214" d="M70.792,21.509c0.049,0.005,0.096,0.007,0.145,0.007c0.794,0,1.467-0.667,1.566-1.55
				c0.054-0.488-0.08-0.973-0.367-1.331c-0.248-0.309-0.593-0.501-0.971-0.542c-0.852-0.09-1.604,0.606-1.709,1.544
				c-0.055,0.488,0.079,0.973,0.367,1.331C70.072,21.277,70.415,21.469,70.792,21.509z M70.524,19.757
				c0.041-0.368,0.289-0.595,0.497-0.595c0.011,0,0.021,0.001,0.031,0.002c0.115,0.012,0.196,0.085,0.244,0.146
				c0.109,0.136,0.159,0.332,0.137,0.537c-0.044,0.387-0.328,0.612-0.529,0.593c-0.115-0.012-0.195-0.085-0.243-0.145
				C70.551,20.158,70.501,19.963,70.524,19.757z"/>
			<path fill="#161214" d="M48.91,42.1c4.789-2.104,7.565-6.922,8.19-11.969c0.562-5.667-1.78-11.838-7.195-14.333
				c-5.144-2.37-10.71,0.221-13.819,4.541c-3.528,4.902-3.74,11.945-0.669,17.098C38.158,42.042,43.891,44.306,48.91,42.1z
				 M53.528,37.166c-0.302,0.37-0.672,0.748-0.884,0.938c-0.652-0.545-1.567-1.343-2.2-1.91c0.317-0.337,1.076-1.051,1.382-1.399
				c0.522,0.466,1.64,1.259,2.166,1.723C53.972,36.537,53.549,37.148,53.528,37.166z M53.155,19.413
				c0.307,0.386,0.646,0.888,0.904,1.314c-0.126,0.055-0.242,0.127-0.331,0.218c-0.551,0.561-1.348,1.367-1.886,1.939
				c-0.305-0.318-0.608-0.633-0.927-0.937c0.015-0.014,0.03-0.026,0.043-0.04C51.606,21.169,52.485,20.13,53.155,19.413z
				 M37.842,19.693c0.581,0.516,1.182,1.045,1.72,1.605c-0.016,0.018-0.034,0.035-0.049,0.055c-0.286,0.375-1.016,1.328-1.293,1.71
				c-0.496-0.457-0.977-0.927-1.439-1.419c-0.062-0.066-0.18-0.092-0.32-0.089C36.76,21.099,37.492,20.107,37.842,19.693z
				 M36.972,38.028c0.003-0.002-0.207-0.262-0.205-0.265c0.577-0.49,1.361-1.356,1.91-1.875c0.29,0.299,0.712,0.937,1.006,1.232
				c-0.554,0.589-1.218,1.372-1.777,1.957C37.589,38.728,37.246,38.418,36.972,38.028z M43.727,41.951
				c-2.021-0.177-3.717-0.968-5.091-2.145c0.023-0.021,0.046-0.041,0.068-0.063c0.734-0.77,1.469-1.539,2.196-2.315
				c0.163-0.175,0.16-0.397,0.051-0.567c0.016-0.059,0.004-0.119-0.05-0.174c-0.498-0.506-1.017-0.991-1.479-1.529
				c-0.012-0.013-0.027-0.023-0.042-0.034c-0.052-0.105-0.149-0.195-0.279-0.236c-0.382-0.122-0.786,0.029-1.069,0.286
				c-0.609,0.551-1.189,1.134-1.799,1.683c-1.561-2.724-2.196-6.117-1.898-9.112c0.185-1.868,0.769-3.724,1.67-5.395
				c0.532,0.539,1.084,1.054,1.655,1.553c0.038,0.034,0.092,0.055,0.154,0.066c0.104,0.081,0.266,0.125,0.38,0.128
				c0.36,0.012,0.772-0.124,0.996-0.417c0.502-0.661,0.975-1.342,1.477-2.002c0.06-0.078,0.073-0.145,0.059-0.205
				c0.143-0.113,0.204-0.238,0.101-0.346c-0.695-0.729-1.415-1.437-2.187-2.087c-0.028-0.023-0.063-0.04-0.102-0.054
				c2.153-2.08,4.989-3.343,8.202-3.062c2.456,0.215,4.432,1.335,5.934,2.956c-0.196,0.063-0.382,0.161-0.519,0.305
				c-0.784,0.831-1.559,1.674-2.314,2.532c-0.109,0.124-0.075,0.211,0.012,0.268c-0.119,0.081-0.18,0.156-0.129,0.204
				c0.501,0.473,0.965,0.984,1.447,1.477c0.026,0.027,0.068,0.044,0.117,0.055c0.098,0.065,0.297,0.082,0.385,0.078
				c0.341-0.02,0.757-0.128,1.008-0.374c0.63-0.617,1.219-1.275,1.82-1.919c1.366,2.634,1.912,5.807,1.633,8.628
				c-0.234,1.89-0.839,3.77-1.755,5.459c-0.057-0.049-0.112-0.099-0.168-0.148l-0.114-0.1c-0.496-0.437-0.991-0.875-1.483-1.318
				c-0.049-0.044-0.129-0.064-0.223-0.069c-0.151-0.053-0.543-0.017-0.562-0.014c-0.306,0.057-0.676,0.154-0.89,0.396
				c-0.535,0.608-1.06,1.225-1.615,1.815c-0.14,0.128-0.185,0.272-0.045,0.398c0.833,0.746,1.68,1.479,2.547,2.186
				c0.047,0.039,0.099,0.067,0.152,0.09C49.848,40.943,47.023,42.237,43.727,41.951z"/>
			<path fill="#161214" d="M81.855,43.358c-0.029-0.119-0.124-0.233-0.31-0.327c-2.955-1.494-5.973-2.853-8.975-4.248
				c0.483-1.002,0.966-1.999,1.515-2.967c6.102-1.989,10.521-8.813,10.293-16.65c-0.229-7.781-4.904-14.081-11.074-15.47
				c-1.843-0.944-3.896-1.421-6.059-1.3c-6.477,0.357-11.762,6.025-13.02,13.311c-1.653-1.554-3.612-2.63-5.72-3.139
				c-1.417-0.772-2.955-1.267-4.555-1.436c-0.42-0.044-0.847-0.066-1.269-0.066c-3.522,0-6.95,1.54-9.652,4.336
				c-2.688,2.782-4.42,6.575-4.878,10.681c-0.539,4.828,0.747,9.579,3.527,13.035c1.881,2.34,4.343,3.927,7.049,4.583
				c1.111,0.607,2.297,1.038,3.528,1.279c-0.012,0.149-0.023,0.298-0.035,0.447c-0.079-0.001-0.161,0.004-0.249,0.024
				c-3.354,0.749-6.626,1.826-9.877,2.934c-0.275,0.094-0.443,0.247-0.519,0.403c-0.22,0.083-0.391,0.199-0.409,0.351
				c-0.235,1.95-0.186,3.917-0.391,5.868c-0.007,0.063,0.125,0.093,0.311,0.092c-0.003,0.029,0.003,0.054,0.028,0.068
				c0.021,0.012,0.043,0.025,0.066,0.038c-0.258,0.089-0.463,0.221-0.47,0.389c-0.058,1.567-0.104,3.135-0.143,4.704l-14.276-8.512
				c-0.239-0.144-0.536-0.148-0.78-0.014c-0.244,0.136-0.397,0.39-0.403,0.668l-0.74,34.277c-0.007,0.284,0.143,0.551,0.389,0.693
				l19.114,11.1c0.121,0.07,0.257,0.105,0.393,0.105c0.129,0,0.258-0.032,0.375-0.097c0.24-0.131,0.394-0.379,0.406-0.651
				l0.003-0.086c0.016-0.019,0.029-0.034,0.037-0.053c1.031-2.188,1.974-4.421,2.863-6.674c1.395,0.839,2.76,1.679,4.214,2.441
				c0.119,0.062,0.303,0.022,0.497-0.064c0.029,0.003,0.059,0.002,0.088,0.002c0.204,0.189,0.529,0.294,0.832,0.174
				c12.15-4.805,24.287-9.647,36.542-14.179c0.461-0.17,0.507-0.465,0.354-0.702c0.449-9.637,0.936-19.27,1.423-28.904
				c0.006-0.107-0.035-0.186-0.103-0.243c0.082-0.074,0.134-0.159,0.135-0.25c0-0.014,0.002-0.029,0.002-0.044
				c0.035-0.112,0.037-0.226,0.007-0.329c0.03-1.757,0.176-3.512,0.252-5.266C82.205,43.496,82.06,43.392,81.855,43.358z
				 M79.385,78.658c-11.836,4.385-24.154,9.164-35.89,13.805c0.108-10.226,0.64-20.617,0.819-30.85
				c11.996-3.604,24.47-8.18,36.503-11.657C80.335,59.465,79.828,69.147,79.385,78.658z M80.8,48.763
				c-12.194,3.506-24.372,7.939-36.528,11.578c0.145-1.485,0.236-2.977,0.307-4.468c11.994-3.962,24.497-7.462,36.409-11.68
				C80.912,45.701,80.838,47.254,80.8,48.763z M80.016,43.374c-11.706,4.104-24.14,7.579-35.914,11.476
				c-0.085,0.028-0.157,0.065-0.223,0.105l-0.495-0.325l-2.537-1.456c0.419-1.106,1.026-2.153,1.974-2.979
				c0.861-0.748,2.172-1.112,3.265-1.515l0.174-0.064c0.309-0.115,0.492-0.31,0.579-0.512c0.083-0.016,0.163-0.046,0.229-0.094
				c2.918-2.129,7.367-3.285,10.812-4.159c4.679-1.188,8.669-2.025,13.271-3.508v0c0.357-0.048,0.74-0.163,0.831-0.347
				c0.005-0.008,0.168-0.212,0.172-0.221C74.676,40.945,77.522,42.147,80.016,43.374z M43.457,44.986
				c0.277,0.02,0.831,0.016,1.107,0.016c0.482,0,1.229-0.074,1.707-0.131c-0.047,0.636-0.072,1.526-0.115,2.162
				c-0.72-0.344-2.025-0.71-2.775-0.985C43.404,45.741,43.433,45.292,43.457,44.986z M71.251,39.213
				c-4.809,1.533-9.999,2.73-14.884,3.971c-2.966,0.752-6.285,1.875-8.993,3.481c0.037-0.525-0.025-1.592,0.014-2.117
				c1.671-0.414,3.391-1.209,4.858-2.287c0.167,0.404,0.53,0.686,0.953,0.686c0.578,0,1.051-0.527,1.051-1.174
				c0-0.36-0.148-0.678-0.378-0.894c0.114-0.11,0.229-0.221,0.341-0.336c2.368-2.451,3.937-6.383,4.604-9.926
				c1.731,1.71,3.884,3.937,6.184,4.458c1.662,0.854,3.495,1.328,5.426,1.328c0.216,0,0.432-0.006,0.647-0.017
				c0.493-0.028,1.283-0.225,1.761-0.312C72.277,37.077,71.749,38.179,71.251,39.213z M70.244,4.918
				C70.432,4.907,70.91,4.9,71.097,4.9c6.549,0,11.841,6.392,12.074,14.377c0.24,8.235-5.364,15.538-12.126,15.911
				c-5.668,0.312-10.571-4.447-12.162-10.679c-0.071-0.368-0.151-0.733-0.243-1.093c-0.17-0.908-0.276-1.849-0.305-2.815
				C58.096,12.366,63.484,5.291,70.244,4.918z M65.775,3.698c1.324-0.296,2.556-0.118,4.171,0.026
				c-9.9,1.996-12.868,9.644-12.74,16.244c-0.362-0.609-1.48-2.649-1.919-3.198C56.132,11.145,59.549,5.092,65.775,3.698z
				 M32.691,38.241c-2.575-3.09-3.809-7.564-3.317-11.98c0.848-7.6,7.444-14.812,14.683-13.941c-3.53,0.818-6.129,2.283-8.027,4.247
				c-2.688,2.782-4.42,6.576-4.877,10.682c-0.49,4.386,0.856,9.987,4.403,13.534C34.669,40.134,33.374,39.06,32.691,38.241z
				 M35.692,39.281c-2.521-3.134-3.844-7.528-3.351-11.946c0.852-7.64,6.751-13.532,13.174-13.532c0.368,0,2.388,0,3.888,0.375
				c2.828,0.706,3.243,1.502,5.218,3.957c1.287,1.598,2.273,3.596,2.814,5.67c0.073,0.389,0.159,0.773,0.254,1.151
				c0.308,1.657,0.172,3.617-0.023,5.372c-0.854,7.641-6.669,13.48-13.093,13.48c-0.367,0-0.738-0.02-1.104-0.059
				C40.57,43.445,37.669,41.738,35.692,39.281z M41.817,46.742c0.107-0.019,0.212-0.056,0.312-0.104
				c-0.002,0.019-0.02,0.046-0.004,0.057c0.039,0.03,0.21,0.103,0.436,0.119c0.052,0.057,0.274,0.175,0.357,0.205
				c0.601,0.217,1.531,0.492,2.111,0.754c-0.931,0.384-2.394,0.909-3.208,1.56c-1.093,0.874-1.75,2.093-2.201,3.181l-2.035-1.108
				c0.011-0.021-0.727-0.457-0.716-0.477C37.927,48.797,39.805,47.095,41.817,46.742z M37.773,47.688
				c-0.715,0.701-1.568,1.769-2.046,2.74l-2.609-1.188C34.453,48.775,36.483,48.132,37.773,47.688z M32.265,49.923l10.983,5.799
				c-0.061,1.304-0.079,2.954-0.188,4.254c-3.362-1.981-7.27-3.714-10.62-5.68c-0.034-0.02-0.259-0.149-0.303-0.152
				C32.128,53.009,32.18,51.261,32.265,49.923z M33.8,96.99L15.689,86.451l0.716-33.178l18.947,11.247L33.8,96.99z M34.977,95.61
				l1.446-28.86c0.857,2.062,1.748,4.111,2.694,6.135c0.017,0.035,0.042,0.065,0.071,0.091c-0.043,0.052-0.071,0.107-0.071,0.17
				c-0.012,4.254-0.247,7.972-0.262,12.224C37.713,88.536,36.323,92.521,34.977,95.61z M39.939,91.03
				c-0.896-0.435-1.564-0.891-1.638-0.895c0.546-1.414,1.14-2.974,1.652-4.396c0.021-0.037,0.036-0.077,0.036-0.119
				c0.015-4.262,0.249-8.516,0.26-12.777c0-0.022-0.006-0.043-0.017-0.061c0.04-0.062,0.051-0.131,0.018-0.201
				c-1.304-2.788-2.504-5.62-3.651-8.476c-0.028-0.071-0.083-0.118-0.152-0.152c-0.066-0.133-0.166-0.248-0.299-0.329l-4.446-2.685
				c0.041-1.799,0.175-3.489,0.238-5.286c3.442,1.916,7.908,3.998,11.148,6.009c-0.177,10.118-0.627,20.406-0.746,30.52
				C41.218,91.798,41.253,91.669,39.939,91.03z"/>
			<ellipse fill="#161214" cx="68.988" cy="37.838" rx="1.052" ry="1.174"/>
			<ellipse fill="#161214" cx="61.238" cy="39.794" rx="1.052" ry="1.174"/>
			<path fill="#161214" d="M17.811,86.052l14.869,9.082l1.08-29.536L17.511,55.404L17.02,85.349
				c-0.034,0.103-0.022,0.193-0.002,0.251C17.111,85.874,17.487,86.04,17.811,86.052z M31.421,92.79l-12.765-7.412
				c1.496-1.109,1.933-1.477,3.428-2.508c0.617-0.427,2.605-1.717,3.223-2.148l6.42,3.683L31.421,92.79z M32.589,66.158
				l-0.068,4.229l-6.787-3.787c-1.927-2.63-4.343-6.221-6.242-8.867L32.589,66.158z M18.537,58.143
				c1.963,2.765,4.18,6.053,6.161,8.785l-0.265,13.084c-0.687,0.479-1.379,0.953-2.055,1.415c-1.32,0.902-2.964,2.116-4.285,3.081
				L18.537,58.143z"/>
			<path fill="#161214" d="M49.394,64.851l-0.695,21.549l26.45-10.047l0.905-19.705L49.394,64.851z M74.303,75.708l-24.626,9.243
				l0.648-19.398l24.659-7.496L74.303,75.708z"/>
			<path fill="#161214" d="M62.852,65.547l-8.258,2.541l-0.223,6.922l8.189-3.112L62.852,65.547z M61.657,71.257l-6.216,2.227
				l0.179-4.631l6.113-1.918L61.657,71.257z"/>
			<polygon fill="#161214" points="70.595,63.492 63.616,65.641 63.428,71.419 70.352,68.79 			"/>
			<polygon fill="#161214" points="54.797,79.568 69.777,73.925 69.797,70.25 54.984,75.656 			"/>
			<path fill="#161214" d="M73.309,59.63l-21.11,6.495l-0.558,17.246l20.943-7.957L73.309,59.63z M71.067,74.316l-17.786,6.756
				l0.444-13.779l17.918-5.513L71.067,74.316z"/>
		</g>
	</g>
</g>
</svg>
