<?xml version="1.0" encoding="utf-8"?>
<!-- Generator: Adobe Illustrator 15.0.0, SVG Export Plug-In . SVG Version: 6.00 Build 0)  -->
<!DOCTYPE svg PUBLIC "-//W3C//DTD SVG 1.1//EN" "http://www.w3.org/Graphics/SVG/1.1/DTD/svg11.dtd">
<svg version="1.1" id="Ebene_1" xmlns="http://www.w3.org/2000/svg" xmlns:xlink="http://www.w3.org/1999/xlink" x="0px" y="0px"
	 width="140px" height="140px" viewBox="0 0 140 140" enable-background="new 0 0 140 140" xml:space="preserve">
<g>
	<polygon fill="#FFFFFF" points="110.298,62.171 107.989,106.49 62.056,124.261 54.669,121.032 50.054,130.341 26.125,116.415 
		27.049,72.942 46.283,84.175 47.668,68.787 49.001,67.711 61.287,64.171 61.519,62.171 51.362,58.478 47.592,55.088 44.205,48.885 
		43.591,42.602 44.051,36.202 46.437,29.779 50.054,25.241 55.979,22.085 60.658,21.084 65.981,21.624 71.136,23.701 76.367,27.778 
		78.214,20.701 81.531,15.312 85.369,12.543 89.604,10.774 93.985,10.312 98.604,11.081 106.375,14.853 109.913,19.238 
		112.066,23.93 112.912,28.624 112.912,35.549 111.067,40.455 108.066,45.629 104.452,48.552 100.372,50.86 98.064,56.093 	"/>
	<g>
		<g>
			<path d="M85.584,43.433c4.378,5.443,11.604,7.191,17.706,3.499c5.624-3.404,8.229-10.312,8.122-16.636
				c-0.291-7.085-4.035-14.266-11.111-16.553c-6.898-2.231-13.558,2.304-16.621,8.297C80.3,28.648,80.886,37.589,85.584,43.433z
				 M86.021,29.91c-0.84-0.137-2.12-0.4-2.961-0.532c-0.061-0.011-0.123-0.011-0.185-0.008c0.08-0.869,0.271-2.035,0.475-2.893
				c0.903,0.226,2.214,0.502,3.127,0.696C86.341,27.975,86.187,29.114,86.021,29.91z M93.688,47.373
				c0.315-1.229,0.615-2.508,0.823-3.759c0.45,0.127,1.619,0.318,2.087,0.37c-0.227,1.254-0.212,2.482-0.435,3.736
				c-0.587,0.022-0.991-0.001-1.456-0.087C94.729,47.592,93.676,47.418,93.688,47.373z M106.904,31.296
				c0.88,0.154,2.016,0.333,2.876,0.584c0.1,0.027,0.225,0.026,0.36,0.005c-0.045,0.729-0.133,1.463-0.254,2.193
				c-1.037-0.162-2.336-0.285-3.334-0.611C106.671,32.744,106.787,32.02,106.904,31.296z M101.94,15.616
				c-0.088,0.103-0.153,0.219-0.175,0.349c-0.175,1.012-0.791,2.197-1.04,3.192c-0.486-0.115-1.587-0.396-2.064-0.543
				c0.236-1.177,0.516-2.728,0.823-3.889C100.312,14.88,101.178,15.184,101.94,15.616z M95.984,14.449
				c0.981-0.071,1.919-0.015,2.811,0.145c-0.399,0.087-0.772,0.246-0.828,0.45c-0.349,1.273-0.558,2.58-0.823,3.873
				c-0.021,0.104,0.086,0.159,0.259,0.182c0.002,0.244,0.142,0.471,0.42,0.558c0.944,0.291,1.896,0.569,2.871,0.736
				c0.365,0.064,0.809-0.075,1.074-0.354c0.249-0.133,0.444-0.323,0.504-0.572c0.247-1.051,0.541-2.096,0.763-3.156
				c4.383,2.928,6.932,8.764,7.146,13.985c0.003,0.106-0.001,0.216-0.001,0.325c-0.899-0.221-1.81-0.38-2.727-0.529
				c-0.209-0.032-0.435-0.022-0.653,0.024c-0.55-0.111-1.399,0.189-1.487,0.739c-0.164,1.01-0.328,2.02-0.49,3.032
				c-0.042,0.266,0.08,0.433,0.276,0.524c0.064,0.089,0.172,0.167,0.341,0.229c1.224,0.448,2.522,0.592,3.801,0.793
				c0.124,0.019,0.246,0.01,0.368-0.015c-1.454,6.069-5.645,11.567-12.204,12.259c0.005-0.011,0.01-0.021,0.013-0.032
				c0.241-1.422,0.604-2.818,0.843-4.239c0.033-0.193-0.182-0.275-0.478-0.281c-0.127-0.089-0.336-0.128-0.475-0.138
				c-0.724-0.055-1.438-0.332-2.107-0.591c-0.163-0.062-0.343-0.079-0.527-0.067c-0.545-0.142-1.46,0.162-1.55,0.713
				c-0.219,1.354-0.455,2.708-0.771,4.044c-5.852-2.145-9.303-9.103-9.557-15.212c-0.016-0.396-0.016-0.796-0.005-1.195
				c0.967,0.146,1.935,0.285,2.892,0.469c0.473,0.09,1.013-0.012,1.361-0.364c0.055-0.056,0.092-0.12,0.122-0.183
				c0.104-0.095,0.179-0.201,0.206-0.318c0.256-1.149,0.47-2.308,0.659-3.469c0.017-0.086,0.003-0.161-0.022-0.226
				c-0.002-0.01-0.005-0.018-0.01-0.024c-0.004-0.008-0.005-0.016-0.008-0.021c-0.048-0.157-0.17-0.288-0.377-0.336
				c-1.257-0.283-2.537-0.492-3.779-0.846c-0.043-0.012-0.087-0.02-0.132-0.027C85.489,19.721,89.81,14.9,95.984,14.449z"/>
			<path d="M68.09,39.771c-0.644-0.92-1.519-1.455-2.573-1.564c-2.085-0.219-4.185,1.423-4.366,4.169
				c-0.087,1.304,0.203,2.323,1.042,3.366c0.704,0.875,1.32,1.062,2.376,1.174c0.137,0.015,0.271,0.02,0.405,0.022
				c1.868,0.022,3.511-1.176,3.8-3.759C68.935,41.743,68.926,40.965,68.09,39.771z M67.409,42.843
				c-0.184,1.63-1.413,2.883-2.709,2.749c-0.672-0.072-1.124-0.473-1.386-0.796c-0.51-0.635-0.875-1.527-0.773-2.44
				c0.172-1.548,1.408-2.754,2.642-2.754c0.065,0,0.132,0.004,0.198,0.013c0.673,0.069,1.125,0.47,1.386,0.796
				C67.275,41.041,67.509,41.93,67.409,42.843z"/>
			<path d="M94.241,34.214c0.668,0.9,1.65,1.301,2.713,1.311c2.097,0.015,4.027-1.817,3.945-4.571
				c-0.04-1.305-0.425-2.291-1.36-3.25c-0.785-0.803-1.416-0.93-2.477-0.94c-0.136-0.001-0.271,0.008-0.404,0.018
				c-1.86,0.159-3.405,1.999-3.423,4.106C93.221,32.333,93.514,33.232,94.241,34.214z M94.625,31.089
				c0.025-1.639,1.13-3.005,2.433-2.995c0.673,0.005,1.164,0.362,1.456,0.659c0.566,0.582,1.018,1.436,1.005,2.354
				c-0.023,1.557-1.138,2.875-2.365,2.994c-0.067,0.008-0.132,0.01-0.199,0.008c-0.674-0.006-1.165-0.361-1.455-0.658
				C94.93,32.87,94.612,32.01,94.625,31.089z"/>
			<path d="M65.352,40.465c-1.088-0.117-2.046,0.772-2.176,1.965c-0.071,0.622,0.1,1.239,0.468,1.696
				c0.315,0.394,0.753,0.638,1.233,0.689c0.06,0.005,0.122,0.008,0.183,0.008c1.013,0,1.869-0.849,1.994-1.973
				c0.07-0.622-0.1-1.24-0.466-1.697C66.27,40.762,65.83,40.517,65.352,40.465z M65.691,42.698
				c-0.055,0.493-0.418,0.784-0.675,0.754c-0.145-0.015-0.247-0.106-0.309-0.184c-0.14-0.175-0.202-0.425-0.175-0.685
				c0.054-0.47,0.371-0.76,0.635-0.76c0.013,0,0.027,0.001,0.041,0.002c0.146,0.017,0.248,0.108,0.31,0.186
				C65.658,42.187,65.721,42.435,65.691,42.698z"/>
			<path d="M96.796,33.296c0.062,0.005,0.123,0.007,0.186,0.007c1.01,0,1.868-0.848,1.994-1.974
				c0.068-0.621-0.103-1.239-0.467-1.695c-0.315-0.393-0.756-0.637-1.237-0.689c-1.086-0.115-2.044,0.771-2.177,1.966
				c-0.071,0.622,0.101,1.238,0.467,1.696C95.88,33,96.316,33.243,96.796,33.296z M96.454,31.062
				c0.053-0.469,0.368-0.757,0.635-0.757c0.012,0,0.025,0.001,0.039,0.002c0.146,0.016,0.249,0.108,0.311,0.187
				c0.138,0.172,0.202,0.423,0.175,0.685c-0.057,0.492-0.418,0.778-0.674,0.754c-0.146-0.016-0.249-0.107-0.31-0.185
				C96.489,31.574,96.426,31.325,96.454,31.062z"/>
			<path d="M68.927,59.52c6.1-2.679,9.635-8.816,10.431-15.244c0.716-7.218-2.267-15.077-9.164-18.255
				c-6.55-3.019-13.64,0.282-17.6,5.784c-4.493,6.242-4.765,15.212-0.853,21.777C55.232,59.446,62.533,62.33,68.927,59.52z
				 M74.808,53.236c-0.384,0.471-0.856,0.952-1.125,1.193c-0.83-0.693-1.996-1.709-2.803-2.433c0.405-0.428,1.37-1.338,1.761-1.781
				c0.664,0.595,2.088,1.604,2.759,2.194C75.374,52.435,74.835,53.214,74.808,53.236z M74.332,30.625
				c0.392,0.491,0.823,1.131,1.152,1.673c-0.159,0.069-0.309,0.162-0.421,0.278c-0.701,0.715-1.718,1.742-2.403,2.471
				c-0.388-0.405-0.773-0.808-1.18-1.194c0.019-0.018,0.038-0.033,0.055-0.052C72.359,32.861,73.479,31.538,74.332,30.625z
				 M54.83,30.982c0.739,0.656,1.505,1.33,2.191,2.043c-0.021,0.023-0.045,0.045-0.062,0.071c-0.365,0.478-1.295,1.691-1.646,2.177
				c-0.632-0.582-1.245-1.18-1.834-1.807c-0.079-0.084-0.229-0.116-0.407-0.114C53.451,32.773,54.385,31.51,54.83,30.982z
				 M53.723,54.333c0.003-0.003-0.264-0.333-0.261-0.336c0.733-0.624,1.732-1.729,2.433-2.388c0.368,0.38,0.905,1.191,1.281,1.568
				c-0.707,0.75-1.553,1.747-2.264,2.492C54.508,55.226,54.071,54.83,53.723,54.333z M62.324,59.33
				c-2.573-0.226-4.733-1.233-6.482-2.73c0.029-0.028,0.058-0.053,0.086-0.081c0.935-0.981,1.871-1.961,2.798-2.949
				c0.206-0.223,0.203-0.505,0.064-0.722c0.02-0.074,0.005-0.151-0.064-0.221c-0.635-0.645-1.294-1.265-1.884-1.948
				c-0.015-0.018-0.034-0.03-0.053-0.044c-0.066-0.133-0.19-0.247-0.355-0.3c-0.487-0.156-1.002,0.036-1.362,0.363
				c-0.775,0.702-1.513,1.445-2.291,2.145c-1.988-3.47-2.797-7.791-2.417-11.605c0.235-2.38,0.979-4.743,2.127-6.872
				c0.678,0.687,1.381,1.343,2.108,1.978c0.047,0.045,0.116,0.071,0.196,0.085c0.132,0.104,0.338,0.159,0.482,0.164
				c0.46,0.015,0.983-0.159,1.269-0.532c0.64-0.841,1.243-1.709,1.882-2.55c0.076-0.1,0.094-0.185,0.076-0.262
				c0.182-0.145,0.259-0.304,0.128-0.44c-0.886-0.928-1.802-1.83-2.785-2.657c-0.037-0.029-0.08-0.052-0.13-0.068
				c2.742-2.649,6.354-4.259,10.446-3.901c3.127,0.274,5.645,1.702,7.558,3.766c-0.249,0.081-0.486,0.205-0.662,0.389
				c-0.998,1.058-1.985,2.132-2.946,3.225c-0.139,0.157-0.096,0.269,0.016,0.341c-0.151,0.104-0.229,0.198-0.164,0.261
				c0.637,0.603,1.229,1.253,1.842,1.881c0.034,0.034,0.086,0.056,0.149,0.069c0.126,0.083,0.378,0.104,0.49,0.1
				c0.435-0.024,0.964-0.163,1.285-0.475c0.801-0.786,1.552-1.625,2.317-2.445c1.739,3.355,2.435,7.396,2.079,10.989
				c-0.297,2.406-1.068,4.802-2.235,6.953c-0.072-0.063-0.142-0.127-0.214-0.189l-0.145-0.126c-0.631-0.558-1.264-1.115-1.89-1.68
				c-0.062-0.057-0.165-0.082-0.284-0.088c-0.191-0.068-0.691-0.021-0.715-0.019c-0.39,0.073-0.862,0.196-1.133,0.505
				c-0.682,0.773-1.352,1.56-2.058,2.311c-0.179,0.164-0.236,0.349-0.058,0.508c1.061,0.95,2.14,1.883,3.244,2.783
				c0.06,0.05,0.126,0.087,0.194,0.116C70.121,58.047,66.523,59.693,62.324,59.33z"/>
			<path d="M110.887,61.121c-0.037-0.151-0.159-0.296-0.396-0.415c-3.764-1.903-7.606-3.634-11.43-5.41
				c0.614-1.276,1.229-2.546,1.929-3.779c7.772-2.533,13.399-11.225,13.109-21.206c-0.292-9.91-6.245-17.935-14.104-19.704
				c-2.348-1.201-4.962-1.809-7.717-1.654c-8.251,0.454-14.981,7.673-16.584,16.953c-2.104-1.98-4.6-3.35-7.285-3.998
				c-1.805-0.983-3.764-1.614-5.801-1.829c-0.536-0.057-1.078-0.084-1.615-0.084c-4.486,0-8.854,1.961-12.294,5.522
				c-3.424,3.543-5.629,8.373-6.214,13.604c-0.687,6.149,0.953,12.2,4.492,16.603c2.396,2.979,5.532,5.001,8.978,5.837
				c1.416,0.773,2.926,1.32,4.494,1.629c-0.015,0.189-0.028,0.378-0.044,0.57c-0.102-0.003-0.206,0.005-0.318,0.029
				c-4.271,0.953-8.438,2.326-12.579,3.736c-0.351,0.119-0.564,0.314-0.66,0.514c-0.28,0.105-0.499,0.253-0.521,0.446
				c-0.299,2.484-0.236,4.99-0.498,7.475c-0.01,0.08,0.159,0.118,0.396,0.118c-0.003,0.036,0.004,0.066,0.035,0.086
				c0.027,0.016,0.055,0.03,0.085,0.048c-0.328,0.113-0.59,0.281-0.599,0.495c-0.073,1.996-0.133,3.993-0.183,5.991L27.382,71.856
				c-0.304-0.183-0.683-0.188-0.993-0.019c-0.311,0.174-0.507,0.498-0.515,0.851l-0.941,43.657
				c-0.009,0.362,0.183,0.701,0.495,0.883l24.345,14.137c0.154,0.09,0.327,0.135,0.5,0.135c0.164,0,0.328-0.041,0.478-0.124
				c0.306-0.167,0.503-0.483,0.518-0.829l0.004-0.109c0.021-0.024,0.037-0.043,0.047-0.066c1.313-2.788,2.514-5.633,3.646-8.5
				c1.778,1.066,3.517,2.137,5.368,3.107c0.151,0.079,0.386,0.029,0.633-0.08c0.036,0.002,0.076,0.002,0.112,0.002
				c0.26,0.24,0.673,0.373,1.06,0.222c15.474-6.12,30.934-12.287,46.541-18.06c0.588-0.217,0.646-0.593,0.45-0.894
				c0.572-12.274,1.193-24.544,1.813-36.813c0.008-0.137-0.044-0.236-0.132-0.31c0.104-0.095,0.172-0.203,0.172-0.318
				c0-0.019,0.003-0.036,0.003-0.057c0.045-0.143,0.047-0.288,0.01-0.419c0.037-2.237,0.224-4.474,0.321-6.707
				C111.332,61.298,111.148,61.166,110.887,61.121z M107.74,106.082c-15.074,5.585-30.764,11.672-45.71,17.582
				c0.138-13.024,0.814-26.259,1.043-39.291c15.279-4.59,31.166-10.418,46.49-14.848C108.95,81.637,108.305,93.968,107.74,106.082z
				 M109.543,68.007c-15.531,4.466-31.042,10.111-46.524,14.745c0.186-1.892,0.301-3.792,0.392-5.69
				c15.275-5.046,31.201-9.503,46.372-14.875C109.686,64.106,109.591,66.084,109.543,68.007z M108.544,61.143
				c-14.908,5.228-30.745,9.653-45.741,14.616c-0.107,0.036-0.199,0.083-0.284,0.134l-0.631-0.414l-3.229-1.854
				c0.532-1.408,1.306-2.741,2.513-3.794c1.097-0.952,2.767-1.416,4.159-1.93l0.221-0.082c0.394-0.146,0.627-0.394,0.738-0.652
				c0.105-0.02,0.207-0.057,0.292-0.119c3.716-2.711,9.383-4.184,13.77-5.296c5.959-1.514,11.041-2.58,16.902-4.468l0,0
				c0.455-0.062,0.942-0.209,1.06-0.442c0.005-0.011,0.214-0.271,0.219-0.281C101.743,58.05,105.367,59.579,108.544,61.143z
				 M61.981,63.196c0.354,0.024,1.059,0.02,1.41,0.02c0.613,0,1.564-0.095,2.175-0.166c-0.061,0.81-0.093,1.942-0.147,2.753
				c-0.918-0.438-2.579-0.905-3.534-1.255C61.914,64.156,61.951,63.586,61.981,63.196z M97.381,55.843
				c-6.126,1.953-12.735,3.478-18.957,5.058c-3.778,0.957-8.005,2.388-11.453,4.434c0.047-0.668-0.031-2.028,0.019-2.696
				c2.127-0.526,4.318-1.54,6.187-2.912c0.212,0.514,0.674,0.874,1.214,0.874c0.736,0,1.338-0.672,1.338-1.495
				c0-0.459-0.188-0.863-0.481-1.14c0.146-0.14,0.293-0.281,0.435-0.428c3.016-3.122,5.015-8.13,5.863-12.642
				c2.205,2.178,4.947,5.015,7.877,5.676c2.116,1.09,4.451,1.692,6.911,1.692c0.273,0,0.55-0.008,0.823-0.021
				c0.627-0.037,1.635-0.287,2.243-0.397C98.688,53.123,98.016,54.527,97.381,55.843z M96.099,12.164
				c0.238-0.016,0.848-0.022,1.087-0.022c8.341,0,15.08,8.141,15.377,18.311c0.306,10.487-6.832,19.789-15.444,20.264
				c-7.219,0.398-13.463-5.664-15.49-13.6c-0.089-0.47-0.191-0.936-0.309-1.393c-0.216-1.157-0.353-2.356-0.389-3.585
				C80.626,21.648,87.489,12.639,96.099,12.164z M90.407,10.608c1.687-0.375,3.255-0.148,5.311,0.035
				C83.109,13.186,79.33,22.926,79.492,31.333c-0.461-0.776-1.884-3.376-2.443-4.075C78.125,20.094,82.477,12.385,90.407,10.608z
				 M48.27,54.604c-3.279-3.936-4.852-9.632-4.225-15.257c1.081-9.681,9.481-18.865,18.7-17.756
				c-4.495,1.042-7.806,2.907-10.224,5.407c-3.423,3.545-5.63,8.376-6.212,13.606c-0.623,5.586,1.092,12.72,5.609,17.237
				C50.788,57.017,49.14,55.648,48.27,54.604z M52.091,55.93c-3.21-3.992-4.896-9.588-4.268-15.215
				c1.086-9.73,8.599-17.235,16.78-17.235c0.468,0,3.04,0,4.95,0.478c3.602,0.9,4.132,1.913,6.646,5.04
				c1.64,2.035,2.896,4.579,3.585,7.222c0.092,0.495,0.201,0.984,0.323,1.466c0.392,2.111,0.219,4.606-0.03,6.843
				c-1.087,9.73-8.493,17.169-16.677,17.169c-0.466,0-0.938-0.026-1.405-0.076C58.305,61.233,54.609,59.06,52.091,55.93z
				 M59.892,65.433c0.137-0.025,0.271-0.072,0.398-0.132c-0.003,0.022-0.025,0.057-0.005,0.072c0.05,0.037,0.268,0.13,0.555,0.151
				c0.067,0.072,0.35,0.222,0.455,0.262c0.766,0.275,1.95,0.626,2.689,0.96c-1.188,0.487-3.05,1.156-4.088,1.986
				c-1.391,1.113-2.229,2.665-2.802,4.051l-2.592-1.41c0.014-0.027-0.927-0.582-0.912-0.607
				C54.939,68.05,57.33,65.883,59.892,65.433z M54.742,66.637c-0.91,0.893-1.997,2.254-2.606,3.49l-3.322-1.513
				C50.514,68.022,53.099,67.202,54.742,66.637z M47.728,69.483l13.987,7.387c-0.077,1.659-0.101,3.762-0.238,5.418
				c-4.284-2.523-9.26-4.731-13.527-7.235c-0.043-0.025-0.328-0.189-0.386-0.192C47.552,73.415,47.618,71.188,47.728,69.483z
				 M49.682,129.431l-23.066-13.423l0.911-42.257l24.132,14.323L49.682,129.431z M51.181,127.672l1.842-36.757
				c1.091,2.627,2.227,5.236,3.432,7.813c0.021,0.045,0.054,0.082,0.09,0.117c-0.055,0.064-0.09,0.136-0.09,0.217
				c-0.015,5.418-0.314,10.152-0.333,15.568C54.665,118.663,52.895,123.738,51.181,127.672z M57.501,121.838
				c-1.142-0.552-1.992-1.134-2.087-1.139c0.696-1.801,1.453-3.787,2.104-5.6c0.027-0.046,0.045-0.098,0.045-0.15
				c0.02-5.43,0.318-10.848,0.332-16.272c0-0.03-0.008-0.055-0.021-0.08c0.05-0.077,0.065-0.167,0.022-0.255
				c-1.661-3.551-3.188-7.158-4.649-10.795c-0.037-0.091-0.106-0.151-0.193-0.193c-0.085-0.17-0.212-0.316-0.381-0.42l-5.663-3.419
				c0.053-2.291,0.223-4.445,0.303-6.733c4.384,2.439,10.072,5.092,14.199,7.654c-0.226,12.885-0.799,25.989-0.951,38.87
				C59.131,122.817,59.174,122.653,57.501,121.838z"/>
			<ellipse cx="94.499" cy="54.092" rx="1.34" ry="1.495"/>
			<ellipse cx="84.628" cy="56.583" rx="1.34" ry="1.496"/>
			<path d="M29.317,115.5l18.938,11.567l1.376-37.62L28.937,76.465l-0.627,38.14c-0.042,0.131-0.027,0.245-0.003,0.318
				C28.427,115.272,28.904,115.483,29.317,115.5z M46.651,124.081l-16.257-9.44c1.905-1.412,2.461-1.882,4.365-3.194
				c0.786-0.543,3.318-2.188,4.104-2.735l8.177,4.689L46.651,124.081z M48.14,90.161l-0.086,5.386l-8.645-4.823
				c-2.455-3.349-5.532-7.923-7.95-11.294L48.14,90.161z M30.242,79.952c2.5,3.522,5.323,7.709,7.846,11.189l-0.336,16.664
				c-0.875,0.609-1.756,1.214-2.618,1.804c-1.68,1.148-3.774,2.694-5.456,3.923L30.242,79.952z"/>
			<path d="M69.544,88.497l-0.886,27.445l33.687-12.796l1.154-25.097L69.544,88.497z M101.268,102.324l-31.363,11.772l0.824-24.706
				l31.407-9.548L101.268,102.324z"/>
			<path d="M86.683,89.383l-10.517,3.236l-0.284,8.816l10.431-3.963L86.683,89.383z M85.16,96.655l-7.915,2.837l0.228-5.897
				l7.785-2.443L85.16,96.655z"/>
			<polygon points="96.546,86.766 87.657,89.502 87.417,96.861 96.235,93.514 			"/>
			<polygon points="76.424,107.241 95.504,100.055 95.529,95.373 76.663,102.259 			"/>
			<path d="M100.002,81.847l-26.886,8.272l-0.712,21.965l26.674-10.134L100.002,81.847z M97.146,100.552l-22.651,8.604l0.564-17.55
				l22.821-7.022L97.146,100.552z"/>
		</g>
	</g>
</g>
</svg>
