<?xml version="1.0" encoding="utf-8"?>
<!-- Generator: Adobe Illustrator 15.0.0, SVG Export Plug-In . SVG Version: 6.00 Build 0)  -->
<!DOCTYPE svg PUBLIC "-//W3C//DTD SVG 1.1//EN" "http://www.w3.org/Graphics/SVG/1.1/DTD/svg11.dtd">
<svg version="1.1" id="Ebene_1" xmlns="http://www.w3.org/2000/svg" xmlns:xlink="http://www.w3.org/1999/xlink" x="0px" y="0px"
	 width="100px" height="100px" viewBox="0 0 100 100" enable-background="new 0 0 100 100" xml:space="preserve">
<g>
	<path fill="#FFFFFF" d="M20.724,20.745l12.055-0.561l2.074,0.805l1.356-0.896l3.648,0.806l2.029,0.788l0.491,1.612l0.541,1.225
		l5.506,1.832l5.543-0.998l12.258,4.755l2.044-4.184l-2.233-1.576l-2.466-5.424l0.149-4.312l1.574-4.058l4.484-3.947l3.176-0.967
		l3.267,0.218l2.737,1.062l2.945,2.09l2.276,3.557l0.771,4.294l-0.612,3.756l-2.162,3.833L79.7,27.083l-1.533,0.725l-2.312,0.288
		l-2.177,5.52c0,0,17.791,7.103,17.856,7.197c0.065,0.093,6.604,7.233,6.604,7.233l-6.973,17.977L80.528,93.442l-9.117,1.995
		l-2.354-0.608L35.685,79.194l-2.258-0.623l-3.871-0.233l-3.226-0.845l-3.825-1.787l-3.52-2.838l-1.938-2.987L3.181,63.74
		l3.717-10.235l6.625-17.078l4.496-10.543L20.724,20.745z"/>
	<g>
		<path fill="#231F20" d="M40.044,51.84c-0.064-0.07-0.165-0.131-0.296-0.183l-0.012-0.005c-0.02-0.064-0.066-0.131-0.14-0.196
			c-1.061-0.942-2.253-1.673-3.546-2.174c-4.683-1.817-9.933-0.354-13.067,3.639c-2.301,2.938-3.104,7.127-2.092,10.937
			c0.873,3.289,2.949,5.751,5.845,6.931l0.171,0.068c5.579,2.164,10.848-0.97,13.594-5.032
			C42.946,62.208,44.292,56.376,40.044,51.84z M28.53,69.604L28.53,69.604c-3.276-1.27-5.353-5.064-5.497-8.528
			c-0.153-3.685,1.85-7.767,4.871-9.927c2.125-1.521,4.436-1.5,6.655-0.638c0.932,0.361,1.779,0.797,2.648,1.57
			c0.058,0.051,0.139,0.097,0.24,0.136h0.001c0.022,0.01,0.046,0.018,0.071,0.024c0.017,0.07,0.058,0.14,0.125,0.211
			c1.549,1.655,1.944,2.574,2.113,4.228c-0.554-0.555-0.632-0.625-1.41-1.082c-3.267-2.293-7.52-1.987-9.916,1.357
			c-2.529,3.533-0.922,7.456,2.661,9.347c2.002,1.056,3.643,1.357,5.477,0.462c-0.98,1.216-1.545,1.579-2.843,2.356
			C31.972,70.17,30.178,70.243,28.53,69.604z M37.062,60.227c-0.046,1.071-0.617,2.091-1.386,2.478
			c-0.004,0.002-0.008,0.003-0.012,0.007c-0.257-0.138-0.444-0.352-0.593-0.55c-0.285-0.368-0.412-0.859-0.386-1.502
			c0.023-0.612,0.298-1.148,0.523-1.488c0.136-0.204,0.321-0.382,0.498-0.541c0.096-0.08,0.201-0.154,0.316-0.216
			c0.087-0.049,0.158-0.062,0.199-0.067l0.001,0.002C36.792,58.707,37.098,59.39,37.062,60.227z M36.526,56.375
			c0.57,0.336,1.045,0.632,1.352,1.198c-0.027-0.014-0.05-0.029-0.081-0.042c-1.83-0.71-4.21-0.742-5.396,1.301
			c-0.503,0.867-0.61,1.826-0.302,2.704c0.322,0.921,1.079,1.67,2.076,2.056c0.041,0.017,0.084,0.032,0.127,0.047
			c0.978,0.344,1.582,0.636,2.614,0.298c-0.91,1.327-1.527,1.947-3.301,1.535C26.329,63.774,31.415,53.075,36.526,56.375z"/>
		<g>
			<path fill="#231F20" d="M28.186,27.59c-0.815-0.316-1.732,0.061-2.043,0.841c-0.313,0.787,0.1,1.693,0.921,2.019l0.015,0.005
				c0.815,0.317,1.731-0.06,2.041-0.84C29.433,28.828,29.02,27.922,28.186,27.59z M27.297,29.896L27.297,29.896L27.297,29.896
				L27.297,29.896z"/>
			<path fill="#231F20" d="M81.289,47.945c-0.411-0.16-1.063-0.229-1.526-0.007c-0.329,0.159-0.357,0.413-0.354,0.514
				c0.001,0.027,0.009,0.052,0.015,0.077c-0.715,1.881-1.313,3.48-2.058,5.364c-0.037,0.092-0.1,0.275-0.154,0.465
				c-0.036,0.092-0.034,0.274-0.032,0.324c0.023,0.408,0.497,0.628,0.641,0.685l3.777,1.503c0.439,0.172,1.088,0.234,1.544-0.012
				c0.324-0.177,0.345-0.437,0.341-0.539c-0.008-0.134-0.066-0.245-0.143-0.339c0.713-1.806,1.404-3.615,2.119-5.419
				c0.097-0.303,0.106-0.438,0.104-0.52c-0.013-0.366-0.309-0.478-0.545-0.572c-0.615-0.247-1.226-0.5-1.84-0.752
				C82.555,48.459,81.932,48.202,81.289,47.945z M81.762,55.203l-2.625-1.045c0.61-1.553,1.204-3.113,1.795-4.676
				c0.329,0.135,0.657,0.267,0.986,0.403c0.551,0.228,1.103,0.455,1.657,0.679C82.967,52.108,82.369,53.658,81.762,55.203z"/>
			<path fill="#231F20" d="M69.755,65.438c-0.019-0.065-0.05-0.131-0.108-0.201c-1.294-1.456-3.308-1.868-4.966-0.753
				c-1.324,0.894-2.037,2.8-1.684,4.336c0.475,2.05,3.329,2.493,4.979,1.835c1.848-0.732,2.461-3.301,1.891-5.028
				C69.843,65.558,69.803,65.494,69.755,65.438z M66.968,69.012c-0.649,0.897-1.451,0.473-1.663-0.441
				c-0.209-0.896,0.274-1.914,0.793-2.611c0.544-0.731,0.851-0.888,1.407-0.261c0.006,0.005,0.013,0.008,0.018,0.013
				c0.001,0.005,0,0.01,0.001,0.016C67.892,66.834,67.645,68.076,66.968,69.012z"/>
			<path fill="#231F20" d="M75.053,47.921c0.344-0.904,0.7-1.838,1.126-2.72c0.055-0.113,0.061-0.229,0.019-0.338
				c-0.011-0.026-0.027-0.05-0.04-0.074c-0.034-0.25-0.197-0.503-0.562-0.651c-1.493-0.599-2.998-1.244-4.453-1.866
				c-1.464-0.626-2.977-1.273-4.491-1.882c-0.535-0.208-1.029,0.073-1.18,0.454c-0.083,0.207-0.068,0.465,0.088,0.681
				c-0.264,0.751-0.567,1.496-0.866,2.22c-0.202,0.485-0.403,0.986-0.597,1.489c-0.184,0.051-0.336,0.141-0.398,0.292
				c-0.016,0.04-0.145,0.392,0.308,0.607c0.075,0.09,0.182,0.168,0.322,0.222l0,0c0.108,0.043,0.227,0.064,0.34,0.071
				c2.989,1.317,5.768,2.489,8.466,3.57l0.006,0.003c0.258,0.1,1.137,0.151,1.317-0.308c0.024-0.06,0.042-0.163,0.008-0.276
				C74.669,48.917,74.864,48.413,75.053,47.921z M73.38,47.354c-0.148,0.393-0.302,0.791-0.462,1.188
				c-2.39-0.97-4.236-1.809-6.945-3.005c0.175-0.447,0.29-0.891,0.469-1.326c0.254-0.622,0.461-1.25,0.699-1.897
				c1.204,0.495,2.146,0.9,3.316,1.401c1.313,0.561,2.403,1.012,3.755,1.562C73.911,45.964,73.642,46.668,73.38,47.354z"/>
			<path fill="#231F20" d="M79.398,44.938c0.265-0.639-0.232-1.004-0.958-1.368c-4.389-2.106-8.928-3.859-13.449-5.653
				c-0.438-0.174-1.229-0.064-1.616,0.165c-0.164,0.048-0.29,0.131-0.339,0.257c-1.042,2.635-1.82,4.86-2.86,7.494
				c-0.036,0.092-0.13,0.471-0.1,0.749c0.108,0.372,0.287,0.618,0.819,0.833c4.651,1.873,9.062,4.364,13.852,5.849
				c0.657,0.204,0.938,0.2,1.402-0.079c0.228-0.165,0.448-0.712,0.514-0.908C77.516,49.729,78.365,47.417,79.398,44.938z
				 M62.521,46.163c0.885-2.256,1.723-4.529,2.603-6.786c4.031,1.595,8.058,3.189,11.966,5.062
				c-0.925,2.246-1.783,4.516-2.562,6.819C70.508,49.604,66.545,47.809,62.521,46.163z"/>
			<path fill="#231F20" d="M58.807,35.387c0.149-0.181,0.072-0.401-0.453-0.614c-3.174-1.281-6.282-2.726-9.458-4.007
				c-0.18-0.073-0.415-0.095-0.655-0.083c-0.625-0.138-1.393-0.087-1.554,0.339c-0.61,1.614-1.293,3.199-1.935,4.801
				c-0.054,0.134,0.033,0.261,0.194,0.37c-0.106,0.173-0.006,0.377,0.481,0.573c3.304,1.327,6.53,2.855,9.857,4.125
				c0.652,0.249,2.01-0.124,1.831-0.566c0.628-1.569,1.281-3.126,1.908-4.693C59.054,35.555,58.963,35.468,58.807,35.387z
				 M48.503,36.565c-0.444-0.187-0.888-0.371-1.334-0.552c0.517-1.284,1.055-2.558,1.563-3.844c0.505,0.21,1.012,0.418,1.514,0.635
				C49.042,33.565,48.336,35.106,48.503,36.565z M53.441,36.91c-0.333,0.734-0.821,1.184-1.303,1.205
				c-0.007,0-0.012,0.002-0.021,0.002c-0.628-0.271-1.258-0.543-1.888-0.813c-0.003-0.013-0.003-0.024-0.007-0.035
				c-0.481-1.278,0.082-3.267,1.416-3.866c0.591,0.257,1.183,0.51,1.776,0.766c0.008,0.072,0.036,0.153,0.11,0.243
				C53.906,34.893,53.871,35.967,53.441,36.91z M55.018,39.337c-0.465-0.189-0.93-0.381-1.392-0.577
				c0.577-0.367,1.082-0.954,1.417-1.689c0.33-0.722,0.43-1.443,0.31-2.077c0.408,0.172,0.815,0.342,1.226,0.51
				C56.063,36.785,55.536,38.06,55.018,39.337z"/>
			<path fill="#231F20" d="M99.539,48.285c0.046-0.111-0.012-0.218-0.128-0.314c0.029-0.43-0.4-0.926-1-1.159
				c-0.029-0.012-0.057-0.018-0.088-0.027c-1.662-1.759-3.327-3.515-4.875-5.371c-0.054-0.065-0.125-0.118-0.205-0.166
				c-0.087-0.167-0.233-0.326-0.419-0.454c-0.01-0.171-0.155-0.378-0.633-0.57c-5.87-2.358-11.773-4.894-17.502-7.36
				c0.1-0.213,0.195-0.427,0.291-0.637c0.503-1.096,0.98-2.14,1.33-3.299c0.027-0.092-0.065-0.184-0.224-0.268
				c2.831,0.047,5.397-1.111,7.658-4.569c4.154-6.354,2.356-13.966-4.163-17.644C74.893,3.799,69.085,4.92,65.49,8.754
				c-4.609,4.918-4.393,14.277,2.044,17.445c0.01,0.015,0.023,0.032,0.042,0.049l-1.305,3.008c-3.476-1.479-6.98-2.948-10.48-4.354
				c-0.097-0.038-0.217-0.063-0.35-0.078c-0.074-0.049-0.159-0.094-0.257-0.131c-0.357-0.14-0.778-0.174-1.03-0.163
				c-1.919,0.091-3.983,0.336-6.309,0.754c-0.065,0.012-0.135,0.027-0.205,0.045c-1.217-0.419-2.499-0.891-3.888-1.43
				c-0.117-0.046-0.233-0.092-0.35-0.137c0.13-0.63-0.089-1.516-1.654-2.408c-0.033-0.02-0.069-0.036-0.104-0.05l-0.031-0.01
				l-0.218-0.109c-0.736-0.368-1.498-0.75-2.298-1.059c-1.033-0.401-1.932-0.601-2.75-0.611c-0.772-0.009-1.345,0.24-1.628,0.689
				c-0.701-0.289-1.404-0.579-2.109-0.861c-0.36-0.14-0.993-0.122-1.375-0.036c-1.484,0.08-2.996,0.118-4.459,0.156
				c-1.972,0.051-4.009,0.102-6.013,0.257c-0.012,0.001-0.022,0.003-0.037,0.004c-0.684-0.13-1.71,0.143-1.855,0.617
				c-0.015,0.045-0.02,0.095-0.018,0.146c-0.007,0.016-0.018,0.027-0.024,0.044C13.143,34.822,7.634,49.126,1.833,63.367
				c-0.189,0.466,0.13,0.82,0.583,1.008c0.096,0.088,0.229,0.179,0.423,0.269c1.414,0.653,2.825,1.312,4.236,1.97
				c2.852,1.328,5.8,2.701,8.716,4.018l0.054,0.023l0,0c0.134,0.053,0.293,0.083,0.463,0.096c1.375,2.174,3.184,4.079,5.405,5.506
				c4.33,2.786,8.542,3.611,12.343,3.057c1.91,0.912,3.822,1.828,5.733,2.745c9.776,4.685,19.885,9.529,29.997,13.873l0.023,0.011
				c0.172,0.066,1.175,0.207,1.857,0.08c2.354,0.186,4.65-0.505,6.876-1.181c0.728-0.218,1.479-0.446,2.204-0.633
				c0.348-0.088,0.575-0.303,0.63-0.576c0.164-0.064,0.29-0.166,0.343-0.31C87.37,78.19,93.399,63.222,99.539,48.285z
				 M76.419,26.282c-0.605,0.062-1.393-0.089-2.359-0.463c-2.177-0.844-3.809-2.31-4.24-2.632c-0.384-0.287-0.507-0.378-0.754-0.754
				c3.025,1.225,4.822,2.29,7.848,3.509C76.636,26.153,76.737,26.105,76.419,26.282z M71.223,17.442
				c0.927,0.359,1.968,0.757,2.884,1.091c0.915,0.334,1.835,0.708,2.756,1.066c1.445,0.561,2.526,0.976,3.586,1.508
				c-0.172,0.475-0.183,0.696-0.402,1.138c-1.497-0.561-3.037-1.074-4.537-1.571c-1.736-0.577-3.533-1.172-5.248-1.838
				c-0.988-0.383-1.719-0.697-2.571-1.097c-0.03-0.011-0.087-0.025-0.157-0.037c0.036-0.518,0.098-0.962,0.155-1.299
				c0.044-0.248,0.06-0.149,0.13-0.39C68.87,16.536,69.795,16.889,71.223,17.442z M68.493,14.584
				c0.246-0.513,0.405-0.886,0.728-1.352c4.033,1.899,7.997,3.414,12.033,5.302c-0.092,0.529-0.117,0.682-0.258,1.193
				c-0.782-0.356-1.64-0.714-2.61-1.091c-0.924-0.358-1.872-0.704-2.788-1.038c-0.917-0.333-1.861-0.679-2.783-1.038
				C70.914,15.825,69.805,15.302,68.493,14.584z M68.627,19.704c1.725,0.667,3.52,1.264,5.256,1.84
				c1.729,0.574,3.516,1.167,5.225,1.83c0.081,0.032,0.166,0.066,0.25,0.098c-0.346,0.57-0.575,0.833-1.093,1.375
				c-3.431-1.383-6.677-2.77-10.11-4.144c-0.107-0.042-0.235-0.061-0.361-0.063c-0.169-0.598-0.239-0.813-0.261-1.404
				C67.996,19.434,68.114,19.504,68.627,19.704z M80.08,25.551c-0.981,1.27-2.126,1.882-3.348,2.08
				c0.407-0.188,0.803-0.406,1.182-0.659c0.174-0.078,0.34-0.167,0.501-0.275c0.102-0.07,0.139-0.146,0.152-0.211
				c1.038-0.836,1.942-1.925,2.675-3.251c0.116-0.038,0.202-0.089,0.231-0.165c0.031-0.082,0.018-0.155-0.035-0.223
				c0.261-0.512,0.495-1.043,0.696-1.594c0.215-0.008,0.422-0.035,0.571-0.096C82.048,22.743,81.104,24.226,80.08,25.551z
				 M83.558,18.018c-0.111,0.923-0.351,1.826-0.678,2.7c-0.048-0.062-0.125-0.126-0.246-0.191c-0.071-0.037-0.144-0.074-0.217-0.11
				c0.742-2.432,0.932-5.113,0.573-7.574C83.562,14.499,83.766,16.287,83.558,18.018z M81.509,16.929
				c-3.872-1.736-7.599-3.01-11.43-4.84c0.35-0.423,0.483-0.497,0.832-0.857c1.778,0.797,3.439,1.455,5.198,2.208
				c1.78,0.764,3.582,1.586,5.378,2.391C81.481,16.302,81.554,16.457,81.509,16.929z M81.572,14.432
				c-1.532-0.678-3.08-1.344-4.588-1.99c-1.769-0.757-3.275-1.389-5.086-2.199c0.366-0.342,0.765-0.569,1.144-0.779
				c1.728,0.905,3.194,1.451,4.906,2.114c0.493,0.192,0.99,0.382,1.484,0.571c0.67,0.255,1.331,0.51,1.995,0.772
				C81.501,13.415,81.549,13.92,81.572,14.432z M80.715,10.124c0.203,0.528,0.303,0.815,0.436,1.393
				c-0.338-0.129-0.678-0.258-1.018-0.388c-0.535-0.203-0.862-0.366-1.399-0.574c-1.423-0.552-2.552-0.92-4.106-1.715
				c1.898-0.435,3.234,0.234,5.177,0.956C80.109,9.909,80.412,10.015,80.715,10.124z M77.825,6.859
				c0.797,0.379,1.519,0.863,2.158,1.424c-0.039,0.136-0.022,0.288,0.067,0.438c0.029,0.054,0.058,0.113,0.086,0.167
				c-0.146-0.062-0.292-0.124-0.437-0.186c-0.45-0.193-0.889-0.38-1.324-0.549c-1.881-0.73-3.57-1.058-5.714-0.296
				c-2.642,0.94-4.846,3.691-6.033,6.51c-0.134,0.042-0.236,0.103-0.277,0.191c-0.041,0.083-0.045,0.197,0.072,0.322
				c-0.277,0.738-0.486,1.474-0.608,2.176c-0.811,4.604,2.56,6.938,5.961,8.613l0.289,0.144c0.593,0.295,1.267,0.629,1.968,0.9
				c0.231,0.091,0.458,0.169,0.676,0.238c-0.476,0.118-0.979,0.198-1.525,0.221c-0.109,0.004-0.198,0.024-0.272,0.052
				c-1.024-0.308-2.04-0.72-3.009-1.119c-0.047-0.042-0.113-0.085-0.224-0.134c-0.177-0.077-0.346-0.158-0.512-0.243
				c-0.075-0.16-0.203-0.294-0.379-0.37c-0.119-0.054-0.246-0.07-0.363-0.061C59.773,19.716,67.348,1.869,77.825,6.859z
				 M70.286,27.639l2.807,0.97c0,0.277,0.035,0.382-0.139,0.555l-1.563,3.942l-3.808-1.708l1.769-4.106
				C69.353,27.289,70.141,27.69,70.286,27.639z M54.937,26.427c0.064,0.035,0.137,0.068,0.223,0.103
				c3.762,1.512,6.678,2.809,10.414,4.402l-0.2,0.394c-0.08,0.184-0.084,0.393-0.011,0.579c0.074,0.187,0.218,0.338,0.403,0.417
				l5.748,2.489c0.009,0.004,0.017,0.007,0.026,0.011c0.184,0.07,0.386,0.068,0.567-0.008c0.119-0.051,0.219-0.132,0.298-0.232
				c0.501,0.103,1.039,0.115,1.243-0.09c0.065-0.066,0.078-0.025,0.139-0.096c4.912,2.115,9.678,4.09,14.706,6.138
				c-0.203,0.008-0.981,0.07-1.184,0.078c-1.431,0.056-1.973,0.123-3.406,0.163c-5.955-2.398-11.939-5.01-17.727-7.536
				c-5.204-2.272-9.717-4.328-15.07-6.518C52.319,26.522,53.588,26.517,54.937,26.427z M36.336,20.754
				c0.512-0.044,1.098,0.165,1.616,0.348l0.254,0.089c0.17,0.057,0.338,0.12,0.506,0.185c0.731,0.283,1.441,0.625,2.1,0.954
				c0.019,0.008,0.04,0.017,0.078,0.032c0.464,0.275,0.972,0.935,0.895,1.168c-0.025,0.076-0.19,0.143-0.579,0.099
				c-0.507-0.059-1.021-0.254-1.518-0.443l-0.517-0.198c-1.013-0.392-1.761-0.755-2.426-1.176c-0.31-0.197-0.775-0.721-0.725-0.932
				C36.036,20.818,36.154,20.771,36.336,20.754z M35.077,23.143c0.073-0.179,0.148-0.355,0.224-0.531
				c0.024-0.056,0.048-0.115,0.073-0.172c0.067,0.06,0.139,0.12,0.216,0.174c0.84,0.597,1.847,1.13,2.91,1.542
				c0.966,0.375,1.93,0.625,2.797,0.73c-0.054,0.116-0.111,0.233-0.168,0.352c-0.104,0.217-0.208,0.441-0.305,0.667
				c-0.446,0.206-1.538,0.042-2.746-0.428c-1.76-0.682-3.017-1.658-3.012-2.316C35.068,23.154,35.074,23.149,35.077,23.143z
				 M27.257,21.317c1.635-0.041,1.619-0.021,3.283-0.124c0.005,0,1.716-0.062,1.721-0.062l0.188,0.06l0.016-0.03
				c0.507,0.209,1.006,0.422,1.507,0.636c-0.05,0.123-0.102,0.244-0.155,0.364c-0.061,0.146-0.124,0.292-0.184,0.439
				c-0.065,0.076-0.11,0.166-0.129,0.267c-0.318,1.731,1.998,2.758,3.242,3.31l0.187,0.083c0.333,0.148,0.712,0.315,1.125,0.475
				c1.126,0.438,2.75,0.928,3.845,0.142c0.028-0.021,0.053-0.042,0.076-0.062c0.11-0.058,0.192-0.139,0.233-0.244
				c0.119-0.307,0.265-0.613,0.406-0.907c0.028-0.06,0.057-0.122,0.086-0.182c0.033,0.013,0.066,0.026,0.1,0.039
				c0.661,0.256,1.288,0.49,1.905,0.711c-0.29,0.123-0.454,0.267-0.712,0.494c-0.093,0.081-0.197,0.174-0.329,0.284
				c-0.164,0.136-0.321,0.274-0.474,0.411c-0.514,0.457-0.959,0.854-1.56,1.035c-3.171-1.297-6.374-2.662-9.473-3.982
				c-2.394-1.02-4.862-2.071-7.311-3.09C25.657,21.357,26.468,21.337,27.257,21.317z M24.586,75.857
				c-11.447-5.698-10.52-19.928-3.969-28.04c1.375-1.641,2.987-3.062,4.774-4.145c3.844-2.198,8.525-2.569,13.451,0.196
				C57.33,53.793,44.458,85.747,24.586,75.857z M42.992,74.974c0.541-0.488,1.053-1.008,1.542-1.556
				c0.271,0.032,0.532,0.036,0.741,0.033c0.706-0.012,1.421-0.049,2.114-0.087c0.602-0.03,1.219-0.062,1.835-0.078
				c-0.436,0.523-0.9,1.024-1.403,1.492c-0.267-0.089-0.56-0.12-0.776-0.107C45.692,74.752,44.339,74.83,42.992,74.974z
				 M46.247,76.059c-0.156,0.111-0.316,0.221-0.478,0.328c-2.038,0.496-4.075,0.78-6.127,1.002c0.521-0.293,1.026-0.61,1.519-0.955
				c0.319,0.09,0.672,0.097,0.966,0.049C43.49,76.246,44.867,76.144,46.247,76.059z M46.424,72.261
				c-0.315,0.017-0.638,0.029-0.96,0.043c0.532-0.682,1.025-1.398,1.478-2.142c0.042,0.007,0.085,0.014,0.124,0.018
				c1.405,0.129,2.816,0.112,4.22-0.004c-0.365,0.701-0.773,1.377-1.226,2.021c-0.142-0.016-0.28-0.023-0.397-0.025
				C48.58,72.156,47.484,72.209,46.424,72.261z M51.574,68.648c-1.282,0.141-2.569,0.201-3.855,0.12
				c0.402-0.782,0.76-1.588,1.071-2.415c1.194,0.158,2.486,0.154,3.998-0.015c-0.22,0.794-0.487,1.569-0.799,2.325
				C51.84,68.642,51.697,68.634,51.574,68.648z M52.525,64.503c-1.149,0.163-2.19,0.199-3.158,0.109
				c0.351-1.224,0.594-2.476,0.725-3.737c1.16,0.07,2.357,0.042,3.5-0.182c-0.02,1.277-0.146,2.55-0.376,3.797
				C52.939,64.462,52.686,64.479,52.525,64.503z M53.031,59.119c-0.907,0.226-1.893,0.263-2.835,0.209
				c0.031-1.031,0.002-1.646-0.13-2.667c1.053,0.046,2.122-0.04,3.198-0.078c0.177,0.965,0.243,1.507,0.296,2.493
				C53.379,59.064,53.195,59.078,53.031,59.119z M52.848,55.029c-0.962,0.027-2,0.251-2.973,0.154
				c-0.086-0.456-0.188-0.912-0.308-1.363c0.979,0.014,1.966-0.14,2.965-0.084c0.03,0.001,0.066,0.002,0.101,0.002
				c0.13,0.426,0.245,0.857,0.347,1.292C52.933,55.029,52.886,55.027,52.848,55.029z M49.103,52.366
				c-0.206-0.562-0.438-1.113-0.705-1.657c0.905-0.145,1.825-0.252,2.721-0.086c0.091,0.017,0.192,0.018,0.298,0.012
				c0.268,0.542,0.506,1.102,0.725,1.672C51.143,52.339,50.06,52.544,49.103,52.366z M47.476,49.083
				c-0.389-0.612-0.82-1.209-1.298-1.786c1.003,0.051,2.015-0.031,3.037-0.125c0.428,0.529,0.826,1.084,1.192,1.661
				C49.432,48.79,48.446,48.932,47.476,49.083z M45.267,46.283c-0.393-0.407-0.811-0.803-1.256-1.185
				c1.141,0.11,2.224,0.152,3.311,0.099c0.38,0.332,0.74,0.684,1.084,1.05C47.376,46.353,46.271,46.573,45.267,46.283z
				 M41.674,43.223c-0.044-0.006-0.142-0.019-0.265-0.027c-0.383-0.237-0.778-0.467-1.189-0.688
				c-0.131-0.073-0.263-0.139-0.394-0.209c0.806,0.119,1.607,0.237,2.4,0.357c0.543,0.082,1.087,0.163,1.632,0.244
				c0.446,0.214,0.876,0.45,1.294,0.704C43.978,43.561,42.813,43.392,41.674,43.223z M38.472,79.155
				c2.805-0.271,5.575-0.584,8.347-1.262c0.35-0.086,0.536-0.227,0.611-0.387c12.5-7.772,10.866-28.837-1.758-35.39
				c-0.085-0.124-0.235-0.252-0.509-0.357c-0.195-0.076-0.435-0.135-0.712-0.175c-0.684-0.101-1.368-0.204-2.053-0.307
				c-1.437-0.217-2.9-0.435-4.372-0.634c11.382-5.295,20.293,9.524,20.51,19.294c0.093,4.124-0.919,8.493-2.537,12.249
				C53.507,77.968,44.395,84.008,38.472,79.155z M70.158,93.853c-4.641-2.021-8.012-3.532-10.216-4.549
				c0.494-0.908,0.597-1.437,1.04-2.364c3.348,1.564,6.678,3.219,10.084,4.652C70.69,92.54,70.535,92.909,70.158,93.853z
				 M79.91,68.983c-2.644,6.81-5.362,13.812-8.114,20.744c-3.563-1.512-7.059-3.192-10.568-4.824
				c-0.666-0.311-1.624,0.039-1.851,0.504c-0.112,0.04-0.202,0.098-0.249,0.179c-0.554,0.974-0.775,1.829-1.264,2.835
				c-4.428-2.059-8.551-4.004-12.891-6.083c2.342-0.17,4.311-0.893,6.479-2.108c6.623-3.726,8.793-11.32,9.41-18.369
				c1.141-13.017-11.982-29.707-25.455-22.029c-0.244,0.139-0.367,0.292-0.407,0.449c-0.381-0.041-0.761-0.087-1.14-0.122
				c-0.66-0.061-1.121,0.031-1.34,0.259c-6.067-0.045-11.848,3.476-15.784,8.679c-4.17,5.514-4.508,13.131-1.7,19.305
				c-2.209-1.013-4.418-2.041-6.572-3.045c-1.377-0.644-2.755-1.283-4.134-1.922c0.468-1.154,0.936-2.31,1.401-3.463l2.774,1.104
				l12.518-30.546l-1.583-0.713c-0.501-0.227-1.083-0.5-1.492-0.7c0.98-2.483,1.97-4.643,2.957-7.125
				c3.289,1.34,6.258,2.585,9.46,3.952c3.287,1.401,7.005,2.683,10.372,4.052L40.756,30c0.414,0.161,0.971,0.095,1.334-0.012
				c1.208-0.093,2.125-0.431,2.88-1.062c0.194-0.165,0.365-0.313,0.52-0.45c0.649-0.573,1.012-0.893,2.015-1.077
				c5.595,2.272,11.48,4.809,17.174,7.26c6.048,2.604,12.302,5.297,18.262,7.701c0.656,0.797,1.328,1.582,1.99,2.341
				c1.027,1.177,2.084,2.394,3.044,3.664C85.252,55.226,82.537,62.22,79.91,68.983z M90.243,47.745
				c-0.873-1.116-1.803-2.188-2.711-3.229c-0.562-0.644-1.131-1.306-1.692-1.975c0.961-0.033,1.922-0.068,2.883-0.106
				c0.982-0.04,1.968-0.075,2.953-0.109c1.374,1.615,2.822,3.162,4.277,4.701C94.24,47.336,92.378,47.571,90.243,47.745z
				 M79.54,92.51c-0.201,0.006-0.397,0.03-0.582,0.078c-0.692,0.178-1.346,0.025-2.087,0.268c-1.302,0.43-2.452,0.834-3.743,0.972
				c3.321-8.288,6.378-16.335,9.554-24.519c2.479-6.387,5.039-12.976,7.606-19.465c2.365-0.18,4.469-0.437,6.439-0.791
				C90.808,63.465,84.998,77.911,79.54,92.51z"/>
			<path fill="#231F20" d="M89.762,56.209c-3.846,9.657-7.689,19.318-11.533,28.978c-0.442,1.108,1.875,1.628,2.247,0.691
				c3.846-9.66,7.69-19.319,11.535-28.979C92.451,55.792,90.135,55.271,89.762,56.209z"/>
		</g>
	</g>
</g>
</svg>
