<?xml version="1.0" encoding="utf-8"?>
<!-- Generator: Adobe Illustrator 15.0.0, SVG Export Plug-In . SVG Version: 6.00 Build 0)  -->
<!DOCTYPE svg PUBLIC "-//W3C//DTD SVG 1.1//EN" "http://www.w3.org/Graphics/SVG/1.1/DTD/svg11.dtd">
<svg version="1.1" id="Ebene_1" xmlns="http://www.w3.org/2000/svg" xmlns:xlink="http://www.w3.org/1999/xlink" x="0px" y="0px"
	 width="140px" height="140px" viewBox="0 0 140 140" enable-background="new 0 0 140 140" xml:space="preserve">
<g>
	<path fill="#FFFFFF" d="M44.456,46.893l9.938-0.462l1.711,0.664l1.118-0.738l3.007,0.664l1.673,0.65l0.405,1.329l0.445,1.01
		l4.539,1.51l4.569-0.823l10.105,3.92l1.686-3.449l-1.841-1.299l-2.033-4.472l0.122-3.555l1.299-3.345l3.696-3.254l2.618-0.797
		l2.694,0.179l2.256,0.876l2.428,1.723l1.876,2.933l0.636,3.54l-0.505,3.097l-1.782,3.16l-2.04,2.167l-1.264,0.598l-1.905,0.237
		l-1.796,4.55c0,0,14.667,5.856,14.721,5.934c0.054,0.077,5.444,5.962,5.444,5.962l-5.749,14.821l-8.77,22.604l-7.516,1.645
		l-1.94-0.501L56.79,95.078l-1.861-0.514l-3.191-0.191l-2.659-0.697l-3.154-1.473l-2.9-2.34L41.425,87.4l-11.431-5.062l3.063-8.438
		l5.462-14.079l3.706-8.691L44.456,46.893z"/>
	<g>
		<path fill="#0D0D0D" d="M60.384,72.527c-0.054-0.058-0.137-0.107-0.244-0.151l-0.01-0.003c-0.017-0.053-0.055-0.107-0.114-0.162
			c-0.876-0.776-1.858-1.379-2.925-1.792c-3.86-1.499-8.188-0.292-10.771,2.999c-1.896,2.423-2.56,5.877-1.725,9.017
			c0.72,2.712,2.431,4.742,4.817,5.714l0.143,0.057c4.598,1.785,8.941-0.8,11.206-4.148C62.776,81.075,63.886,76.268,60.384,72.527z
			 M50.893,87.172L50.893,87.172c-2.701-1.047-4.414-4.174-4.532-7.029c-0.126-3.039,1.524-6.404,4.015-8.186
			c1.752-1.253,3.657-1.236,5.487-0.524c0.769,0.297,1.467,0.657,2.183,1.294c0.047,0.041,0.114,0.08,0.197,0.111h0.002
			c0.018,0.009,0.038,0.016,0.058,0.02c0.015,0.059,0.049,0.116,0.103,0.175c1.277,1.364,1.604,2.122,1.742,3.485
			c-0.456-0.457-0.521-0.516-1.162-0.893c-2.693-1.89-6.199-1.637-8.175,1.119c-2.085,2.913-0.76,6.146,2.194,7.707
			c1.65,0.869,3.003,1.117,4.516,0.379c-0.809,1.004-1.274,1.303-2.345,1.943C53.729,87.639,52.251,87.699,50.893,87.172z
			 M57.925,79.441c-0.037,0.883-0.509,1.725-1.142,2.043c-0.004,0.002-0.008,0.003-0.01,0.006c-0.212-0.113-0.367-0.291-0.489-0.453
			c-0.235-0.303-0.339-0.709-0.318-1.238c0.019-0.504,0.246-0.947,0.431-1.227c0.113-0.168,0.265-0.315,0.411-0.446
			c0.079-0.065,0.165-0.128,0.261-0.178c0.071-0.042,0.131-0.051,0.164-0.056v0.002C57.703,78.188,57.955,78.752,57.925,79.441z
			 M57.483,76.267c0.471,0.276,0.861,0.521,1.114,0.986c-0.022-0.011-0.041-0.022-0.066-0.034c-1.509-0.586-3.471-0.611-4.448,1.072
			c-0.415,0.715-0.503,1.506-0.249,2.23c0.266,0.759,0.89,1.377,1.711,1.694c0.034,0.015,0.069,0.026,0.104,0.038
			c0.807,0.283,1.305,0.525,2.155,0.246c-0.75,1.094-1.259,1.605-2.722,1.266C49.077,82.365,53.27,73.545,57.483,76.267z"/>
		<g>
			<path fill="#0D0D0D" d="M50.608,52.536c-0.672-0.261-1.428,0.05-1.685,0.693c-0.258,0.649,0.082,1.396,0.759,1.664l0.013,0.004
				c0.672,0.261,1.427-0.049,1.683-0.693C51.636,53.557,51.297,52.81,50.608,52.536z M49.875,54.437L49.875,54.437L49.875,54.437
				L49.875,54.437z"/>
			<path fill="#0D0D0D" d="M94.386,69.316c-0.339-0.131-0.876-0.188-1.258-0.005c-0.271,0.131-0.294,0.34-0.291,0.423
				c0,0.022,0.007,0.043,0.012,0.063c-0.59,1.551-1.082,2.87-1.696,4.422c-0.031,0.075-0.083,0.228-0.127,0.384
				c-0.031,0.075-0.029,0.226-0.027,0.268c0.02,0.336,0.411,0.518,0.528,0.564l3.113,1.238c0.363,0.143,0.898,0.193,1.274-0.01
				c0.267-0.145,0.283-0.359,0.28-0.444c-0.007-0.109-0.055-0.201-0.117-0.278c0.587-1.49,1.157-2.98,1.746-4.469
				c0.081-0.249,0.088-0.361,0.086-0.428c-0.011-0.303-0.255-0.395-0.449-0.472c-0.507-0.204-1.011-0.413-1.518-0.62
				C95.43,69.74,94.915,69.529,94.386,69.316z M94.776,75.301l-2.165-0.861c0.504-1.281,0.993-2.566,1.48-3.855
				c0.271,0.111,0.541,0.22,0.812,0.332c0.454,0.188,0.91,0.375,1.366,0.561C95.769,72.748,95.276,74.026,94.776,75.301z"/>
			<path fill="#0D0D0D" d="M84.877,83.737c-0.016-0.054-0.041-0.108-0.089-0.165c-1.066-1.2-2.727-1.54-4.093-0.621
				c-1.092,0.737-1.68,2.309-1.389,3.574c0.392,1.69,2.744,2.055,4.104,1.513c1.523-0.603,2.028-2.722,1.559-4.145
				C84.951,83.838,84.916,83.784,84.877,83.737z M82.58,86.684c-0.535,0.74-1.195,0.39-1.371-0.363
				c-0.173-0.738,0.226-1.578,0.653-2.152c0.449-0.604,0.701-0.732,1.16-0.215c0.005,0.004,0.011,0.006,0.015,0.011
				c0,0.004,0,0.009,0,0.013C83.342,84.889,83.138,85.912,82.58,86.684z"/>
			<path fill="#0D0D0D" d="M89.244,69.297c0.284-0.746,0.578-1.515,0.93-2.242c0.045-0.094,0.05-0.189,0.014-0.279
				c-0.007-0.021-0.021-0.041-0.031-0.061c-0.028-0.206-0.163-0.415-0.464-0.537c-1.23-0.494-2.472-1.025-3.671-1.539
				c-1.206-0.516-2.454-1.049-3.701-1.551c-0.441-0.171-0.85,0.06-0.974,0.375c-0.069,0.17-0.056,0.383,0.073,0.561
				c-0.218,0.619-0.469,1.233-0.715,1.83c-0.166,0.4-0.333,0.813-0.492,1.228c-0.152,0.042-0.276,0.116-0.328,0.241
				c-0.013,0.033-0.119,0.323,0.254,0.5c0.062,0.074,0.15,0.139,0.266,0.183l0,0c0.09,0.035,0.188,0.053,0.279,0.059
				c2.466,1.086,4.756,2.052,6.979,2.943l0.006,0.002c0.212,0.083,0.937,0.125,1.086-0.254c0.02-0.049,0.034-0.135,0.006-0.227
				C88.929,70.118,89.089,69.703,89.244,69.297z M87.866,68.829c-0.122,0.324-0.25,0.652-0.381,0.979
				c-1.971-0.8-3.492-1.491-5.727-2.477c0.146-0.369,0.24-0.735,0.387-1.093c0.21-0.513,0.381-1.031,0.577-1.564
				c0.993,0.408,1.769,0.742,2.733,1.155c1.082,0.462,1.98,0.834,3.096,1.287C88.304,67.684,88.082,68.264,87.866,68.829z"/>
			<path fill="#0D0D0D" d="M92.828,66.838c0.218-0.527-0.192-0.828-0.791-1.128c-3.618-1.736-7.36-3.181-11.087-4.66
				c-0.361-0.143-1.014-0.052-1.332,0.136c-0.136,0.04-0.239,0.108-0.28,0.212c-0.858,2.172-1.5,4.006-2.357,6.178
				c-0.029,0.076-0.107,0.388-0.082,0.618c0.088,0.306,0.236,0.509,0.674,0.687c3.835,1.544,7.472,3.598,11.421,4.821
				c0.541,0.169,0.773,0.165,1.155-0.064c0.188-0.137,0.37-0.588,0.424-0.748C91.275,70.787,91.976,68.881,92.828,66.838z
				 M78.914,67.848c0.729-1.86,1.42-3.733,2.146-5.594c3.323,1.315,6.643,2.629,9.865,4.173c-0.763,1.852-1.471,3.723-2.113,5.621
				C85.498,70.685,82.23,69.205,78.914,67.848z"/>
			<path fill="#0D0D0D" d="M75.852,58.964c0.123-0.149,0.06-0.331-0.373-0.506c-2.616-1.056-5.179-2.247-7.798-3.303
				c-0.147-0.061-0.341-0.079-0.539-0.068c-0.516-0.115-1.148-0.072-1.281,0.279c-0.503,1.331-1.066,2.638-1.596,3.958
				c-0.044,0.111,0.028,0.215,0.16,0.305c-0.087,0.142-0.004,0.311,0.396,0.472c2.725,1.094,5.384,2.354,8.126,3.401
				c0.538,0.206,1.657-0.102,1.51-0.467c0.518-1.293,1.057-2.577,1.573-3.869C76.057,59.103,75.98,59.031,75.852,58.964z
				 M67.357,59.935c-0.365-0.154-0.732-0.306-1.101-0.455c0.427-1.059,0.87-2.109,1.289-3.169c0.417,0.173,0.834,0.344,1.248,0.523
				C67.801,57.462,67.22,58.732,67.357,59.935z M71.429,60.219c-0.275,0.605-0.677,0.977-1.074,0.993
				c-0.006,0-0.011,0.002-0.018,0.002c-0.519-0.223-1.036-0.448-1.556-0.67c-0.004-0.011-0.004-0.02-0.007-0.029
				c-0.396-1.054,0.067-2.693,1.168-3.187c0.486,0.212,0.974,0.421,1.464,0.631c0.006,0.06,0.029,0.126,0.09,0.201
				C71.812,58.557,71.782,59.442,71.429,60.219z M72.728,62.22c-0.383-0.156-0.766-0.313-1.146-0.475
				c0.476-0.303,0.892-0.787,1.168-1.393c0.272-0.594,0.354-1.189,0.256-1.712c0.336,0.142,0.671,0.282,1.011,0.42
				C73.59,60.116,73.155,61.167,72.728,62.22z"/>
			<path fill="#0D0D0D" d="M109.432,69.597c0.038-0.092-0.01-0.18-0.105-0.259c0.022-0.354-0.329-0.764-0.825-0.956
				c-0.023-0.01-0.047-0.015-0.072-0.022c-1.37-1.451-2.742-2.898-4.02-4.428c-0.044-0.054-0.104-0.098-0.168-0.137
				c-0.072-0.137-0.192-0.269-0.346-0.374c-0.008-0.141-0.128-0.312-0.521-0.47c-4.84-1.944-9.706-4.035-14.429-6.068
				c0.082-0.176,0.161-0.352,0.239-0.525c0.414-0.903,0.808-1.764,1.097-2.72c0.021-0.076-0.054-0.151-0.185-0.221
				c2.334,0.039,4.449-0.916,6.313-3.767c3.425-5.238,1.941-11.513-3.433-14.546c-3.864-2.183-8.652-1.258-11.616,1.902
				c-3.8,4.054-3.621,11.77,1.686,14.381c0.008,0.013,0.019,0.026,0.034,0.041l-1.075,2.48c-2.867-1.22-5.755-2.431-8.641-3.59
				c-0.08-0.031-0.178-0.052-0.288-0.064c-0.062-0.04-0.132-0.077-0.213-0.108c-0.293-0.115-0.641-0.143-0.848-0.134
				c-1.583,0.075-3.284,0.277-5.202,0.622c-0.053,0.01-0.11,0.023-0.169,0.038c-1.003-0.346-2.06-0.735-3.204-1.179
				c-0.097-0.038-0.193-0.076-0.289-0.113c0.106-0.52-0.073-1.25-1.363-1.985c-0.028-0.017-0.058-0.03-0.087-0.041l-0.025-0.008
				l-0.179-0.09c-0.606-0.304-1.235-0.618-1.896-0.873c-0.852-0.331-1.593-0.496-2.267-0.504c-0.637-0.007-1.108,0.198-1.342,0.568
				c-0.578-0.238-1.157-0.478-1.738-0.709c-0.297-0.116-0.819-0.101-1.134-0.03c-1.225,0.066-2.471,0.098-3.676,0.129
				c-1.627,0.042-3.306,0.084-4.958,0.212c-0.01,0.001-0.018,0.002-0.03,0.003c-0.564-0.107-1.409,0.118-1.529,0.508
				c-0.012,0.038-0.017,0.079-0.016,0.121c-0.004,0.013-0.014,0.022-0.019,0.036c-4.688,11.782-9.229,23.574-14.012,35.315
				c-0.156,0.383,0.107,0.676,0.48,0.83c0.079,0.072,0.189,0.148,0.349,0.223c1.166,0.537,2.329,1.081,3.492,1.623
				c2.351,1.095,4.782,2.227,7.186,3.312l0.044,0.019l0,0c0.111,0.044,0.242,0.069,0.382,0.079c1.134,1.793,2.626,3.363,4.456,4.539
				c3.569,2.297,7.042,2.978,10.176,2.521c1.574,0.752,3.15,1.507,4.727,2.262c8.06,3.863,16.393,7.856,24.729,11.438l0.019,0.01
				c0.142,0.055,0.969,0.17,1.53,0.065c1.94,0.153,3.835-0.417,5.669-0.974c0.601-0.18,1.22-0.367,1.817-0.521
				c0.286-0.073,0.473-0.25,0.519-0.476c0.136-0.054,0.239-0.137,0.283-0.256C99.399,94.25,104.369,81.912,109.432,69.597z
				 M90.371,51.458c-0.498,0.052-1.149-0.073-1.944-0.382c-1.795-0.695-3.141-1.904-3.496-2.169
				c-0.316-0.237-0.418-0.312-0.621-0.622c2.493,1.01,3.976,1.888,6.47,2.893C90.551,51.351,90.633,51.312,90.371,51.458z
				 M86.087,44.17c0.766,0.296,1.623,0.624,2.379,0.899c0.753,0.275,1.512,0.583,2.271,0.879c1.191,0.463,2.082,0.805,2.956,1.243
				c-0.142,0.392-0.15,0.574-0.332,0.938c-1.233-0.463-2.504-0.886-3.74-1.295c-1.431-0.476-2.912-0.966-4.325-1.515
				c-0.815-0.316-1.418-0.574-2.12-0.905c-0.024-0.008-0.071-0.02-0.129-0.03c0.029-0.427,0.08-0.793,0.128-1.071
				c0.035-0.205,0.049-0.123,0.105-0.321C84.147,43.423,84.91,43.714,86.087,44.17z M83.837,41.814
				c0.202-0.423,0.334-0.73,0.6-1.115c3.325,1.565,6.594,2.814,9.921,4.371c-0.076,0.436-0.098,0.562-0.213,0.983
				c-0.646-0.293-1.353-0.588-2.151-0.899c-0.763-0.296-1.544-0.581-2.3-0.856c-0.754-0.274-1.534-0.56-2.294-0.855
				C85.833,42.837,84.918,42.406,83.837,41.814z M83.947,46.035c1.422,0.55,2.901,1.042,4.333,1.517
				c1.425,0.473,2.898,0.962,4.307,1.509c0.067,0.026,0.138,0.054,0.206,0.081c-0.284,0.47-0.473,0.687-0.899,1.134
				c-2.829-1.14-5.505-2.284-8.336-3.417c-0.088-0.035-0.193-0.05-0.297-0.052c-0.14-0.493-0.197-0.67-0.215-1.158
				C83.428,45.812,83.523,45.87,83.947,46.035z M93.39,50.855c-0.809,1.047-1.753,1.552-2.76,1.715
				c0.334-0.155,0.662-0.334,0.974-0.543c0.144-0.064,0.28-0.138,0.413-0.227c0.085-0.058,0.115-0.12,0.125-0.174
				c0.856-0.689,1.602-1.587,2.206-2.681c0.095-0.031,0.165-0.073,0.189-0.136c0.026-0.067,0.016-0.127-0.028-0.184
				c0.215-0.422,0.408-0.86,0.574-1.314c0.178-0.006,0.349-0.029,0.47-0.08C95.012,48.541,94.233,49.763,93.39,50.855z
				 M96.257,44.645c-0.092,0.761-0.29,1.505-0.559,2.226c-0.04-0.052-0.104-0.104-0.204-0.158c-0.059-0.031-0.117-0.061-0.178-0.091
				c0.611-2.005,0.769-4.215,0.473-6.244C96.261,41.744,96.428,43.218,96.257,44.645z M94.568,43.748
				c-3.193-1.432-6.266-2.482-9.424-3.991c0.289-0.349,0.398-0.409,0.686-0.707c1.467,0.657,2.835,1.2,4.286,1.821
				c1.466,0.629,2.953,1.307,4.433,1.971C94.544,43.23,94.604,43.358,94.568,43.748z M94.619,41.689
				c-1.263-0.559-2.539-1.108-3.782-1.641c-1.458-0.624-2.7-1.145-4.192-1.812c0.301-0.282,0.63-0.469,0.942-0.643
				c1.424,0.747,2.634,1.197,4.044,1.743c0.407,0.158,0.816,0.314,1.224,0.47c0.553,0.21,1.099,0.421,1.646,0.637
				C94.561,40.85,94.601,41.267,94.619,41.689z M93.912,38.137c0.168,0.435,0.25,0.672,0.359,1.148
				c-0.279-0.106-0.559-0.213-0.839-0.32c-0.441-0.167-0.71-0.301-1.152-0.473c-1.174-0.456-2.104-0.758-3.386-1.415
				c1.564-0.358,2.665,0.193,4.268,0.789C93.414,37.96,93.663,38.047,93.912,38.137z M91.53,35.446
				c0.657,0.312,1.252,0.711,1.778,1.173c-0.031,0.112-0.018,0.238,0.056,0.361c0.024,0.044,0.048,0.093,0.072,0.138
				c-0.121-0.051-0.242-0.102-0.361-0.153c-0.371-0.159-0.732-0.313-1.091-0.453c-1.552-0.602-2.944-0.872-4.711-0.244
				c-2.178,0.775-3.995,3.043-4.975,5.367c-0.109,0.035-0.193,0.085-0.228,0.158c-0.033,0.068-0.037,0.163,0.059,0.266
				c-0.228,0.608-0.399,1.215-0.501,1.794c-0.668,3.795,2.111,5.72,4.914,7.1l0.238,0.119c0.489,0.243,1.045,0.518,1.623,0.742
				c0.19,0.075,0.377,0.139,0.558,0.196c-0.394,0.097-0.807,0.163-1.258,0.182c-0.089,0.003-0.163,0.02-0.225,0.043
				c-0.844-0.254-1.682-0.594-2.481-0.923c-0.037-0.034-0.092-0.07-0.183-0.11c-0.146-0.063-0.286-0.13-0.423-0.2
				c-0.062-0.132-0.168-0.242-0.312-0.305c-0.098-0.044-0.202-0.058-0.299-0.05C76.648,46.044,82.893,31.332,91.53,35.446z
				 M85.315,52.577l2.314,0.799c0,0.229,0.028,0.315-0.115,0.458l-1.289,3.25l-3.139-1.408l1.458-3.385
				C84.547,52.288,85.195,52.618,85.315,52.577z M72.662,51.578c0.053,0.028,0.112,0.056,0.184,0.084
				c3.101,1.247,5.505,2.316,8.585,3.63l-0.165,0.325c-0.065,0.151-0.069,0.324-0.009,0.477c0.062,0.154,0.18,0.279,0.332,0.343
				l4.738,2.052c0.008,0.003,0.015,0.006,0.021,0.009c0.152,0.058,0.318,0.056,0.469-0.007c0.098-0.042,0.18-0.108,0.244-0.191
				c0.414,0.084,0.856,0.095,1.026-0.075c0.053-0.054,0.063-0.02,0.114-0.079c4.049,1.744,7.978,3.372,12.122,5.06
				c-0.167,0.006-0.808,0.058-0.976,0.064c-1.18,0.046-1.627,0.102-2.808,0.135c-4.91-1.977-9.843-4.13-14.614-6.213
				c-4.289-1.873-8.011-3.568-12.424-5.373C70.503,51.655,71.549,51.651,72.662,51.578z M57.327,46.9
				c0.422-0.037,0.905,0.136,1.332,0.287l0.209,0.073c0.141,0.047,0.279,0.099,0.418,0.152c0.602,0.234,1.188,0.516,1.73,0.787
				c0.016,0.007,0.034,0.014,0.064,0.026c0.383,0.227,0.802,0.771,0.738,0.962c-0.021,0.063-0.157,0.118-0.478,0.082
				c-0.419-0.049-0.842-0.209-1.251-0.365l-0.427-0.163c-0.835-0.323-1.451-0.623-2-0.969c-0.256-0.163-0.639-0.595-0.598-0.769
				C57.079,46.953,57.177,46.915,57.327,46.9z M56.289,48.87c0.06-0.148,0.122-0.293,0.186-0.438
				c0.02-0.046,0.038-0.094,0.059-0.141c0.056,0.049,0.115,0.099,0.179,0.143c0.693,0.493,1.522,0.932,2.399,1.271
				c0.796,0.309,1.591,0.515,2.306,0.602c-0.045,0.095-0.092,0.192-0.139,0.29c-0.086,0.179-0.172,0.364-0.252,0.55
				c-0.367,0.169-1.268,0.035-2.264-0.353c-1.451-0.563-2.486-1.367-2.483-1.91C56.28,48.879,56.286,48.875,56.289,48.87z
				 M49.843,47.365c1.347-0.034,1.334-0.018,2.706-0.103c0.004,0,1.414-0.051,1.419-0.051l0.154,0.05l0.013-0.024
				c0.418,0.172,0.83,0.348,1.243,0.524c-0.041,0.101-0.084,0.201-0.127,0.3c-0.051,0.12-0.104,0.241-0.152,0.362
				c-0.054,0.062-0.091,0.137-0.106,0.22c-0.262,1.427,1.646,2.274,2.673,2.729l0.153,0.068c0.275,0.122,0.588,0.259,0.928,0.391
				c0.929,0.361,2.268,0.765,3.171,0.117c0.022-0.017,0.043-0.035,0.062-0.051c0.09-0.048,0.158-0.115,0.191-0.202
				c0.098-0.253,0.22-0.505,0.335-0.748c0.022-0.049,0.047-0.101,0.07-0.15c0.027,0.011,0.056,0.022,0.082,0.033
				c0.546,0.211,1.062,0.404,1.571,0.586c-0.239,0.101-0.374,0.22-0.587,0.407c-0.077,0.067-0.163,0.143-0.271,0.234
				c-0.137,0.112-0.266,0.226-0.392,0.338c-0.423,0.377-0.79,0.704-1.286,0.854c-2.613-1.07-5.254-2.194-7.81-3.283
				c-1.974-0.841-4.008-1.708-6.026-2.547C48.523,47.397,49.191,47.381,49.843,47.365z M47.641,92.327
				c-9.437-4.697-8.673-16.429-3.272-23.116c1.134-1.352,2.463-2.524,3.937-3.417c3.168-1.812,7.027-2.118,11.089,0.162
				C74.635,74.138,64.022,100.48,47.641,92.327z M62.814,91.6c0.445-0.402,0.868-0.832,1.271-1.283
				c0.223,0.025,0.438,0.029,0.61,0.027c0.582-0.01,1.172-0.041,1.743-0.072c0.496-0.024,1.004-0.05,1.512-0.064
				c-0.358,0.432-0.742,0.846-1.155,1.23c-0.221-0.073-0.463-0.099-0.641-0.088C65.04,91.416,63.925,91.48,62.814,91.6z
				 M65.497,92.494c-0.129,0.092-0.26,0.182-0.395,0.27c-1.679,0.409-3.358,0.644-5.051,0.826c0.43-0.242,0.847-0.502,1.253-0.787
				c0.263,0.074,0.554,0.08,0.797,0.04C63.224,92.648,64.36,92.564,65.497,92.494z M65.644,89.363
				c-0.261,0.013-0.526,0.023-0.792,0.035c0.438-0.562,0.846-1.152,1.22-1.766c0.033,0.006,0.069,0.011,0.102,0.014
				c1.158,0.107,2.32,0.093,3.479-0.003c-0.301,0.577-0.637,1.136-1.011,1.667c-0.116-0.014-0.23-0.02-0.327-0.021
				C67.42,89.276,66.517,89.32,65.644,89.363z M69.889,86.385c-1.057,0.115-2.118,0.166-3.177,0.098
				c0.33-0.644,0.626-1.309,0.882-1.99c0.983,0.131,2.049,0.127,3.297-0.013c-0.183,0.655-0.402,1.293-0.66,1.917
				C70.107,86.38,69.991,86.373,69.889,86.385z M70.673,82.967c-0.946,0.135-1.806,0.164-2.604,0.09
				c0.289-1.008,0.49-2.041,0.598-3.08c0.956,0.057,1.943,0.034,2.886-0.15c-0.016,1.053-0.121,2.103-0.311,3.13
				C71.015,82.934,70.806,82.947,70.673,82.967z M71.09,78.528c-0.747,0.187-1.56,0.217-2.337,0.173
				c0.026-0.851,0.002-1.357-0.107-2.199c0.868,0.038,1.75-0.033,2.637-0.064c0.146,0.796,0.2,1.242,0.244,2.055
				C71.377,78.483,71.226,78.494,71.09,78.528z M70.938,75.156c-0.792,0.023-1.648,0.207-2.45,0.128
				c-0.07-0.377-0.155-0.753-0.253-1.124c0.806,0.012,1.62-0.115,2.442-0.069c0.026,0,0.055,0.002,0.084,0.002
				c0.107,0.351,0.202,0.706,0.287,1.063C71.01,75.156,70.972,75.155,70.938,75.156z M67.852,72.961
				c-0.169-0.463-0.361-0.917-0.581-1.365c0.747-0.119,1.505-0.208,2.243-0.071c0.075,0.015,0.158,0.015,0.246,0.009
				c0.221,0.449,0.417,0.909,0.599,1.379C69.533,72.939,68.641,73.107,67.852,72.961z M66.51,70.255
				c-0.32-0.504-0.676-0.997-1.068-1.473c0.826,0.042,1.66-0.025,2.503-0.103c0.353,0.437,0.681,0.894,0.983,1.37
				C68.124,70.013,67.311,70.13,66.51,70.255z M64.688,67.946c-0.323-0.334-0.668-0.662-1.034-0.976
				c0.94,0.09,1.834,0.125,2.729,0.082c0.314,0.273,0.611,0.564,0.894,0.866C66.429,68.004,65.518,68.186,64.688,67.946z
				 M61.728,65.424c-0.037-0.004-0.117-0.015-0.219-0.022c-0.315-0.195-0.641-0.385-0.98-0.567c-0.108-0.06-0.216-0.115-0.324-0.172
				c0.665,0.098,1.324,0.195,1.979,0.294c0.447,0.068,0.896,0.135,1.346,0.201c0.367,0.176,0.721,0.372,1.066,0.581
				C63.626,65.703,62.667,65.563,61.728,65.424z M59.088,95.045c2.312-0.222,4.596-0.48,6.881-1.04
				c0.288-0.07,0.441-0.187,0.505-0.318c10.304-6.407,8.957-23.773-1.45-29.176c-0.07-0.102-0.194-0.208-0.419-0.293
				c-0.161-0.063-0.359-0.112-0.587-0.145c-0.564-0.083-1.129-0.168-1.694-0.253c-1.184-0.179-2.39-0.358-3.603-0.522
				c9.383-4.365,16.728,7.852,16.908,15.906c0.076,3.398-0.758,7.001-2.092,10.098C71.482,94.068,63.972,99.047,59.088,95.045z
				 M85.21,107.164c-3.825-1.667-6.604-2.913-8.423-3.75c0.407-0.75,0.493-1.186,0.858-1.951c2.76,1.29,5.505,2.654,8.312,3.836
				C85.647,106.08,85.521,106.385,85.21,107.164z M93.249,86.66c-2.18,5.614-4.421,11.387-6.689,17.102
				c-2.938-1.246-5.819-2.631-8.712-3.979c-0.549-0.255-1.339,0.033-1.525,0.416c-0.092,0.033-0.167,0.082-0.206,0.148
				c-0.456,0.803-0.638,1.508-1.042,2.337c-3.651-1.698-7.049-3.3-10.627-5.015c1.931-0.141,3.554-0.735,5.341-1.737
				c5.461-3.072,7.25-9.332,7.758-15.144c0.94-10.731-9.878-24.491-20.984-18.161c-0.201,0.115-0.304,0.241-0.336,0.37
				c-0.314-0.034-0.627-0.071-0.939-0.1c-0.544-0.05-0.924,0.025-1.105,0.213c-5.001-0.037-9.768,2.866-13.012,7.155
				c-3.438,4.546-3.717,10.825-1.401,15.915c-1.821-0.836-3.643-1.683-5.418-2.511c-1.136-0.53-2.271-1.058-3.408-1.584
				c0.386-0.952,0.772-1.905,1.155-2.854l2.286,0.91l10.319-25.183l-1.305-0.588c-0.413-0.187-0.893-0.412-1.229-0.577
				c0.809-2.047,1.624-3.828,2.438-5.874c2.711,1.104,5.158,2.131,7.798,3.257c2.71,1.156,5.775,2.212,8.551,3.341l0.016,0.003
				c0.341,0.133,0.801,0.079,1.1-0.01c0.996-0.077,1.752-0.355,2.375-0.875c0.16-0.136,0.3-0.258,0.427-0.371
				c0.537-0.473,0.836-0.736,1.662-0.888c4.612,1.873,9.464,3.965,14.159,5.985c4.984,2.147,10.141,4.367,15.055,6.348
				c0.541,0.657,1.095,1.305,1.641,1.931c0.847,0.97,1.718,1.973,2.509,3.02C97.653,75.32,95.415,81.086,93.249,86.66z
				 M101.768,69.152c-0.72-0.92-1.487-1.804-2.235-2.662c-0.463-0.531-0.933-1.077-1.395-1.628c0.792-0.027,1.585-0.056,2.377-0.087
				c0.81-0.033,1.622-0.062,2.435-0.09c1.133,1.331,2.326,2.606,3.525,3.875C105.063,68.814,103.527,69.008,101.768,69.152z
				 M92.943,106.056c-0.165,0.005-0.327,0.024-0.479,0.064c-0.57,0.146-1.11,0.021-1.72,0.22c-1.074,0.355-2.021,0.688-3.086,0.803
				c2.737-6.833,5.258-13.467,7.876-20.214c2.044-5.265,4.154-10.696,6.271-16.046c1.949-0.148,3.685-0.361,5.308-0.653
				C102.234,82.111,97.443,94.021,92.943,106.056z"/>
			<path fill="#0D0D0D" d="M101.371,76.129c-3.17,7.961-6.34,15.927-9.509,23.891c-0.363,0.912,1.546,1.341,1.854,0.568
				c3.171-7.963,6.34-15.926,9.51-23.891C103.588,75.785,101.679,75.356,101.371,76.129z"/>
		</g>
	</g>
</g>
</svg>
