<?xml version="1.0" encoding="utf-8"?>
<!-- Generator: Adobe Illustrator 15.0.0, SVG Export Plug-In . SVG Version: 6.00 Build 0)  -->
<!DOCTYPE svg PUBLIC "-//W3C//DTD SVG 1.1//EN" "http://www.w3.org/Graphics/SVG/1.1/DTD/svg11.dtd">
<svg version="1.1" id="Ebene_1" xmlns="http://www.w3.org/2000/svg" xmlns:xlink="http://www.w3.org/1999/xlink" x="0px" y="0px"
	 width="40px" height="40px" viewBox="0 0 40 40" enable-background="new 0 0 40 40" xml:space="preserve">
<g>
	<polygon fill="#FFFFFF" points="2.927,15.749 7.358,13.558 30.396,0.964 31.948,3.027 7.114,16.556 34.224,10.938 34.616,12.935 
		34.102,13.497 2.787,19.99 2.446,19.307 1.727,17.938 2.212,16.46 	"/>
	<g>
		<path fill="#161214" d="M30.872,0.83c-0.02-0.023-0.043-0.04-0.068-0.055c-0.079-0.152-0.286-0.233-0.553-0.089
			C21.305,5.539,12.434,10.53,3.442,15.297c-0.06,0.031-0.106,0.069-0.146,0.105c-0.454,0.1-0.878,0.337-1.251,0.768
			c-0.751,0.872-0.801,3,0.397,3.487C2.35,19.724,2.289,19.796,2.3,19.864c1.076,6.517,2.574,12.969,3.84,19.451
			c0.022,0.11,0.77-0.13,0.875-0.362l30.597-5.878c0.237,0.292,0.951,0.006,0.876-0.391c-1.258-6.461-2.563-12.911-3.767-19.383
			c0.022-0.014,0.044-0.028,0.064-0.045c0.178-0.093,0.316-0.238,0.29-0.38c-0.114-0.595-0.22-1.191-0.346-1.784
			c0.164-0.252,0.14-0.749-0.354-0.649c-8.554,1.705-16.345,3.454-24.825,5.172c3.386-1.686,6.604-3.475,9.99-5.309
			c4.173-2.261,8.745-4.454,12.724-7.049c0.229-0.147,0.24-0.302,0.152-0.414c0-0.042-0.012-0.083-0.041-0.123
			C31.905,2.067,31.377,1.459,30.872,0.83z M7.386,18.486l-1.438,0.282c-0.518,0.083-1.038,0.157-1.555,0.249
			c-1.273,0.227-1.984,0.09-2.076-1.24c-0.188-2.7,3.125-1.336,4.304-0.724c0.403,0.268,0.844,0.679,1.133,1.077
			C7.863,18.281,7.657,18.398,7.386,18.486z M4.507,15.528c0.534-0.284,1.218-0.652,1.751-0.938
			c-0.057,0.468-0.026,1.096-0.037,1.567C5.731,15.926,5.019,15.645,4.507,15.528z M7.169,14.102
			c0.307-0.165,0.614-0.331,0.922-0.498c-0.085,0.669-0.038,1.4-0.06,2.077c-0.31,0.15-0.642,0.329-0.953,0.476
			C7.097,15.497,7.076,14.755,7.169,14.102z M34.015,11.261c0.106,0.498,0.19,1.064,0.285,1.562
			c-0.074,0.028-0.343,0.123-0.402,0.171c-8.32,1.872-16.773,3.338-25.159,4.9c-0.103-0.422-0.826-0.958-1.214-1.217l0.736-0.076
			C17.015,14.845,25.28,13.015,34.015,11.261z M8.885,15.185c0.021-0.695,0.014-1.386,0.118-2.073
			c0.381-0.206,0.763-0.412,1.144-0.619c-0.102,0.703-0.093,1.408-0.115,2.118C9.651,14.806,9.267,14.994,8.885,15.185z
			 M10.927,14.15c0.02-0.722,0.018-1.44,0.137-2.155c0.369-0.202,0.738-0.402,1.107-0.604c-0.106,0.72-0.094,1.442-0.118,2.172
			C11.678,13.761,11.303,13.956,10.927,14.15z M12.95,13.09c0.021-0.738,0.016-1.47,0.141-2.199c0.359-0.197,0.72-0.393,1.08-0.59
			c-0.12,0.732-0.112,1.467-0.135,2.207C13.674,12.702,13.312,12.898,12.95,13.09z M14.932,12.025
			c0.019-0.749,0.017-1.49,0.158-2.229c0.326-0.178,0.652-0.356,0.978-0.536c-0.117,0.735-0.108,1.474-0.131,2.218
			C15.602,11.661,15.267,11.842,14.932,12.025z M16.833,10.99c0.019-0.751,0.017-1.494,0.155-2.235
			c0.329-0.181,0.658-0.361,0.985-0.542c-0.108,0.736-0.094,1.475-0.12,2.22C17.513,10.619,17.173,10.804,16.833,10.99z
			 M19.789,9.383c-0.123,0.064-0.244,0.13-0.366,0.195c-0.225,0.122-0.448,0.245-0.673,0.367c0.022-0.751,0.016-1.497,0.144-2.238
			c0.334-0.185,0.668-0.368,1.001-0.551c-0.104,0.727-0.09,1.457-0.116,2.191C19.779,9.361,19.783,9.373,19.789,9.383z
			 M21.621,8.408c-0.315,0.167-0.631,0.334-0.946,0.501c0.024-0.757,0.015-1.509,0.137-2.257c0.303-0.167,0.606-0.333,0.909-0.5
			c-0.105,0.733-0.093,1.469-0.117,2.212C21.602,8.383,21.611,8.397,21.621,8.408z M23.708,7.313
			c-0.404,0.211-0.809,0.423-1.21,0.635c0.023-0.773,0.013-1.538,0.141-2.301c0.392-0.214,0.783-0.429,1.174-0.644
			c-0.115,0.75-0.099,1.504-0.126,2.264C23.687,7.287,23.694,7.302,23.708,7.313z M24.58,6.852c0.026-0.79,0.014-1.573,0.152-2.354
			c0.371-0.203,0.743-0.406,1.115-0.61c-0.109,0.738-0.094,1.481-0.12,2.229c-0.001,0.045,0.037,0.067,0.099,0.071
			C25.413,6.411,24.996,6.631,24.58,6.852z M26.62,5.757c0.026-0.797,0.012-1.586,0.147-2.374C27.119,3.192,27.472,3,27.821,2.808
			c-0.113,0.751-0.098,1.506-0.126,2.266c-0.001,0.032,0.018,0.051,0.048,0.062C27.372,5.344,26.996,5.551,26.62,5.757z
			 M28.591,4.654c0.026-0.787,0.012-1.57,0.151-2.348c0.327-0.179,0.652-0.356,0.98-0.535c-0.124,0.762-0.11,1.528-0.137,2.299
			C29.256,4.268,28.924,4.462,28.591,4.654z M30.483,3.526c0.014-0.524,0.027-1.403,0.076-1.921
			c0.274,0.334,0.756,0.934,1.016,1.282C31.287,3.071,30.777,3.346,30.483,3.526z"/>
		<circle fill="#161214" cx="4.417" cy="17.485" r="0.649"/>
		<path fill="#FFFFFF" d="M3.4,23.043c10.293-1.874,20.549-3.896,30.819-5.898c0.182-0.037,0.941-0.76,0.49-0.672
			c-10.269,2.002-20.405,4.024-30.698,5.898C3.825,22.404,2.948,23.127,3.4,23.043"/>
		<path fill="#FFFFFF" d="M13.218,21.331c0.435,2.046,0.8,4.104,1.155,6.166c0.068,0.391,0.968,0.011,0.914-0.3
			c-0.363-2.105-0.737-4.21-1.181-6.299C14.043,20.604,13.141,20.969,13.218,21.331"/>
		<path fill="#FFFFFF" d="M25.338,18.936c0.529,2.051,0.79,4.186,1.256,6.257c0.05,0.222,0.959-0.127,0.888-0.433
			c-0.467-2.073-0.726-4.205-1.255-6.257C26.166,18.275,25.258,18.635,25.338,18.936"/>
		<path fill="#FFFFFF" d="M4.691,29.682c10.348-2.011,20.688-4.059,31.036-6.068c0.195-0.037,0.958-0.771,0.5-0.682
			c-10.349,2.01-20.536,4.008-30.884,6.017C5.149,28.989,4.232,29.772,4.691,29.682"/>
		<path fill="#FFFFFF" d="M24.566,25.984c0.298,1.327,0.594,2.651,0.837,3.986c0.07,0.383,0.968-0.003,0.914-0.304
			c-0.252-1.378-0.556-2.747-0.862-4.114C25.39,25.266,24.487,25.63,24.566,25.984"/>
		<path fill="#FFFFFF" d="M5.544,31.999c6.562-1.275,13.117-2.579,19.678-3.863c0.548-0.107,0.568-0.859-0.067-0.734
			c-6.56,1.283-12.591,2.461-19.153,3.736C5.455,31.244,4.91,32.122,5.544,31.999"/>
		<path fill="#FFFFFF" d="M6.135,34.398c10.212-1.985,20.392-4.146,30.616-6.071c0.548-0.102,0.573-0.85-0.062-0.729
			c-10.224,1.925-19.912,3.997-30.124,5.983C6.019,33.687,5.501,34.521,6.135,34.398"/>
		<path fill="#FFFFFF" d="M6.487,37.112c10.244-2.105,20.529-4.029,30.755-6.225c0.521-0.112,0.596-0.814-0.039-0.677
			C26.978,32.405,17.272,34.2,7.029,36.307C6.505,36.414,5.851,37.243,6.487,37.112"/>
		<path fill="#231F20" d="M6.318,39.38c10.479-2.03,20.975-3.942,31.422-6.128c0.177-0.038,0.989-0.561,0.55-0.47
			c-10.449,2.186-20.945,4.099-31.423,6.128C6.69,38.944,5.875,39.467,6.318,39.38"/>
	</g>
</g>
</svg>
