<?xml version="1.0" encoding="utf-8"?>
<!-- Generator: Adobe Illustrator 15.0.0, SVG Export Plug-In . SVG Version: 6.00 Build 0)  -->
<!DOCTYPE svg PUBLIC "-//W3C//DTD SVG 1.1//EN" "http://www.w3.org/Graphics/SVG/1.1/DTD/svg11.dtd">
<svg version="1.1" id="Ebene_1" xmlns="http://www.w3.org/2000/svg" xmlns:xlink="http://www.w3.org/1999/xlink" x="0px" y="0px"
	 width="140px" height="140px" viewBox="0 0 140 140" enable-background="new 0 0 140 140" xml:space="preserve">
<g>
	<polygon fill="#FFFFFF" points="26.538,58.834 37.879,53.226 96.85,20.989 100.819,26.27 37.254,60.899 106.647,46.519 
		107.65,51.631 106.333,53.068 26.179,69.688 25.306,67.941 23.466,64.437 24.707,60.652 	"/>
	<g>
		<path d="M98.067,20.646c-0.053-0.059-0.11-0.103-0.174-0.141c-0.204-0.389-0.734-0.597-1.416-0.228
			C73.578,32.7,50.872,45.474,27.855,57.676c-0.154,0.08-0.271,0.176-0.374,0.27c-1.163,0.256-2.247,0.861-3.202,1.965
			c-1.922,2.232-2.05,7.68,1.016,8.926c-0.235,0.172-0.391,0.356-0.364,0.529c2.755,16.682,6.589,33.197,9.83,49.787
			c0.056,0.285,1.971-0.33,2.24-0.925l78.315-15.048c0.609,0.75,2.434,0.018,2.244-1c-3.22-16.537-6.562-33.047-9.645-49.611
			c0.059-0.037,0.115-0.072,0.166-0.117c0.455-0.236,0.81-0.608,0.742-0.972c-0.293-1.524-0.562-3.048-0.887-4.566
			c0.42-0.646,0.359-1.917-0.906-1.662c-21.896,4.365-41.837,8.841-63.543,13.239c8.667-4.314,16.904-8.895,25.571-13.588
			c10.682-5.788,22.385-11.401,32.568-18.044c0.587-0.376,0.614-0.772,0.39-1.059c0-0.107-0.029-0.212-0.105-0.315
			C100.708,23.812,99.359,22.256,98.067,20.646z M37.952,65.839l-3.683,0.722c-1.324,0.213-2.655,0.402-3.979,0.639
			c-3.258,0.58-5.078,0.229-5.314-3.176c-0.481-6.91,7.999-3.419,11.017-1.852c1.031,0.685,2.16,1.736,2.9,2.756
			C39.171,65.313,38.644,65.613,37.952,65.839z M30.581,58.268c1.368-0.727,3.118-1.668,4.482-2.401
			c-0.145,1.198-0.066,2.806-0.094,4.011C33.714,59.287,31.892,58.566,30.581,58.268z M37.395,54.617
			c0.786-0.422,1.572-0.848,2.36-1.273c-0.217,1.711-0.096,3.582-0.154,5.316c-0.792,0.383-1.643,0.842-2.438,1.217
			C37.211,58.188,37.158,56.289,37.395,54.617z M106.113,47.346c0.271,1.275,0.484,2.722,0.728,3.997
			c-0.188,0.073-0.877,0.315-1.027,0.439c-21.297,4.791-42.935,8.544-64.4,12.542c-0.263-1.08-2.113-2.452-3.107-3.115l1.885-0.194
			C62.598,56.52,83.751,51.835,106.113,47.346z M41.788,57.39c0.053-1.78,0.035-3.548,0.302-5.306
			c0.975-0.528,1.953-1.056,2.928-1.584c-0.262,1.798-0.238,3.604-0.295,5.42C43.748,56.42,42.766,56.901,41.788,57.39z
			 M47.015,54.74c0.05-1.848,0.045-3.686,0.35-5.516c0.945-0.518,1.89-1.028,2.833-1.546c-0.271,1.842-0.24,3.691-0.301,5.56
			C48.937,53.745,47.978,54.244,47.015,54.74z M52.193,52.027c0.054-1.889,0.04-3.762,0.36-5.628c0.92-0.505,1.844-1.006,2.765-1.51
			c-0.306,1.872-0.286,3.754-0.345,5.649C54.045,51.034,53.119,51.536,52.193,52.027z M57.266,49.301
			c0.049-1.917,0.042-3.813,0.404-5.705c0.835-0.455,1.67-0.911,2.503-1.371c-0.299,1.881-0.276,3.772-0.335,5.677
			C58.981,48.37,58.124,48.833,57.266,49.301z M62.131,46.651c0.049-1.922,0.044-3.823,0.396-5.72
			c0.842-0.464,1.685-0.924,2.522-1.388c-0.277,1.884-0.241,3.776-0.307,5.683C63.873,45.703,63.001,46.176,62.131,46.651z
			 M69.698,42.54c-0.315,0.163-0.625,0.333-0.938,0.499c-0.576,0.311-1.146,0.626-1.723,0.939c0.057-1.922,0.042-3.833,0.369-5.729
			c0.855-0.474,1.709-0.942,2.562-1.411c-0.266,1.862-0.23,3.729-0.297,5.609C69.672,42.482,69.683,42.513,69.698,42.54z
			 M74.387,40.042c-0.805,0.428-1.614,0.855-2.422,1.284c0.062-1.939,0.037-3.864,0.353-5.778c0.775-0.428,1.549-0.852,2.325-1.28
			c-0.268,1.877-0.238,3.761-0.3,5.662C74.337,39.98,74.362,40.015,74.387,40.042z M79.729,37.24
			c-1.032,0.54-2.072,1.083-3.097,1.625c0.061-1.977,0.036-3.936,0.36-5.889c1.005-0.547,2.005-1.097,3.004-1.648
			c-0.295,1.92-0.252,3.85-0.32,5.796C79.677,37.174,79.692,37.212,79.729,37.24z M81.961,36.06c0.065-2.022,0.035-4.027,0.39-6.025
			c0.95-0.52,1.9-1.039,2.855-1.562c-0.28,1.889-0.243,3.791-0.31,5.705c0,0.116,0.095,0.172,0.255,0.182
			C84.094,34.932,83.026,35.494,81.961,36.06z M87.183,33.257c0.067-2.04,0.03-4.059,0.377-6.076c0.9-0.49,1.805-0.981,2.695-1.472
			c-0.288,1.922-0.25,3.855-0.32,5.799c-0.005,0.083,0.044,0.132,0.122,0.16C89.108,32.201,88.146,32.731,87.183,33.257z
			 M92.228,30.434c0.067-2.015,0.033-4.019,0.388-6.01c0.835-0.458,1.669-0.912,2.51-1.37c-0.321,1.95-0.285,3.911-0.353,5.884
			C93.93,29.446,93.079,29.943,92.228,30.434z M97.069,27.546c0.037-1.341,0.07-3.591,0.195-4.917
			c0.702,0.854,1.935,2.391,2.602,3.282C99.129,26.381,97.824,27.086,97.069,27.546z"/>
		<circle cx="30.351" cy="63.277" r="1.662"/>
		<path fill="#FFFFFF" d="M27.748,77.504c26.347-4.797,52.599-9.973,78.885-15.098c0.466-0.095,2.409-1.944,1.255-1.719
			c-26.286,5.124-52.229,10.299-78.575,15.096C28.836,75.868,26.59,77.719,27.748,77.504"/>
		<path fill="#FFFFFF" d="M52.879,73.121c1.113,5.237,2.047,10.506,2.956,15.783c0.174,1.002,2.478,0.027,2.34-0.768
			c-0.93-5.389-1.887-10.778-3.023-16.123C54.99,71.26,52.682,72.193,52.879,73.121"/>
		<path fill="#FFFFFF" d="M83.901,66.991c1.354,5.247,2.022,10.714,3.214,16.017c0.13,0.567,2.455-0.325,2.275-1.11
			c-1.195-5.304-1.86-10.763-3.215-16.015C86.021,65.299,83.696,66.221,83.901,66.991"/>
		<path fill="#FFFFFF" d="M31.052,94.496c26.488-5.146,52.954-10.389,79.441-15.533c0.499-0.092,2.454-1.97,1.279-1.744
			c-26.489,5.144-52.564,10.258-79.05,15.402C32.225,92.721,29.878,94.727,31.052,94.496"/>
		<path fill="#FFFFFF" d="M81.927,85.032c0.76,3.395,1.519,6.784,2.139,10.204c0.18,0.979,2.479-0.011,2.34-0.78
			c-0.645-3.527-1.419-7.032-2.205-10.528C84.036,83.192,81.721,84.125,81.927,85.032"/>
		<path fill="#FFFFFF" d="M33.236,100.428c16.796-3.262,33.575-6.602,50.37-9.887c1.4-0.274,1.452-2.199-0.175-1.879
			c-16.789,3.284-32.227,6.299-49.023,9.562C33.008,98.496,31.614,100.742,33.236,100.428"/>
		<path fill="#FFFFFF" d="M34.749,106.569c26.139-5.082,52.197-10.614,78.365-15.54c1.402-0.263,1.468-2.178-0.157-1.867
			c-26.171,4.929-50.969,10.233-77.108,15.314C34.452,104.75,33.126,106.885,34.749,106.569"/>
		<path fill="#FFFFFF" d="M35.649,113.514c26.221-5.387,52.546-10.312,78.723-15.934c1.334-0.285,1.524-2.084-0.1-1.731
			c-26.172,5.616-51.017,10.21-77.236,15.604C35.696,111.729,34.022,113.851,35.649,113.514"/>
		<path fill="#0D0D0D" d="M35.217,119.32c26.822-5.197,53.688-10.092,80.43-15.686c0.452-0.098,2.53-1.435,1.407-1.205
			c-26.746,5.6-53.611,10.494-80.431,15.688C36.169,118.202,34.083,119.543,35.217,119.32"/>
	</g>
</g>
</svg>
