<?xml version="1.0" encoding="utf-8"?>
<!-- Generator: Adobe Illustrator 15.0.0, SVG Export Plug-In . SVG Version: 6.00 Build 0)  -->
<!DOCTYPE svg PUBLIC "-//W3C//DTD SVG 1.1//EN" "http://www.w3.org/Graphics/SVG/1.1/DTD/svg11.dtd">
<svg version="1.1" id="Ebene_1" xmlns="http://www.w3.org/2000/svg" xmlns:xlink="http://www.w3.org/1999/xlink" x="0px" y="0px"
	 width="40px" height="40px" viewBox="0 0 40 40" enable-background="new 0 0 40 40" xml:space="preserve">
<g>
	<polygon fill="#FFFFFF" points="22.857,3.634 18.776,3.244 18.079,3.96 7.069,5.804 1.379,11.736 4.005,19.106 4.788,19.542 
		6.999,23.689 11.395,24.076 6.768,29.584 8.678,34.377 19.229,36.493 24.262,37.498 28.511,38.146 39.094,26.034 38.723,24.517 
		32.719,22.84 31.15,19.1 26.451,18.452 27.724,16.824 23.064,3.851 	"/>
	<polygon fill="none" stroke="#DF4090" stroke-width="0.107" points="22.882,3.704 18.776,3.244 18.079,3.96 14.128,4.55 
		11.581,4.939 7.163,5.771 5.831,7.156 1.379,11.736 3.982,19.192 4.788,19.542 6.999,23.689 11.445,24.22 9.98,25.9 6.768,29.584 
		8.678,34.377 9.611,34.678 17.818,36.222 25.567,37.699 28.511,38.146 32.9,33.535 35.975,29.911 39.139,25.938 38.651,24.541 
		32.717,22.913 31.15,19.1 29.505,18.912 26.594,18.559 27.622,16.833 26.876,14.542 23.175,3.865 	"/>
	<g>
		<path fill="#231F20" d="M1.058,11.672l0.058,0.153c0.861,2.452,1.766,4.888,2.598,7.349c0.017,0.048,0.074,0.075,0.144,0.085
			c-0.003,0.016,0.007,0.033,0.036,0.048c0.195,0.103,0.39,0.201,0.586,0.299c0.001,0.003,0,0.005,0.001,0.006
			c0.726,1.411,1.52,2.786,2.264,4.186c0.005,0.012,0.014,0.021,0.025,0.027c0.032,0.028,0.085,0.05,0.167,0.056
			c1.357,0.094,2.708,0.23,4.057,0.395c-1.44,1.739-2.918,3.446-4.432,5.12c-0.12,0.064-0.195,0.174-0.145,0.317
			c0.574,1.62,1.272,3.19,1.846,4.81c0.065,0.185,0.324,0.218,0.517,0.145c4.303,0.866,8.597,1.781,12.915,2.567
			c0.02,0.003,0.052,0.003,0.091,0.001c0.065,0.042,0.177,0.059,0.292,0.054c2.02,0.396,4.048,0.739,6.077,1.068
			c0.133,0.139,0.437,0.183,0.593,0.02c3.776-3.979,7.455-7.952,10.772-12.338c0.093-0.123,0.061-0.223-0.03-0.288l-0.421-1.204
			c-0.002-0.006-0.005-0.009-0.007-0.014c0.032-0.039-0.015-0.073-0.098-0.096c0.012-0.04-0.019-0.08-0.117-0.113
			c-1.853-0.61-3.757-1.038-5.642-1.54c-0.016-0.076-0.146-0.119-0.29-0.128c-0.442-1.182-0.879-2.361-1.29-3.555
			c-0.024-0.074-0.104-0.117-0.202-0.134c-0.062-0.054-0.158-0.092-0.286-0.092c-1.425-0.006-2.822-0.344-4.235-0.478
			c0.407-0.455,0.815-0.906,1.224-1.352c0.138-0.15,0.035-0.267-0.134-0.318c-1.531-4.41-3.065-8.815-4.585-13.229
			c-0.005-0.018-0.019-0.031-0.037-0.042c0.03-0.049-0.024-0.097-0.242-0.108c-1.355-0.068-2.706-0.238-4.063-0.307
			c-0.021-0.001-0.042,0-0.064,0c-0.165-0.01-0.353,0.018-0.418,0.085c-0.174,0.18-0.349,0.358-0.523,0.538
			c-0.027,0-0.054,0.002-0.082,0.006C14.342,4.286,10.723,4.73,7.115,5.504C6.991,5.531,6.92,5.576,6.889,5.63
			C6.845,5.642,6.808,5.66,6.785,5.684C4.9,7.67,3.068,9.708,1.107,11.621L1.058,11.672z M12.496,24.469
			c0.25,0.035,0.5,0.069,0.75,0.105c0.017,0.001,0.034,0.004,0.05,0.004c0.216,0.629,0.434,1.258,0.653,1.886
			c0.056,0.164,0.4,0.173,0.595,0.073c1.18,0.045,2.354,0.159,3.536,0.102c0.082,0.171,0.463,0.259,0.652,0.102
			c2.133-1.763,4.081-3.812,5.972-5.898c2.617,0.907-0.156,4.241-1.207,5.03c-1.115,0.837-2.343,1.529-3.644,2.036
			c-1.459,0.567-3.018,1.005-4.593,1.042c-1.164,0.028-2.843-0.09-3.262-1.457c-0.338-1.103-0.164-2.036,0.471-2.976
			C12.48,24.502,12.489,24.485,12.496,24.469z M18.649,26.081c-1.497-4.283-2.908-8.654-4.247-12.991
			c0.005-0.004,0.011-0.008,0.015-0.012c2.85-3.04,5.638-5.98,8.504-9.006c1.476,4.286,3.017,8.625,4.505,12.907
			C24.611,20.052,21.826,23.354,18.649,26.081z M1.773,12.028c2.614,0.17,5.216,0.509,7.823,0.766c0,0.034,0.021,0.011,0.062,0.033
			c-0.027,0.032-0.041,0.07-0.029,0.112c0.925,3.349,1.899,6.483,3.01,9.774c-2.759-1.297-5.658-2.249-8.361-3.666
			c-0.022-0.013-0.044-0.051-0.06-0.095c0-0.001-0.038-0.126-0.038-0.127C3.366,16.418,2.616,14.425,1.773,12.028z M13.89,13.44
			c1.36,4.392,2.723,8.441,4.243,12.783c-1.126,0.049-2.502-0.102-3.627-0.143c-1.527-4.387-2.94-8.646-4.181-13.122
			C11.42,13.052,12.794,13.345,13.89,13.44z M5.314,20.113c2.504,1.184,5.104,2.144,7.593,3.365l0.064,0.135
			c0.097,0.286,0.008,0.169,0.106,0.454c-1.983-0.279-3.949-0.544-5.948-0.687C6.495,22.19,5.943,21.307,5.314,20.113z
			 M17.455,4.258c-2.592,2.668-5.035,5.177-7.478,7.975c-2.655-0.257-5.319-0.536-7.982-0.709c1.857-1.814,3.508-3.652,5.292-5.539
			c0.027-0.001,0.055-0.004,0.083-0.01C10.743,5.252,14.057,4.812,17.455,4.258z M22.154,4.151c-2.911,3.074-5.385,5.643-8.282,8.73
			c-0.076,0.007,0.017,0.046-0.075,0.024c-1.126-0.1-2.148-0.29-3.276-0.379c2.799-3.219,5.465-5.969,8.436-9.03
			c1.226,0.075,2.264,0.225,3.49,0.29L22.154,4.151z M26.518,18.824c0.01,0.001,0.021,0.003,0.032,0.004
			c1.467,0.12,2.903,0.451,4.374,0.492c0.012,0.034,0.022,0.067,0.035,0.101c-3.302,4.189-7.028,8.013-10.709,11.862
			c-4.351-0.221-8.609-1.189-12.903-1.888c1.493-1.649,2.966-3.313,4.386-5.027c0.032,0.005,0.28,0.022,0.312,0.027
			c-1.132,2.014-0.874,4.314,1.222,4.823c2.182,0.528,4.417,0.058,6.492-0.691c2.087-0.754,4.368-2.201,5.741-4.047
			c1.017-1.363,1.427-3.413-0.384-4.093C25.585,19.866,26.053,19.344,26.518,18.824z M20.754,31.578
			c0.023-0.012,0.043-0.024,0.058-0.04c3.555-3.721,7.252-7.611,10.479-11.63c0.331,0.934,0.412,1.157,0.763,2.086
			c0.016,0.04,0.304,0.885,0.347,0.908c-3.32,4.062-6.921,8.022-10.576,11.785C21.492,33.644,21.118,32.613,20.754,31.578z
			 M38.253,24.602c-3.415,4.153-6.88,8.211-10.45,12.228c-0.038,0.002-0.077,0.007-0.112,0.012
			c-1.823-0.533-2.898-0.846-4.726-1.366c-0.03-0.007-0.858-0.27-0.909-0.267c3.784-3.877,7.463-7.858,10.895-12.051
			C34.72,23.625,36.512,24.03,38.253,24.602z M39.038,25.845c-3.187,4.198-6.951,8.231-10.57,12.046
			c-0.058-0.213-0.158-0.558-0.229-0.768c0.049-0.017,0.091-0.038,0.116-0.064c3.472-3.9,6.992-8.137,10.315-12.164
			c0,0,0.165,0.363,0.221,0.481C38.893,25.378,39.036,25.842,39.038,25.845z M27.956,37.891c-1.755-0.288-3.746-0.647-5.491-0.988
			c-0.108-0.476-0.181-0.698-0.317-1.166c1.764,0.508,3.747,0.977,5.509,1.487c0.024,0.008,0.029,0.095,0.071,0.094
			C27.815,37.572,27.888,37.63,27.956,37.891z M8.971,34.33c-0.001-0.025,0.02,0.021,0.009-0.008
			c-0.528-1.49-1.373-2.996-1.918-4.48c4.229,0.693,8.898,1.649,13.184,1.872c0.416,1.178,0.76,2.19,1.119,3.384
			c-0.021,0.043-0.007,0.079,0.031,0.105c0.149,0.505,0.345,1.04,0.464,1.557C17.621,35.977,13.196,35.179,8.971,34.33z"/>
		<path fill="#231F20" d="M21.942,32.101c1.062-1.236,2.263-2.34,3.383-3.521c0.147-0.154,0.881-0.109,0.665,0.118
			c-1.122,1.18-2.32,2.283-3.384,3.521C22.468,32.379,21.734,32.342,21.942,32.101z"/>
		<path fill="#231F20" d="M31.257,22.31c0.023,0.211,0.08,0.407,0.149,0.605c0.13,0.37-0.606,0.515-0.717,0.196
			c-0.085-0.244-0.159-0.489-0.189-0.746C30.462,22.012,31.216,21.952,31.257,22.31z"/>
		<path fill="#231F20" d="M15.63,14.146c1.025,2.773,1.979,5.571,2.951,8.361c0.012,0.034,0.041,0.057,0.082,0.07
			c-0.128,0.174,0.389,0.224,0.514,0.095c2.237-2.309,4.484-4.605,6.705-6.928c0.031-0.031,0.039-0.058,0.034-0.082
			c0.05-0.033,0.074-0.065,0.064-0.098c-0.002-0.003-0.003-0.006-0.003-0.008c0.008-0.007,0.012-0.015,0.01-0.023
			c-0.988-2.853-1.908-5.729-2.896-8.582c-0.005-0.014-0.018-0.026-0.03-0.035c0.154-0.166-0.383-0.211-0.503-0.093
			c-2.357,2.309-4.576,4.75-6.852,7.138c-0.042,0.043-0.04,0.079-0.011,0.106C15.647,14.089,15.619,14.118,15.63,14.146z
			 M19.244,21.349c-0.01,0.01-0.021,0.021-0.03,0.031c-0.005-0.012-0.008-0.025-0.013-0.038
			C19.215,21.344,19.229,21.348,19.244,21.349z M22.165,7.808c0.003-0.005,0.006-0.008,0.012-0.012
			C22.176,7.8,22.172,7.802,22.17,7.805C22.169,7.806,22.167,7.807,22.165,7.808z"/>
		<path fill="#231F20" d="M20.13,23.043c0.108,0.118,0.173,0.242,0.226,0.393c0.125,0.353-0.612,0.484-0.718,0.187
			c-0.036-0.101-0.069-0.199-0.143-0.281C19.218,23.035,19.92,22.812,20.13,23.043z"/>
		<path fill="#231F20" d="M36.908,24.725c-1.101-0.369-2.242-0.644-3.362-0.948c-0.145-0.04-0.329,0.019-0.443,0.106
			c-0.022,0.012-0.042,0.027-0.056,0.046c-0.76,0.946-1.528,1.887-2.307,2.822c-0.044,0.033-0.079,0.073-0.096,0.113
			c-2.124,2.556-4.309,5.067-6.524,7.541c-0.103,0.113-0.004,0.19,0.135,0.219c0.021,0.027,0.061,0.053,0.127,0.074
			c0.952,0.309,1.915,0.583,2.861,0.911c0.025,0.144,0.417,0.189,0.546,0.046c3.147-3.474,6.18-7.029,9.219-10.597
			C37.135,24.955,37.161,24.81,36.908,24.725z M36.348,25.087c-0.156,0.183-0.311,0.364-0.467,0.547
			c-0.195-0.054-0.392-0.11-0.585-0.166c0.159-0.186,0.32-0.371,0.482-0.557C35.969,24.967,36.159,25.027,36.348,25.087z
			 M35.299,24.771c-0.161,0.186-0.323,0.372-0.482,0.556c-0.221-0.063-0.441-0.129-0.661-0.192c0.158-0.182,0.313-0.364,0.471-0.546
			C34.851,24.648,35.073,24.709,35.299,24.771z M32.738,25.074c0.229,0.057,0.456,0.119,0.682,0.181
			c-0.181,0.212-0.362,0.424-0.544,0.637c-0.216-0.065-0.43-0.13-0.646-0.193C32.398,25.49,32.569,25.282,32.738,25.074z
			 M31.945,26.044c0.213,0.063,0.426,0.126,0.637,0.19c-0.198,0.235-0.396,0.467-0.594,0.699c-0.202-0.071-0.403-0.138-0.606-0.205
			C31.57,26.501,31.757,26.272,31.945,26.044z M31.026,27.155c0.201,0.065,0.4,0.133,0.601,0.203
			c-0.181,0.213-0.362,0.425-0.541,0.639c-0.188-0.079-0.374-0.16-0.56-0.246C30.693,27.554,30.859,27.354,31.026,27.155z
			 M30.203,28.139c0.186,0.08,0.371,0.161,0.56,0.239c-0.213,0.251-0.425,0.502-0.637,0.75c-0.174-0.073-0.347-0.147-0.518-0.224
			c-0.013-0.007-0.027-0.011-0.043-0.015C29.778,28.64,29.992,28.39,30.203,28.139z M29.223,29.294
			c0.187,0.081,0.372,0.162,0.558,0.241c-0.189,0.223-0.38,0.447-0.571,0.67c-0.188-0.075-0.375-0.156-0.561-0.24
			C28.84,29.741,29.032,29.517,29.223,29.294z M28.361,30.299c0.186,0.082,0.376,0.164,0.566,0.239
			c-0.244,0.286-0.49,0.571-0.734,0.856c-0.179-0.072-0.359-0.146-0.535-0.226c-0.012-0.004-0.025-0.007-0.043-0.009
			C27.864,30.873,28.113,30.586,28.361,30.299z M27.407,31.397c0.193,0.082,0.387,0.158,0.581,0.234
			c-0.233,0.272-0.468,0.545-0.703,0.816c-0.205-0.071-0.408-0.142-0.61-0.211C26.919,31.959,27.164,31.678,27.407,31.397z
			 M26.392,32.559c0.204,0.068,0.408,0.139,0.612,0.211c-0.236,0.271-0.472,0.543-0.709,0.813c-0.205-0.072-0.407-0.146-0.609-0.226
			C25.921,33.093,26.155,32.824,26.392,32.559z M25.463,33.607c0.202,0.076,0.408,0.148,0.614,0.22
			c-0.237,0.271-0.475,0.539-0.714,0.807c-0.213-0.066-0.425-0.133-0.637-0.201C24.973,34.157,25.218,33.883,25.463,33.607z
			 M25.861,34.788c0.236-0.265,0.472-0.53,0.706-0.796c0.171,0.057,0.34,0.115,0.511,0.173c-0.238,0.261-0.475,0.522-0.714,0.78
			C26.197,34.894,26.03,34.842,25.861,34.788z M26.826,35.092c0.014-0.008,0.025-0.017,0.035-0.027
			c0.227-0.244,0.449-0.49,0.673-0.736c0.18,0.066,0.359,0.136,0.535,0.21c0.021,0.01,0.042,0.015,0.062,0.021
			c-0.223,0.248-0.444,0.497-0.67,0.744C27.252,35.232,27.039,35.16,26.826,35.092z M28.356,34.312
			c-0.197-0.081-0.398-0.156-0.599-0.229c0.23-0.255,0.461-0.51,0.691-0.767c0.193,0.078,0.385,0.161,0.574,0.243
			C28.801,33.811,28.579,34.061,28.356,34.312z M29.309,33.239c-0.19-0.084-0.381-0.164-0.572-0.242
			c0.242-0.271,0.483-0.543,0.725-0.814c0.192,0.075,0.383,0.152,0.571,0.235C29.792,32.692,29.551,32.965,29.309,33.239z
			 M30.245,32.177c-0.192-0.08-0.384-0.154-0.578-0.229c0.253-0.286,0.507-0.573,0.758-0.86c0.193,0.07,0.387,0.145,0.578,0.222
			C30.751,31.599,30.498,31.887,30.245,32.177z M31.289,30.979c-0.192-0.074-0.386-0.148-0.579-0.218
			c0.185-0.213,0.369-0.424,0.554-0.636c0.182,0.069,0.363,0.136,0.544,0.204c0.012,0.004,0.024,0.006,0.038,0.012
			C31.66,30.555,31.475,30.767,31.289,30.979z M32.187,29.945c-0.192-0.071-0.385-0.143-0.577-0.217
			c0.218-0.251,0.436-0.503,0.653-0.754c0.188,0.075,0.376,0.151,0.563,0.229C32.613,29.452,32.399,29.699,32.187,29.945z
			 M33.151,28.826c-0.188-0.076-0.376-0.151-0.563-0.227c0.192-0.223,0.386-0.447,0.579-0.67c0.19,0.071,0.38,0.143,0.572,0.213
			C33.542,28.37,33.348,28.599,33.151,28.826z M34.102,27.719c-0.189-0.07-0.381-0.142-0.57-0.213
			c0.221-0.255,0.44-0.51,0.663-0.766c0.194,0.061,0.391,0.122,0.585,0.183c0,0,0.002,0,0.002,0.002
			C34.555,27.188,34.328,27.453,34.102,27.719z M35.077,26.577c-0.195-0.061-0.391-0.121-0.585-0.183
			c0.191-0.221,0.382-0.441,0.574-0.664c0.196,0.057,0.394,0.114,0.591,0.166C35.464,26.123,35.271,26.352,35.077,26.577z
			 M27.766,32.624c0.233-0.271,0.469-0.543,0.701-0.814c0.182,0.067,0.362,0.134,0.543,0.201c-0.239,0.271-0.479,0.541-0.721,0.811
			C28.115,32.755,27.94,32.688,27.766,32.624z M28.002,33.141c-0.233,0.262-0.47,0.522-0.704,0.783
			c-0.173-0.057-0.345-0.115-0.516-0.173c0.234-0.269,0.47-0.536,0.703-0.807C27.659,33.009,27.831,33.074,28.002,33.141z
			 M28.668,31.577c0.246-0.286,0.49-0.573,0.736-0.859c0.188,0.068,0.376,0.137,0.564,0.204c-0.25,0.287-0.503,0.572-0.756,0.857
			C29.031,31.713,28.85,31.646,28.668,31.577z M29.685,30.39c0.188-0.222,0.376-0.441,0.564-0.663
			c0.188,0.076,0.377,0.151,0.564,0.226c-0.186,0.215-0.373,0.429-0.561,0.645C30.062,30.527,29.873,30.459,29.685,30.39z
			 M30.591,29.323c0.214-0.252,0.428-0.504,0.641-0.756c0.194,0.077,0.389,0.154,0.584,0.23c-0.219,0.252-0.437,0.504-0.654,0.756
			C30.97,29.479,30.78,29.4,30.591,29.323z M31.553,28.189c0.186-0.219,0.371-0.437,0.557-0.656
			c0.201,0.074,0.402,0.149,0.604,0.226c-0.19,0.221-0.382,0.443-0.574,0.665C31.944,28.347,31.749,28.269,31.553,28.189z
			 M32.469,27.109c0.203-0.24,0.409-0.479,0.613-0.719c0.213,0.066,0.427,0.133,0.641,0.201c-0.215,0.248-0.431,0.495-0.644,0.744
			C32.876,27.26,32.672,27.185,32.469,27.109z M33.929,25.399c0.221,0.064,0.439,0.129,0.658,0.191
			c-0.189,0.218-0.379,0.436-0.566,0.655c-0.216-0.068-0.431-0.135-0.644-0.202C33.56,25.829,33.745,25.613,33.929,25.399z
			 M34.111,24.452c-0.154,0.179-0.31,0.359-0.464,0.538c-0.229-0.062-0.459-0.124-0.691-0.18c-0.001-0.001-0.002-0.001-0.003-0.001
			c0.147-0.183,0.296-0.366,0.442-0.547C33.633,24.324,33.871,24.389,34.111,24.452z"/>
		<g>
			<path fill="#231F20" d="M13.742,31.837c-0.037,0.014-0.076,0.019-0.114,0.016c-1.083-0.078-2.122-0.31-3.127-0.535
				c-0.638-0.141-1.297-0.289-1.965-0.396c-0.15-0.024-0.173-0.112-0.177-0.147c-0.007-0.078,0.054-0.156,0.144-0.188
				c0.041-0.015,0.087-0.02,0.132-0.011c0.667,0.107,1.327,0.254,1.966,0.396c1.005,0.224,2.045,0.455,3.117,0.533
				c0.151,0.012,0.178,0.094,0.183,0.129C13.911,31.714,13.842,31.803,13.742,31.837L13.742,31.837z"/>
			<path fill="#231F20" d="M14.083,33.117L14.083,33.117c-0.037,0.012-0.075,0.017-0.114,0.015
				c-1.083-0.078-2.123-0.311-3.128-0.535c-0.637-0.142-1.295-0.288-1.965-0.396c-0.149-0.023-0.173-0.11-0.176-0.147
				c-0.007-0.078,0.054-0.156,0.143-0.188c0.042-0.014,0.087-0.018,0.133-0.011c0.667,0.108,1.327,0.254,1.966,0.397
				c1.005,0.224,2.044,0.457,3.118,0.533c0.15,0.011,0.177,0.095,0.181,0.128C14.251,32.995,14.184,33.081,14.083,33.117z"/>
			<path fill="#231F20" d="M13.915,32.549c-0.039,0.015-0.08,0.02-0.122,0.013c-0.931-0.111-1.864-0.301-2.766-0.483
				c-0.756-0.153-1.539-0.312-2.315-0.424c-0.104-0.017-0.171-0.074-0.18-0.152c-0.012-0.119,0.128-0.235,0.275-0.214
				c0.778,0.114,1.562,0.272,2.319,0.426c0.901,0.184,1.832,0.372,2.759,0.484c0.105,0.013,0.173,0.067,0.182,0.145
				C14.076,32.429,14.013,32.517,13.915,32.549z"/>
			<path fill="#231F20" d="M9.109,32.552c0.042-0.014,0.088-0.017,0.136-0.008c0.417,0.082,0.833,0.169,1.25,0.255
				c1.239,0.255,2.521,0.521,3.799,0.671c0.104,0.013,0.173,0.067,0.182,0.146c0.009,0.084-0.057,0.173-0.153,0.206
				c-0.039,0.015-0.08,0.019-0.121,0.014c-1.282-0.152-2.565-0.418-3.806-0.675c-0.417-0.085-0.834-0.171-1.251-0.253
				c-0.104-0.021-0.17-0.082-0.175-0.162C8.963,32.662,9.021,32.583,9.109,32.552z"/>
		</g>
	</g>
</g>
</svg>
