<?xml version="1.0" encoding="utf-8"?>
<!-- Generator: Adobe Illustrator 15.0.0, SVG Export Plug-In . SVG Version: 6.00 Build 0)  -->
<!DOCTYPE svg PUBLIC "-//W3C//DTD SVG 1.1//EN" "http://www.w3.org/Graphics/SVG/1.1/DTD/svg11.dtd">
<svg version="1.1" id="Ebene_1" xmlns="http://www.w3.org/2000/svg" xmlns:xlink="http://www.w3.org/1999/xlink" x="0px" y="0px"
	 width="100px" height="100px" viewBox="0 0 100 100" enable-background="new 0 0 100 100" xml:space="preserve">
<g>
	<polygon fill="#FFFFFF" points="33.322,5.383 35.456,9.73 38.028,11.699 40.15,14.147 41.168,16.196 41.249,19.289 41.44,20.637 
		46.474,30.272 50.686,38.462 54.981,46.595 60.838,58.616 67.034,72.442 72.1,84.471 74.154,90.236 73.954,92.935 69.176,86.544 
		62.424,74.244 57.223,62.926 52.004,52.237 47.459,41.888 44.25,33.637 43.523,31.478 39.08,22.238 36.223,21.672 32.402,18.343 
		30.793,14.839 31.285,10.616 32.03,7.768 	"/>
	<g>
		<path fill="#231F20" stroke="#161214" stroke-width="0.1694" d="M40.9,19.488c-0.628-1.996-1.985-3.6-3.128-5.321
			c-1.379-2.076-3.699-4.247-3.479-6.961c0.057-0.703-0.325-0.759-0.384-0.044c-0.433,5.355,5.184,8.609,6.671,13.352
			C40.68,20.83,40.983,19.761,40.9,19.488"/>
		<path fill="#231F20" stroke="#161214" stroke-width="0.1694" d="M40.624,21.231c-0.834-2.175-2.314-3.533-3.786-5.298
			c-2.275-2.728-3.376-5.112-3.076-8.729c0.063-0.757-0.833-0.843-0.895-0.084c-0.199,2.374,0.023,4.723,1.138,6.857
			c1.516,2.902,4.597,4.697,5.785,7.795C40.078,22.518,40.848,21.815,40.624,21.231"/>
		<path fill="#231F20" stroke="#161214" stroke-width="0.1694" d="M38.976,20.877c-1.299-1.491-2.792-2.782-4.153-4.212
			c-2.18-2.288-2.75-4.599-2.03-7.672c0.129-0.55-0.342-1.17-0.531-0.367c-0.494,2.106-0.769,4.224,0.149,6.251
			c1.278,2.825,4.211,4.751,6.192,7.031C38.958,22.316,39.215,21.154,38.976,20.877"/>
		<path fill="#231F20" d="M40.966,13.45c-1.096-1.423-2.543-2.41-3.817-3.66c-1.469-1.443-2.462-3.311-3.415-5.112
			c-0.175-0.329-0.671-0.577-0.992-0.266c-0.935,0.906-1.175,2.569-1.608,3.761c-0.75,2.059-1.339,4.083-1.124,6.29
			c0.427,4.405,4.214,8.701,8.691,8.929c0.027,0.002,0.047-0.005,0.072-0.005c1.585,2.983,2.941,6.081,4.471,9.094
			c0,0-0.002,0.002-0.002,0.002c-0.02,0.252-0.015,0.472,0.032,0.6c4.195,11.672,9.624,22.998,14.979,34.169
			c2.92,6.091,5.96,12.135,9.299,18.009c1.652,2.909,3.717,7.406,6.731,9.196c0.014,0.009,0.208,0.11,0.226,0.099
			c0.029-0.021,0.15-0.282,0.185-0.382c0.816-2.323-0.047-4.774-0.755-7.028c-1.801-5.746-4.34-11.287-6.795-16.776
			c-6.158-13.762-12.864-27.35-20.071-40.596c-0.05-0.094-0.104-0.126-0.156-0.118c-0.017-0.086-0.041-0.162-0.074-0.217
			c-1.842-3.045-3.312-6.288-4.965-9.434C42.769,17.781,42.48,15.414,40.966,13.45z M41.042,21.935
			c1.427,2.69,2.845,5.499,4.334,8.149c-0.141,0.613-0.554,0.683-1.238,0.707c-1.359-2.644-2.533-5.342-3.86-7.99
			C40.579,22.563,40.838,22.268,41.042,21.935z M63.658,66.196c1.461,3.138,3.842,8.448,7.17,16.936
			c0.857,2.191,1.846,4.357,2.455,6.633c0.178,0.661,0.398,1.969,0.34,1.99c-0.12,0.049-1.656-2.1-2.288-3.132
			c-3.577-5.868-9.819-17.784-14.339-27.34c-3.703-7.824-7.278-15.956-10.515-24.021c0.252-0.014,0.294,0.07,0.496,0.087
			c0.362,0.03,0.846-0.099,1.157-0.404c0.405-0.4,0.502-0.882,0.529-1.1C54.257,46.323,58.642,55.434,63.658,66.196z M46.617,31.904
			c0.358,0.661,0.609,1.268,0.964,1.931c-0.005,0.119-0.005,0.231-0.003,0.323c-0.002-0.131-0.02,0.067-0.048,0.168
			c-0.055,0.187-0.184,0.354-0.301,0.505c-0.418,0.542-0.926,0.185-1.49,0.174c-0.054-0.001-0.101,0.02-0.147,0.051
			c-0.257-0.665-0.487-1.309-0.736-1.975c0.371-0.083,0.486-0.158,0.784-0.449c0.291-0.286,0.474-0.667,0.603-1.074
			c0.073-0.128,0.164-0.075,0.231,0.073C46.531,31.723,46.59,31.853,46.617,31.904z M38.141,21.47
			c-3.944-0.201-6.78-4.282-6.69-8.256c0.032-1.459,0.722-3.612,1.227-4.954c0.115-0.303,0.396-1.178,0.509-1.482
			c0.725,1.259,1.134,2.227,2.667,3.896c1.836,1.998,6.182,4.7,4.827,8.426c0,0-0.314,1.344-0.932,1.863S38.141,21.47,38.141,21.47z
			"/>
	</g>
</g>
</svg>
