<?xml version="1.0" encoding="utf-8"?>
<!-- Generator: Adobe Illustrator 15.0.0, SVG Export Plug-In . SVG Version: 6.00 Build 0)  -->
<!DOCTYPE svg PUBLIC "-//W3C//DTD SVG 1.1//EN" "http://www.w3.org/Graphics/SVG/1.1/DTD/svg11.dtd">
<svg version="1.1" id="Ebene_1" xmlns="http://www.w3.org/2000/svg" xmlns:xlink="http://www.w3.org/1999/xlink" x="0px" y="0px"
	 width="100px" height="100px" viewBox="0 0 100 100" enable-background="new 0 0 100 100" xml:space="preserve">
<g>
	<polygon fill="#FFFFFF" points="44.893,3.685 84.373,26.065 84.373,52.846 56.209,96.727 14.214,72.586 14.214,45.805 
		44.012,3.685 	"/>
	<g>
		<path fill="#231F20" d="M47.197,12.571l-4.533,6.134l1.503,0.972c1.057-0.922,1.896-2.231,3.846-2.465
			c2.265-0.27,4.675,1.462,7.848,3.379c0,0-12.332,20.354-17,22.867c-1.38,0.74-3.421,0.524-6.213-0.928l-1.359,1.664L48,53.357
			l1.381-1.849c-2.19-1.471-4.75-2.691-4.148-5.252c0.812-3.455,14.904-23.15,14.904-23.15c4.722,2.538,6.3,2.842,7.695,4.862
			c1.021,1.484,0.483,2.326-0.615,4.853l1.489,0.917l4.521-6.983L47.197,12.571z"/>
		<path fill="#231F20" d="M85.765,24.933L44.025,1.87L12.823,45.278h-0.02v28.096l-0.006,0.01l43.939,25.121l29.214-45.466h0.112
			V24.933H85.765z M17.709,73.492l-2.887-1.562v-25.4l2.921,1.583L17.709,73.492z M23.277,76.871l-4.329-2.725L19,48.83l4.237,2.412
			L23.277,76.871z M26.894,79.062l-1.859-1.171l-0.037-25.648l1.833,1.042L26.894,79.062z M39.882,86.448l-11.511-6.622
			l-0.032-25.683l11.482,6.534L39.882,86.448z M51.445,93.12l-9.78-5.909L41.581,61.68l9.829,5.593L51.445,93.12z M54.96,95.005
			l-2.344-1.528l0.05-25.488l2.396,1.294L54.96,95.005z M55.774,66.837L15.637,44.731L44.67,4.39l38.203,21.24L55.774,66.837z
			 M61.969,85.247L57.2,91.949l0.153-22.922l4.615-7.13V85.247z M69.37,74.82l-6.335,9.858l0.058-24.525l6.334-9.837L69.37,74.82z
			 M72.307,70.25l-1.177,1.83l0.058-24.497l1.177-1.827L72.307,70.25z M79.896,58.438l-6.08,9.463l0.057-24.488l6.08-9.442
			L79.896,58.438z M83.993,52.117l-2.59,3.974l0.059-24.463l2.48-3.655L83.993,52.117z"/>
	</g>
</g>
</svg>
