<?xml version="1.0" encoding="utf-8"?>
<!-- Generator: Adobe Illustrator 15.0.0, SVG Export Plug-In . SVG Version: 6.00 Build 0)  -->
<!DOCTYPE svg PUBLIC "-//W3C//DTD SVG 1.1//EN" "http://www.w3.org/Graphics/SVG/1.1/DTD/svg11.dtd">
<svg version="1.1" id="Ebene_1" xmlns="http://www.w3.org/2000/svg" xmlns:xlink="http://www.w3.org/1999/xlink" x="0px" y="0px"
	 width="140px" height="140px" viewBox="0 0 140 140" enable-background="new 0 0 140 140" xml:space="preserve">
<g>
	<polygon fill="#FFFFFF" points="65.642,29.257 100.244,48.872 100.244,72.344 75.561,110.804 38.753,89.646 38.753,66.173 
		64.87,29.257 	"/>
	<g>
		<path fill="#0D0D0D" d="M67.661,37.045l-3.973,5.377l1.317,0.852c0.926-0.81,1.662-1.956,3.371-2.161
			c1.985-0.236,4.097,1.282,6.879,2.961c0,0-10.81,17.84-14.901,20.042c-1.209,0.648-2.998,0.46-5.445-0.812l-1.191,1.458
			l14.646,8.032l1.21-1.621c-1.919-1.289-4.163-2.359-3.635-4.604c0.711-3.028,13.062-20.29,13.062-20.29
			c4.14,2.225,5.523,2.49,6.745,4.262c0.896,1.3,0.423,2.038-0.54,4.253l1.307,0.804l3.961-6.121L67.661,37.045z"/>
		<path fill="#0D0D0D" d="M101.465,47.88L64.881,27.666L37.534,65.711h-0.017v24.624l-0.005,0.011l38.51,22.016l25.605-39.848h0.098
			V47.88H101.465z M41.816,90.439l-2.53-1.369V66.809l2.56,1.387L41.816,90.439z M46.696,93.401l-3.794-2.388l0.045-22.189
			l3.713,2.114L46.696,93.401z M49.867,95.322l-1.629-1.027l-0.032-22.479l1.606,0.914L49.867,95.322z M61.25,101.794l-10.089-5.803
			L51.133,73.48l10.063,5.729L61.25,101.794z M71.385,107.642l-8.572-5.178l-0.074-22.377l8.614,4.902L71.385,107.642z
			 M74.465,109.294l-2.055-1.339l0.045-22.339l2.1,1.135L74.465,109.294z M75.178,84.605L40,65.231l25.446-35.356L98.93,48.49
			L75.178,84.605z M80.607,100.741l-4.179,5.875l0.134-20.09l4.045-6.25V100.741L80.607,100.741z M87.096,91.604l-5.553,8.64
			l0.051-21.495l5.552-8.621L87.096,91.604z M89.669,87.599l-1.032,1.604l0.051-21.472l1.033-1.601L89.669,87.599z M96.32,77.245
			l-5.328,8.294l0.049-21.463l5.33-8.275L96.32,77.245z M99.912,71.706l-2.271,3.481l0.053-21.44l2.173-3.203L99.912,71.706z"/>
	</g>
</g>
</svg>
