<?xml version="1.0" encoding="utf-8"?>
<!-- Generator: Adobe Illustrator 15.0.0, SVG Export Plug-In . SVG Version: 6.00 Build 0)  -->
<!DOCTYPE svg PUBLIC "-//W3C//DTD SVG 1.1//EN" "http://www.w3.org/Graphics/SVG/1.1/DTD/svg11.dtd">
<svg version="1.1" id="Ebene_1" xmlns="http://www.w3.org/2000/svg" xmlns:xlink="http://www.w3.org/1999/xlink" x="0px" y="0px"
	 width="400px" height="390.887px" viewBox="0 0 400 390.887" enable-background="new 0 0 400 390.887" xml:space="preserve">
<polygon points="0.64,0 0.64,203.799 77.112,288.998 0.64,288.998 0.64,390.887 187.816,390.887 187.572,76.492 220.088,76.492 
	220.088,390.887 400,390.887 400,288.998 323.555,288.998 400,203.799 400,0 "/>
<g>
	<g>
		<path fill="#1D1D1B" d="M201.486,354.698c0.411,0.051,1.799-0.36,2.005,0.154c0.257,0.616-1.285,0.822-1.645,0.719
			c0.874-1.027,1.593,0.36,0.72,0.257c0.154-0.771,2.004-1.079,2.62-0.72c-0.309,0.412-1.078,0.36-1.541,0.206
			c0.719-0.206,1.593-0.206,2.364-0.153c-0.721,0.205-1.491,0.051-2.158-0.206c0.462-0.206,1.129-0.052,1.489,0.257
			c-0.564,0.309-1.232,0.205-1.85,0.309c0.617,0.359,1.438,0.359,2.106,0.514c-0.463-0.052-1.027-0.154-1.489-0.359
			c0.718-0.154,3.699-0.771,4.11,0.308c-0.051,0-0.205-0.051-0.257-0.103c0.257,0.103,0.515,0.206,0.771,0.309
			c-0.41-2.159-4.06-1.388-5.602-1.953c1.439-0.462,3.187-0.565,4.574,0c-1.646-0.668-3.392-0.977-5.139-0.462
			c0.154,1.182,4.214,0.154,5.087,1.593c-0.771,0.411-1.696,0.257-2.519,0.359c0.977,0.309,2.21,0.154,3.136,0.617
			c-0.411,0.153-0.874,0.153-1.336,0.205c0.309,0,0.616,0,0.925,0.103c-0.721,0.104-1.594-0.051-2.262-0.256
			c0.359,0.051,0.771,0.153,1.131,0.205c-0.515-0.052-3.802-0.052-4.06-0.463c-0.514-1.028,4.882-1.028,5.756-0.874
			c-0.617-1.952-3.238-1.798-4.677-1.13c-0.463,0.257-1.901,0.925-1.336,1.645"/>
		<g>
			<path fill="#FFFFFF" d="M201.25,355.018c0.176,0,0.441-0.055,0.607-0.037c0.271,0.028,1.226,0.405,0.358,0.281
				c0.034,0.13,0.069,0.261,0.104,0.392c0.161-0.049,0.321-0.098,0.482-0.146c0.119,0.08,0.238,0.16,0.357,0.24
				c0.215-0.52,1.126-0.538,1.55-0.362c0.001-0.12,0.002-0.24,0.003-0.36c-0.237,0.086-0.471,0.079-0.698-0.02
				c-0.099,0.195-0.196,0.391-0.295,0.586c0.715-0.16,1.345-0.146,2.054-0.11c0.107-0.21,0.215-0.42,0.323-0.63
				c-0.612,0.13-1.202,0.071-1.769-0.174c-0.134,0.185-0.268,0.37-0.402,0.555c0.361-0.06,0.675,0.026,0.938,0.257
				c0.082-0.167,0.164-0.335,0.246-0.502c-0.384,0.143-1.082,0.177-1.532,0.224c-0.179,0.019-1.017,0.384-0.563,0.587
				c0.713,0.322,1.449,0.401,2.214,0.545c0.246-0.206,0.492-0.411,0.738-0.617c-0.492-0.067-0.906-0.151-1.382-0.328
				c-0.134,0.185-0.268,0.37-0.402,0.555c0.832-0.176,2.92-0.729,3.44,0.189c0.321-0.156,0.643-0.312,0.965-0.468
				c-0.05-0.024-0.1-0.048-0.149-0.071c-0.317,0.185-0.636,0.37-0.953,0.555c0.257,0.104,0.514,0.206,0.771,0.309
				c0.23,0.093,1.184-0.03,1.072-0.437c-0.647-2.372-3.961-1.525-5.721-2.071c-0.134,0.185-0.268,0.37-0.402,0.555
				c1.347-0.39,2.687-0.47,4.023,0c0.329,0.116,1.432-0.373,0.953-0.555c-1.892-0.722-3.71-0.954-5.689-0.462
				c-0.153,0.038-0.59,0.205-0.521,0.437c0.485,1.653,4.111,0.313,5.128,1.661c0.108-0.15,0.217-0.302,0.324-0.452
				c-0.657,0.269-1.489,0.217-2.201,0.274c-0.261,0.021-1.067,0.467-0.456,0.618c1.006,0.249,2.056,0.202,3.028,0.586
				c0.134-0.185,0.268-0.37,0.402-0.555c-0.387,0.093-0.778,0.15-1.175,0.173c-0.386,0.035-1.079,0.608-0.323,0.63
				c0.264,0.03,0.528,0.061,0.792,0.091c0.152-0.206,0.304-0.412,0.456-0.618c-0.725,0.053-1.31-0.072-1.979-0.255
				c-0.246,0.206-0.492,0.411-0.738,0.617c0.378,0.065,0.754,0.14,1.131,0.205c0.202-0.209,0.404-0.419,0.605-0.629
				c-0.655-0.049-1.315-0.049-1.972-0.088c-0.371-0.022-1.029,0.018-1.397-0.146c-0.442-0.196-0.408-0.104-0.005-0.3
				c1.094-0.527,3.271-0.348,4.465-0.175c0.19,0.028,1.108-0.109,0.965-0.468c-0.683-1.709-2.552-1.938-4.176-1.613
				c-0.907,0.181-3.694,1.11-3.028,2.446c0.192,0.388,1.351,0.001,1.191-0.318c-0.46-0.923,1.5-1.521,2.148-1.591
				c1.161-0.125,2.217,0.255,2.673,1.395c0.321-0.156,0.643-0.312,0.965-0.468c-1.107-0.161-2.271-0.104-3.384-0.028
				c-0.888,0.06-2.27,0.074-3.012,0.684c-1.604,1.319,3.59,1.272,4.094,1.311c0.299,0.022,1.258-0.516,0.605-0.629
				c-0.378-0.066-0.754-0.141-1.131-0.205c-0.331-0.058-1.415,0.433-0.738,0.617c0.868,0.237,1.653,0.322,2.544,0.257
				c0.252-0.019,1.076-0.498,0.456-0.618c-0.456-0.089-0.595-0.102-1.058-0.114c-0.107,0.21-0.215,0.42-0.323,0.63
				c0.519-0.047,0.995-0.108,1.497-0.237c0.145-0.037,0.819-0.391,0.402-0.555c-1.048-0.415-2.16-0.381-3.243-0.648
				c-0.152,0.206-0.304,0.412-0.456,0.618c1.003-0.08,1.893-0.059,2.836-0.444c0.155-0.063,0.479-0.246,0.324-0.452
				c-0.521-0.691-1.439-0.831-2.25-0.918c-0.634-0.067-2.575,0.146-2.796-0.606c-0.174,0.146-0.348,0.291-0.521,0.437
				c1.597-0.396,3.076-0.113,4.588,0.462c0.317-0.185,0.636-0.37,0.953-0.555c-1.695-0.597-3.416-0.495-5.125,0
				c-0.119,0.034-0.84,0.419-0.402,0.555c1.623,0.505,4.915-0.244,5.482,1.835c0.357-0.146,0.715-0.291,1.072-0.437
				c-0.257-0.104-0.514-0.206-0.771-0.309c-0.298-0.12-1.446,0.284-0.953,0.555c0.129,0.071,0.223,0.099,0.364,0.134
				c0.17,0.043,1.146-0.15,0.965-0.468c-0.804-1.418-3.529-0.69-4.78-0.426c-0.147,0.031-0.818,0.399-0.402,0.555
				c0.524,0.196,1.042,0.315,1.597,0.391c0.335,0.046,1.413-0.491,0.738-0.617c-0.69-0.13-1.348-0.189-1.999-0.482
				c-0.188,0.195-0.375,0.392-0.563,0.587c0.782-0.08,1.431-0.119,2.167-0.394c0.201-0.074,0.538-0.32,0.246-0.502
				c-0.677-0.423-1.284-0.438-2.04-0.257c-0.135,0.032-0.828,0.41-0.402,0.555c0.862,0.293,1.648,0.407,2.548,0.238
				c0.352-0.065,1.104-0.59,0.323-0.63c-0.926-0.047-1.773-0.005-2.675,0.196c-0.271,0.061-0.816,0.455-0.295,0.586
				c0.854,0.215,1.693,0.142,2.384-0.432c0.124-0.103,0.188-0.284,0.003-0.36c-1.105-0.46-3.185-0.15-3.69,1.077
				c-0.076,0.185,0.251,0.247,0.357,0.24c0.467-0.031,1.541-0.246,1.137-0.951c-0.443-0.776-1.676-0.09-2.094,0.291
				c-0.17,0.154-0.155,0.354,0.104,0.392c0.638,0.092,2.352-0.008,2.589-0.834c0.33-1.149-1.84-0.667-2.344-0.668
				C201.298,354.377,200.45,355.017,201.25,355.018L201.25,355.018z"/>
		</g>
	</g>
	<g>
		<path fill="#1D1D1B" d="M201.108,366.151c0.454,0.07,1.986-0.498,2.214,0.213c0.283,0.852-1.419,1.135-1.816,0.993
			c0.965-1.419,1.759,0.496,0.795,0.354c0.17-1.064,2.213-1.49,2.894-0.994c-0.34,0.568-1.191,0.498-1.702,0.285
			c0.794-0.285,1.76-0.285,2.61-0.213c-0.794,0.283-1.646,0.07-2.383-0.285c0.511-0.283,1.248-0.07,1.646,0.355
			c-0.624,0.426-1.362,0.283-2.043,0.426c0.681,0.497,1.589,0.497,2.326,0.709c-0.511-0.07-1.135-0.212-1.646-0.496
			c0.795-0.213,4.086-1.064,4.539,0.426c-0.057,0-0.226-0.071-0.282-0.142c0.282,0.142,0.566,0.284,0.851,0.426
			c-0.453-2.981-4.483-1.917-6.186-2.696c1.589-0.639,3.519-0.781,5.05,0c-1.815-0.924-3.744-1.349-5.674-0.639
			c0.17,1.631,4.653,0.213,5.617,2.199c-0.852,0.568-1.872,0.355-2.78,0.496c1.078,0.426,2.44,0.214,3.462,0.852
			c-0.453,0.214-0.965,0.214-1.476,0.284c0.34,0,0.682,0,1.022,0.142c-0.795,0.143-1.76-0.07-2.498-0.354
			c0.397,0.07,0.852,0.212,1.249,0.283c-0.567-0.071-4.2-0.071-4.483-0.639c-0.567-1.42,5.392-1.42,6.356-1.206
			c-0.682-2.696-3.576-2.483-5.165-1.562c-0.511,0.355-2.1,1.277-1.476,2.271"/>
		<g>
			<path fill="#FFFFFF" d="M200.816,366.546c0.178,0,0.373-0.044,0.546-0.031c0.104-0.012,0.208-0.027,0.312-0.045
				c0.278-0.101,0.374,0.068,0.287,0.505c0.075,0.128,0.151,0.257,0.227,0.385c-0.104,0.125-0.767,0.001,0.405-0.044
				c0.147,0.099,0.295,0.198,0.441,0.297c0.451-0.692,0.976-0.877,1.571-0.553c0.001-0.148,0.003-0.297,0.004-0.445
				c-0.176,0.015-0.353,0.029-0.528,0.045c-0.166,0.229-0.331,0.457-0.497,0.686c0.801-0.225,1.438-0.21,2.227-0.16
				c0.066-0.246,0.134-0.492,0.2-0.738c-0.612,0.09-1.18-0.006-1.702-0.285c-0.166,0.229-0.331,0.457-0.497,0.686
				c0.29,0.098,0.579,0.195,0.869,0.294c0.133-0.187,0.267-0.373,0.4-0.56c-0.542,0.252-1.072,0.247-1.651,0.321
				c-0.245,0.031-1.228,0.426-0.696,0.726c0.783,0.442,1.591,0.545,2.46,0.748c0.304-0.255,0.606-0.509,0.91-0.764
				c-0.535-0.09-1.021-0.228-1.512-0.457c-0.166,0.229-0.331,0.457-0.497,0.686c0.98-0.259,3.166-0.926,3.712,0.28
				c0.441-0.181,0.883-0.36,1.324-0.54c-0.062-0.026-0.124-0.054-0.187-0.08c-0.424,0.208-0.849,0.416-1.273,0.624
				c0.283,0.143,0.567,0.284,0.851,0.426c0.3,0.15,1.429-0.05,1.324-0.54c-0.655-3.081-4.161-1.988-6.332-2.842
				c-0.102,0.207-0.203,0.414-0.305,0.621c1.416-0.514,2.805-0.539,4.177,0.064c0.397,0.175,1.769-0.402,1.178-0.686
				c-2.075-0.997-4.133-1.339-6.354-0.639c-0.199,0.063-0.715,0.239-0.644,0.54c0.487,2.076,4.574,0.471,5.668,2.283
				c0.078-0.159,0.156-0.318,0.234-0.478c-0.614,0.314-1.529,0.24-2.223,0.31c-0.198,0.02-1.276,0.541-0.696,0.726
				c1.142,0.364,2.385,0.305,3.462,0.852c0.166-0.229,0.331-0.457,0.497-0.686c-0.416,0.136-0.842,0.217-1.276,0.244
				c-0.468,0.053-1.339,0.745-0.399,0.778c0.286,0.042,0.573,0.085,0.859,0.128c0.188-0.255,0.375-0.51,0.562-0.765
				c-0.7,0.054-1.372-0.051-2.017-0.313c-0.348,0.241-0.696,0.482-1.044,0.725c0.417,0.09,0.831,0.192,1.249,0.283
				c0.304-0.255,0.606-0.509,0.91-0.764c-0.666-0.062-1.337-0.07-2.005-0.112c-0.409-0.026-2.708-0.056-1.954-0.707
				c0.517-0.446,2.166-0.328,2.778-0.345c0.706-0.018,1.445-0.044,2.144,0.083c0.26,0.047,1.332-0.126,1.19-0.579
				c-0.645-2.064-2.535-2.668-4.529-2.247c-1.327,0.279-4.282,1.593-3.582,3.352c0.192,0.483,1.644,0.04,1.471-0.395
				c-0.487-1.226,1.417-2.174,2.418-2.283c1.421-0.156,2.349,0.678,2.752,1.968c0.396-0.193,0.794-0.386,1.19-0.579
				c-1.927-0.351-5.467-0.449-7.098,0.825c-2.184,1.704,3.684,1.725,4.314,1.783c0.379,0.035,1.77-0.577,0.91-0.764
				c-0.417-0.091-0.831-0.193-1.249-0.283c-0.33-0.071-1.646,0.52-1.044,0.725c1,0.341,1.928,0.489,2.979,0.394
				c0.317-0.029,1.322-0.58,0.562-0.765c-0.523-0.127-0.65-0.137-1.186-0.155c-0.133,0.26-0.266,0.519-0.399,0.778
				c0.587-0.066,1.115-0.143,1.675-0.324c0.201-0.065,0.988-0.437,0.497-0.686c-1.103-0.561-2.303-0.482-3.462-0.852
				c-0.232,0.241-0.464,0.483-0.696,0.726c1.212-0.121,2.237-0.119,3.338-0.683c0.19-0.097,0.356-0.276,0.234-0.478
				c-0.533-0.885-1.542-1.128-2.508-1.255c-0.799-0.104-2.825,0.133-3.059-0.86c-0.215,0.18-0.429,0.36-0.644,0.54
				c1.79-0.564,3.37-0.141,4.993,0.639c0.393-0.229,0.785-0.457,1.178-0.686c-1.953-0.859-3.961-0.646-5.923,0.064
				c-0.178,0.064-0.729,0.454-0.305,0.621c2.008,0.79,5.448-0.229,6.039,2.551c0.441-0.181,0.883-0.36,1.324-0.54
				c-0.284-0.142-0.567-0.284-0.851-0.426c-0.332-0.167-1.671,0.35-1.273,0.624c0.139,0.096,0.218,0.153,0.378,0.203
				c0.235,0.074,1.545-0.054,1.324-0.54c-0.82-1.812-3.917-0.954-5.366-0.571c-0.2,0.053-0.992,0.454-0.497,0.686
				c0.582,0.272,1.147,0.429,1.779,0.535c0.415,0.069,1.744-0.568,0.91-0.764c-0.761-0.178-1.502-0.28-2.192-0.67
				c-0.232,0.241-0.464,0.483-0.696,0.726c0.872-0.112,1.633-0.158,2.435-0.53c0.123-0.058,0.665-0.354,0.4-0.56
				c-0.765-0.596-1.501-0.69-2.422-0.417c-0.18,0.054-1.009,0.468-0.497,0.686c1.049,0.446,1.962,0.544,3.063,0.285
				c0.48-0.113,0.989-0.688,0.2-0.738c-1.043-0.065-1.989-0.016-2.994,0.266c-0.149,0.042-1.035,0.518-0.497,0.686
				c1.016,0.318,2.101,0.28,2.876-0.525c0.146-0.151,0.233-0.326,0.004-0.445c-1.317-0.684-3.726-0.054-4.216,1.436
				c-0.077,0.234,0.296,0.302,0.441,0.297c0.643-0.024,1.963-0.438,1.298-1.329c-0.662-0.885-1.994-0.008-2.482,0.576
				c-0.163,0.195,0.043,0.352,0.227,0.385c0.831,0.147,2.532-0.081,2.937-0.989c0.686-1.542-1.946-0.993-2.587-0.994
				C200.875,365.755,199.829,366.545,200.816,366.546L200.816,366.546z"/>
		</g>
	</g>
	<g>
		<path fill="#DDDB00" d="M200.25,362.948c0.455,0.07,1.987-0.498,2.213,0.212c0.284,0.852-1.419,1.136-1.815,0.993
			c0.965-1.419,1.759,0.497,0.794,0.354c0.171-1.063,2.214-1.489,2.895-0.993c-0.341,0.567-1.191,0.497-1.702,0.285
			c0.794-0.285,1.759-0.285,2.609-0.214c-0.794,0.284-1.645,0.07-2.383-0.284c0.511-0.283,1.249-0.071,1.646,0.354
			c-0.625,0.426-1.362,0.284-2.044,0.426c0.682,0.497,1.59,0.497,2.326,0.71c-0.51-0.07-1.134-0.213-1.645-0.496
			c0.794-0.214,4.085-1.065,4.539,0.426c-0.057,0-0.227-0.071-0.283-0.143c0.283,0.143,0.567,0.284,0.851,0.426
			c-0.453-2.98-4.482-1.916-6.186-2.696c1.59-0.638,3.519-0.78,5.051,0c-1.816-0.923-3.745-1.349-5.675-0.638
			c0.171,1.631,4.653,0.212,5.618,2.199c-0.852,0.567-1.873,0.355-2.78,0.496c1.077,0.426,2.439,0.213,3.461,0.852
			c-0.453,0.213-0.965,0.213-1.476,0.284c0.341,0,0.682,0,1.022,0.142c-0.795,0.143-1.76-0.07-2.498-0.354
			c0.397,0.071,0.852,0.213,1.249,0.284c-0.567-0.071-4.2-0.071-4.483-0.639c-0.567-1.42,5.392-1.42,6.355-1.207
			c-0.681-2.696-3.574-2.482-5.163-1.561c-0.511,0.355-2.1,1.277-1.476,2.271"/>
		<g>
			<path fill="#FFFFFF" d="M199.958,363.343c0.178,0,0.373-0.045,0.546-0.031c0.104-0.012,0.208-0.027,0.312-0.045
				c0.278-0.101,0.374,0.067,0.287,0.504c0.075,0.128,0.151,0.257,0.227,0.385c-0.105,0.126-0.765-0.001,0.404-0.044
				c0.147,0.099,0.295,0.198,0.441,0.297c0.452-0.692,0.977-0.876,1.572-0.552c0.001-0.148,0.003-0.297,0.004-0.445
				c-0.176,0.015-0.353,0.029-0.528,0.045c-0.166,0.229-0.331,0.457-0.497,0.686c0.801-0.225,1.437-0.211,2.226-0.161
				c0.066-0.246,0.134-0.492,0.2-0.738c-0.612,0.09-1.18-0.005-1.702-0.284c-0.166,0.229-0.331,0.457-0.497,0.686
				c0.29,0.098,0.58,0.195,0.87,0.293c0.133-0.187,0.267-0.373,0.4-0.56c-0.543,0.253-1.072,0.247-1.652,0.321
				c-0.245,0.031-1.228,0.426-0.696,0.726c0.784,0.442,1.591,0.545,2.46,0.749c0.304-0.255,0.606-0.509,0.91-0.764
				c-0.534-0.09-1.02-0.228-1.511-0.457c-0.166,0.229-0.331,0.457-0.497,0.686c0.98-0.261,3.165-0.926,3.712,0.28
				c0.441-0.181,0.883-0.36,1.324-0.54c-0.062-0.027-0.125-0.054-0.188-0.081c-0.424,0.208-0.849,0.416-1.273,0.624
				c0.283,0.143,0.567,0.284,0.851,0.426c0.3,0.15,1.429-0.05,1.324-0.54c-0.655-3.081-4.162-1.988-6.332-2.842
				c-0.102,0.207-0.203,0.414-0.305,0.621c1.416-0.513,2.805-0.538,4.178,0.064c0.397,0.175,1.769-0.402,1.178-0.686
				c-2.076-0.996-4.134-1.339-6.355-0.638c-0.199,0.063-0.715,0.239-0.644,0.54c0.488,2.077,4.574,0.471,5.669,2.283
				c0.078-0.159,0.156-0.318,0.234-0.478c-0.614,0.313-1.529,0.24-2.223,0.31c-0.198,0.02-1.276,0.541-0.696,0.726
				c1.141,0.364,2.384,0.304,3.461,0.852c0.166-0.229,0.331-0.457,0.497-0.686c-0.416,0.135-0.842,0.216-1.276,0.244
				c-0.467,0.054-1.339,0.745-0.399,0.778c0.286,0.042,0.573,0.085,0.859,0.128c0.188-0.255,0.375-0.51,0.562-0.765
				c-0.7,0.054-1.372-0.051-2.017-0.314c-0.348,0.241-0.696,0.482-1.044,0.725c0.417,0.091,0.831,0.193,1.249,0.284
				c0.304-0.255,0.606-0.509,0.91-0.764c-0.666-0.062-1.337-0.07-2.005-0.112c-0.409-0.026-2.708-0.056-1.954-0.707
				c0.516-0.446,2.166-0.328,2.778-0.345c0.706-0.019,1.444-0.045,2.143,0.082c0.26,0.047,1.332-0.126,1.19-0.579
				c-0.644-2.064-2.534-2.668-4.527-2.247c-1.326,0.28-4.283,1.594-3.582,3.352c0.192,0.483,1.644,0.04,1.471-0.395
				c-0.487-1.225,1.418-2.173,2.418-2.282c1.42-0.157,2.348,0.678,2.75,1.967c0.396-0.193,0.794-0.386,1.19-0.579
				c-1.927-0.349-5.466-0.448-7.097,0.826c-2.184,1.704,3.684,1.725,4.314,1.783c0.379,0.035,1.77-0.577,0.91-0.764
				c-0.417-0.091-0.831-0.193-1.249-0.284c-0.33-0.071-1.645,0.52-1.044,0.725c1,0.342,1.928,0.49,2.979,0.395
				c0.317-0.029,1.322-0.58,0.562-0.765c-0.523-0.127-0.65-0.137-1.186-0.155c-0.133,0.26-0.266,0.519-0.399,0.778
				c0.587-0.067,1.115-0.144,1.675-0.324c0.202-0.065,0.987-0.437,0.497-0.686c-1.103-0.562-2.303-0.482-3.461-0.852
				c-0.232,0.241-0.464,0.483-0.696,0.726c1.212-0.121,2.237-0.12,3.338-0.683c0.19-0.097,0.356-0.276,0.234-0.478
				c-0.534-0.885-1.542-1.128-2.509-1.256c-0.798-0.104-2.824,0.134-3.059-0.859c-0.215,0.18-0.429,0.36-0.644,0.54
				c1.79-0.565,3.371-0.141,4.994,0.638c0.393-0.229,0.785-0.457,1.178-0.686c-1.954-0.858-3.961-0.646-5.924,0.064
				c-0.178,0.064-0.729,0.454-0.305,0.621c2.008,0.79,5.448-0.228,6.039,2.551c0.441-0.181,0.883-0.36,1.324-0.54
				c-0.284-0.142-0.567-0.284-0.851-0.426c-0.331-0.166-1.672,0.349-1.273,0.624c0.14,0.097,0.219,0.154,0.379,0.204
				c0.235,0.074,1.545-0.054,1.324-0.54c-0.821-1.812-3.917-0.955-5.366-0.571c-0.199,0.054-0.992,0.454-0.497,0.686
				c0.582,0.272,1.146,0.429,1.778,0.535c0.414,0.069,1.744-0.567,0.91-0.764c-0.761-0.179-1.502-0.281-2.192-0.671
				c-0.232,0.241-0.464,0.483-0.696,0.726c0.872-0.111,1.634-0.158,2.436-0.53c0.123-0.058,0.665-0.354,0.4-0.56
				c-0.766-0.596-1.502-0.689-2.423-0.416c-0.18,0.054-1.01,0.469-0.497,0.686c1.049,0.445,1.962,0.544,3.063,0.284
				c0.479-0.113,0.989-0.688,0.2-0.738c-1.043-0.064-1.989-0.015-2.993,0.267c-0.149,0.042-1.035,0.518-0.497,0.686
				c1.016,0.317,2.099,0.279,2.876-0.525c0.146-0.151,0.233-0.326,0.004-0.445c-1.317-0.684-3.725-0.055-4.217,1.435
				c-0.077,0.234,0.297,0.302,0.441,0.297c0.644-0.023,1.963-0.438,1.298-1.328c-0.661-0.886-1.993-0.009-2.481,0.575
				c-0.164,0.196,0.043,0.352,0.227,0.385c0.831,0.148,2.532-0.081,2.936-0.989c0.686-1.542-1.946-0.992-2.586-0.993
				C200.017,362.552,198.97,363.342,199.958,363.343L199.958,363.343z"/>
		</g>
	</g>
	<path fill="#FFFFFF" stroke="#1D1D1B" stroke-width="0.9867" stroke-linecap="round" stroke-miterlimit="10" d="M205.952,365.4
		c-0.065,0.956-0.053,1.812,0,2.708c0.053,0.79-0.21,2.214,0.317,2.846c1.633,1.846,2.457-1.674,2.404-2.675 M203.317,365.787
		c0.054,1.634-0.315,3.374,0.211,4.955c0.264,0.843,0.633,1.423,1.581,1.107c1.001-0.369,0.705-1.18,0.811-2.075 M200.577,362.844
		c-0.207,1.58-0.055,3.167-0.066,4.07c-0.02,1.542,0.139,3.149,0.139,4.626c0,1.633,0.02,3.419,0.355,5.159
		c0.153,0.787,0.663,1.08,1.401,0.658c0.579-0.368,0.583-0.936,0.635-1.566c0.105-2.057,0.099-5.555,0.197-7.611 M208.642,365.366
		c0,0.054,0,0.054,0,0.105c0,1.212,0,2.411,0.157,3.637c0.099,0.769,1.417,1.528,1.832-0.217c0.349-1.469,0.369-3.196,0.422-4.672
		c0.052-1.581-0.145-4.134-0.62-5.706c0,0-0.666-2.122-1.702-3.849l-0.036-0.055c-0.886-0.902-2.232-1.044-3.419-1.044
		c-0.814,0-1.646,0.035-2.462,0.231c-0.302,0.07-0.886,0.265-1.063,0.548l-0.036,0.054c-0.655,1.683-0.967,1.686-2.355,4.056
		c-1,1.711-1.019,2.098-1.523,4.022c-0.194,0.743-0.43,1.515-0.391,2.11c0.028,0.403,0.255,0.838,0.255,1.199
		c0,0.634-0.187,1.757-0.028,2.338c0.263,1.053,1.317,0.665,1.845-0.021c0.421-0.579,0.376-0.516,0.48-1.201
		c0.211-1.213-0.053-2.479,0.422-3.585c0.052-0.158,0.105-0.315,0.158-0.474 M200.908,356.021c-1.405-0.888-2.636-5.449,5-5.108
		c6.832,0.303,4.196,4.806,3.792,5.108 M202.36,359.958c0.209-0.895,0.408-1.746,0.618-2.641 M205.002,357.487
		c0.22,1.542,0.309,1.725,0.309,2.888 M207.697,359.204c-0.304-0.606-0.658-1.77-0.81-2.427"/>
</g>
</svg>
